<?xml version="1.0" encoding="UTF-8"?>
<svg xmlns="http://www.w3.org/2000/svg" id="a" width="865.76" height="682.89" viewBox="0 0 865.76 682.89">
  <g>
    <path d="M30.95,323.55c15.95-29.85,48.19-47.29,81.93-44.67l318.12,24.71s63.39,7.75,91.56,50.71c0,0,17.61,28.88,52.12,30.99l164.81,23.95-16.2,121.14s-73.95-7.04-138.75-9.86c0,0-54.23-4.93-102.83,30.99,0,0-28.17,21.83-70.43,12.68l-302.86-37.33s-79.59-1.41-92.97-82.41c0,0-17.77-58.65,15.5-120.9Z" fill="#fff"></path>
    <path d="M431.75,566.91c-6.4,0-13.28-.65-20.57-2.23l-302.81-37.32c-.15,0-20.2-.47-41.62-10.88-19.79-9.61-44.83-29.89-51.78-71.94-.16-.52-17.44-59.5,15.55-121.22,16-29.94,48.35-47.58,82.41-44.93l318.12,24.71c.66,.08,63.96,8.27,91.94,50.94,.18,.3,17.89,28.69,51.73,30.77l165.34,24.02-16.33,122.11-.48-.05c-.74-.07-74.68-7.07-138.73-9.86-.56-.05-54.64-4.49-102.51,30.89-.23,.18-19.78,15-50.26,15ZM30.95,323.55l.44,.24c-32.79,61.34-15.64,119.94-15.46,120.52,6.89,41.69,31.67,61.76,51.24,71.27,21.23,10.31,41.06,10.78,41.26,10.78l302.91,37.33c41.6,9.01,69.78-12.36,70.06-12.58,48.2-35.63,102.64-31.15,103.18-31.09,61.34,2.67,131.78,9.21,138.27,9.82l16.07-120.18-164.32-23.88c-34.33-2.1-52.3-30.93-52.47-31.22-27.72-42.27-90.56-50.4-91.2-50.48l-318.09-24.71c-33.66-2.62-65.64,14.82-81.46,44.41l-.44-.24Z" fill="#002346"></path>
  </g>
  <path d="M94.69,290.2l325.75,21.83s50.01,2.82,76.07,32.4c0,0,38.03,45.08,76.77,50.71l152.84,21.13s-31.69,24.65-12.68,105.65l-143.68-9.16s-42.96-4.23-85.93,26.76c0,0-25.36,23.95-70.43,15.5l-327.68-45.04,8.97-219.78Z" fill="#d1d3d4"></path>
  <g>
    <path d="M831.62,416.39c26.81,23.51,23.56,60.41,22.8,66.61-.12,.97-.22,1.94-.32,2.92-10.3,95.31-106.15,54.33-106.15,54.33,0,1.41-20.43,5.63-31.69-13.38,0,0-5.68-9.71-10.22-24.18-9.23-29.44-2.96-61.76,17.2-85.12,11.4-13.2,26.52-22.74,43.02-11.84,0,0,17.9-8.02,50.81,2.51,5.35,1.71,10.33,4.46,14.55,8.17Z" fill="#fff"></path>
    <path d="M791.59,549.44c-21.35,0-40.57-7.42-43.47-8.59-.27,.22-.74,.45-1.58,.68-5.31,1.45-21.17,1.7-30.72-14.42-.06-.1-5.76-9.93-10.27-24.29-9.3-29.66-2.67-62.46,17.3-85.59,14.59-16.9,29.61-21.07,43.46-12.08,2.33-.92,20.3-7.2,50.9,2.59,5.54,1.77,10.5,4.55,14.73,8.27h0c26.81,23.51,23.84,59.98,22.97,67.05-.1,.8-.18,1.59-.27,2.39l-.06,.52c-2.91,26.91-12.92,45.55-29.77,55.41-10.3,6.03-22.06,8.06-33.24,8.06Zm-44.14-9.96l.7,.3c.45,.19,45.12,18.92,76.18,.73,16.56-9.69,26.41-28.08,29.28-54.65l.06-.52c.09-.8,.17-1.6,.27-2.4,.86-6.98,3.79-43-22.64-66.17h0c-4.13-3.62-8.96-6.33-14.38-8.06-32.31-10.34-50.27-2.61-50.45-2.53l-.25,.11-.23-.15c-13.62-8.99-27.88-5.04-42.37,11.75-19.75,22.87-26.3,55.31-17.1,84.64,4.47,14.24,10.12,23.98,10.17,24.08,6.73,11.36,16.64,13.91,21.95,14.41,4.9,.47,8.26-.49,8.81-.9v-.63Z" fill="#002346"></path>
  </g>
  <g>
    <ellipse cx="821.12" cy="481.93" rx="50.36" ry="24.62" transform="translate(199.04 1202.7) rotate(-79.61)" fill="#fff"></ellipse>
    <path d="M814.28,532.17c-.78,0-1.56-.07-2.33-.21-13.62-2.5-20.59-26.97-15.54-54.56,2.44-13.3,7.27-25.35,13.6-33.93,6.41-8.68,13.61-12.79,20.28-11.56,13.62,2.5,20.59,26.97,15.54,54.56-2.44,13.3-7.27,25.35-13.6,33.93-5.67,7.68-11.96,11.78-17.94,11.78Zm13.68-99.47c-5.66,0-11.67,3.96-17.14,11.37-6.24,8.46-11.01,20.36-13.42,33.52-4.96,27.04,1.65,50.99,14.73,53.39,6.27,1.15,13.12-2.82,19.29-11.17,6.24-8.46,11.01-20.36,13.42-33.52l.49,.09-.49-.09c4.96-27.04-1.65-50.99-14.73-53.39-.71-.13-1.43-.19-2.15-.19Z" fill="#002346"></path>
  </g>
  <path d="M747.95,540.74c-.12,0-.24-.04-.33-.13-9.04-8.08-16.09-17.6-20.96-28.3-10.36-22.78-8.1-49.17,6.02-70.61,13.94-21.16,33.08-36.24,33.27-36.39,.22-.17,.53-.13,.7,.09,.17,.22,.13,.53-.09,.7-.19,.15-19.2,15.13-33.05,36.15-13.94,21.15-16.16,47.18-5.95,69.64,4.81,10.57,11.77,19.98,20.71,27.97,.21,.18,.22,.5,.04,.71-.1,.11-.24,.17-.37,.17Z" fill="#002346"></path>
  <path d="M426.78,528.06c-.16,0-.32-.08-.42-.23-28.48-43.81-26.19-85.3-19.26-112.38,7.51-29.34,21.95-48.59,22.1-48.78,.17-.22,.48-.26,.7-.1,.22,.17,.26,.48,.1,.7-.14,.19-14.48,19.3-21.93,48.46-6.87,26.88-9.13,68.06,19.14,111.55,.15,.23,.08,.54-.15,.69-.08,.05-.18,.08-.27,.08Z" fill="#fff"></path>
  <path d="M571.16,416.78s-.05,0-.08,0c-12.2-1.95-23.3-4.82-33-8.54-15.71-6.01-29.39-17.62-38.52-32.69-15.17-25.01-44.51-36.86-44.8-36.98-.26-.1-.38-.39-.28-.65,.1-.26,.39-.38,.65-.28,.3,.12,29.94,12.09,45.29,37.39,9.02,14.88,22.53,26.34,38.03,32.28,9.63,3.69,20.67,6.54,32.8,8.48,.27,.04,.46,.3,.41,.57-.04,.25-.25,.42-.49,.42Z" fill="#fff"></path>
  <path d="M679.63,428.05s-.04,0-.06,0l-79.59-9.86c-.27-.03-.47-.28-.43-.56,.03-.27,.28-.47,.56-.43l79.59,9.86c.27,.03,.47,.28,.43,.56-.03,.25-.25,.44-.5,.44Z" fill="#fff"></path>
  <ellipse cx="94.69" cy="400.43" rx="58.81" ry="110.23" fill="#d1d3d4"></ellipse>
  <g>
    <path d="M206.88,525.1c-9.11,9.11-47.82-11.39-47.82-11.39-30.36-15.94-22.77-24.29-22.77-24.29,12.15-6.83,34.92,6.07,34.92,6.07,31.12,13.66,35.68,29.6,35.68,29.6Z" fill="#E9A821"></path>
    <path d="M199.36,527.92c-14.33,0-39.24-13.08-40.54-13.77-18.32-9.62-23.04-16.59-23.77-20.75-.49-2.79,.81-4.26,.86-4.32l.12-.1c12.25-6.89,34.47,5.54,35.41,6.07,30.94,13.58,35.72,29.24,35.91,29.9l.08,.28-.21,.21c-1.75,1.75-4.53,2.47-7.87,2.47Zm-62.75-38.11c-.2,.26-.95,1.41-.56,3.48,.73,3.93,5.35,10.59,23.24,19.98,.38,.2,37.86,19.89,47.01,11.69-.8-2.18-7.05-16.6-35.3-29-.27-.15-22.61-12.65-34.39-6.14Z" fill="#002346"></path>
  </g>
  <g>
    <path d="M229.65,508.4s63.76,42.51,78.95,28.09l-3.04-18.22,3.04-4.55-26.57-13.66-35.68-1.52s-12.15-2.28-16.7,9.87Z" fill="#E9A821"></path>
    <path d="M299.24,539.97c-22.82,0-67.64-29.67-69.86-31.15l-.33-.22,.14-.37c4.65-12.4,17.14-10.21,17.26-10.18l35.72,1.51,27.16,13.97-3.24,4.86,3.05,18.28-.19,.18c-2.3,2.19-5.66,3.12-9.71,3.12Zm-68.97-31.77c4.98,3.26,63.3,41.03,77.8,28.1l-3.02-18.15,2.84-4.25-25.97-13.36-35.57-1.51c-.54-.1-11.62-2.01-16.07,9.17Z" fill="#002346"></path>
  </g>
  <g>
    <path d="M516.59,570.64s-21.8,26.02-73.53,14.43c-6.43-1.44-13.01-2.18-19.61-1.94-6.06,.22-13.63,.99-21.54,3.06-.71,.18-1.42,.39-2.13,.6-3.04,.87-16.14,3.98-30.76-1.97-10.34-4.21-18.73-12.14-23.92-22.02l-28.15-53.64-8.35,27.33s-7.59-18.98-37.95-30.36c0,0-29.6-11.39-40.99,2.28l22.01-84.26-44.79,100.96s-4.55-14.94-35.68-28.6c0,0-22.77-12.9-34.92-6.07l60.64-151.49,.84-2.09s18.98-54.9,55.01-48.78c2.1,.36,4.26,.93,6.47,1.72,0,0,77.43-3.8,114.62,25.05l113.1,177.63s25.05,31.88,29.6,78.19Z" fill="#E9A821"></path>
    <path d="M387.43,588.89c-5.32,0-11.78-.84-18.59-3.61-10.24-4.17-18.83-12.08-24.17-22.25l-27.59-52.56-8.41,27.52-.53-1.32c-.08-.19-7.89-18.92-37.67-30.08-.3-.11-29.41-11.1-40.43,2.13l-1.43,1.72,21.02-80.47-42.83,96.55-.39-1.28c-.05-.15-4.91-14.91-35.4-28.29-.27-.15-22.71-12.71-34.47-6.09l-1.24,.7,62.01-154.9c.18-.53,19.53-55.2,55.56-49.08,2.1,.36,4.28,.93,6.47,1.7,3.2-.14,78.54-3,114.85,25.16l.12,.13,113.1,177.63c.22,.28,25.16,32.49,29.68,78.41l.02,.21-.13,.16c-.22,.26-22.59,26.12-74.03,14.6-6.7-1.5-13.25-2.16-19.48-1.93-7.54,.27-14.75,1.3-21.43,3.04-.54,.14-1.07,.29-1.61,.45l-.52,.15c-1.92,.55-6.47,1.62-12.49,1.62Zm-70.6-81.04l28.72,54.71c5.24,9.97,13.64,17.71,23.66,21.79,14.23,5.79,26.89,2.96,30.43,1.96l.51-.15c.54-.16,1.09-.32,1.63-.46,6.75-1.76,14.03-2.8,21.64-3.07,6.31-.23,12.95,.43,19.73,1.96,48.73,10.92,70.98-11.99,72.9-14.11-4.54-45.5-29.23-77.39-29.48-77.71l-113.09-177.59c-36.65-28.34-113.45-24.93-114.22-24.89h-.1s-.09-.03-.09-.03c-2.17-.77-4.32-1.34-6.39-1.69-35.2-5.98-54.27,47.9-54.46,48.45l-.85,2.11-60.15,150.27c12.44-5.51,33.3,6.16,34.21,6.67,26.37,11.57,33.74,23.96,35.46,27.75l44.3-99.87,.94,.33-21.52,82.36c12.25-11.53,39.01-1.43,40.19-.98,25.86,9.7,35.41,25.1,37.67,29.46l8.33-27.27Z" fill="#002346"></path>
  </g>
  <g>
    <rect x="316.25" y="117.9" width="83.13" height="127.48" rx="41.56" ry="41.56" transform="translate(-38.78 120.48) rotate(-18.15)" fill="#f2b3c1"></rect>
    <path d="M364.75,244.78c-17.69,0-34.2-11.26-40-28.97l-13.81-42.15c-3.5-10.68-2.63-22.08,2.44-32.1,5.08-10.02,13.75-17.47,24.43-20.97,10.68-3.5,22.08-2.63,32.1,2.44,10.02,5.08,17.47,13.75,20.97,24.43l13.81,42.15c3.5,10.68,2.63,22.08-2.44,32.1s-13.75,17.47-24.43,20.97c-4.33,1.42-8.74,2.1-13.07,2.1Zm-13.87-125.28c-4.23,0-8.53,.66-12.76,2.05-21.52,7.05-33.28,30.3-26.23,51.81l13.81,42.15c7.05,21.52,30.29,33.29,51.81,26.23l.16,.48-.16-.48c21.52-7.05,33.28-30.3,26.23-51.81l-13.81-42.15c-5.67-17.28-21.78-28.28-39.05-28.28Z" fill="#002346"></path>
  </g>
  <g>
    <path d="M405,181.23s3.04,24.29,29.6,37.95l-40.9,12.94s18.84-15.61,10.51-42.36l-2.83-8.73,3.61,.2Z" fill="#f2b3c1"></path>
    <path d="M391.42,233.37l1.97-1.63c.19-.15,18.48-15.72,10.36-41.83l-3.05-9.42,4.76,.26,.05,.41c.03,.24,3.33,24.2,29.34,37.57l1.08,.56-44.5,14.08Zm10.67-51.8l2.6,8.04c6.87,22.09-4.74,36.83-9.11,41.4l37.73-11.94c-23.66-12.73-28.18-34.12-28.74-37.36l-2.48-.14Z" fill="#002346"></path>
  </g>
  <g>
    <path d="M360.22,135.68c-4.96-1.15-12.87-1.36-22.01,.76-14.44,3.35-23.77,11.47-27.82,15.48,0,0-3,9.31,1.03,21.58l13.81,42.15s4.2,11.43,12.6,18.33l-44.41,20.12s-8.35-56.17-.76-84.26c0,0-2.28-30.36,18.98-44.79,0,0,42.51-47.06,69.08-27.33,0,0,13.66-9.11,37.95,13.66,0,0,21.25,20.66,23.15,45.32,.82,10.67,5.64,20.71,13.71,27.74,4.78,4.16,10.91,8.25,18.56,11.21,0,0,37.2,15.18,40.99,45.55l4.55,54.65s3.8,38.71-22.01,50.1l2.28-60.73s.76-59.21-32.64-69.08c0,0-10.63-4.55-32.64,3.04,0,0-24.29-10.63-29.6-37.95l-11.22-22.91s-7.13,4.31-15.07-6.02c-.52-.68-1-1.39-1.47-2.12-1.73-2.7-8.54-12.53-17.03-14.49Z" fill="#002346"></path>
    <path d="M497.33,346.36l.02-.42,2.28-60.73c0-.14,.14-14.95-3.79-30.77-3.62-14.56-11.53-32.98-28.66-38.04-.13-.06-10.84-4.43-32.48,3.03l-.1,.03-.09-.04c-.24-.11-24.46-10.99-29.75-38.11l-11.08-22.64c-1.37,.65-8.01,3.09-15.16-6.22-.46-.6-.92-1.26-1.48-2.14-1.85-2.89-8.54-12.46-16.87-14.38h0c-5.85-1.35-14.03-1.07-21.89,.76-13.06,3.03-22.24,10.02-27.65,15.37-.24,.82-2.74,9.83,1.04,21.36l13.81,42.15c.04,.1,4.28,11.44,12.52,18.21l.33,.27-45.11,20.44-.05-.35c-.08-.56-8.26-56.49-.76-84.32-.09-1.36-1.66-30.9,19.1-44.98,.06-.08,10.76-11.85,24.58-21.07,18.27-12.18,33.71-14.38,44.66-6.36,1.63-.92,15.35-7.55,38.12,13.79,.22,.21,21.34,21.01,23.23,45.49,.84,10.86,5.67,20.64,13.62,27.56,5.5,4.79,11.72,8.54,18.48,11.16,.38,.15,37.39,15.59,41.16,45.76l4.56,54.67c.04,.39,3.52,39.03-22.17,50.36l-.39,.17Zm-39.71-131.81c6.44,0,9.68,1.33,9.73,1.35,17.34,5.12,25.34,23.72,29,38.42,3.95,15.89,3.81,30.76,3.8,30.91l-2.26,60.31c24.92-11.4,21.51-49.28,21.47-49.66l-4.55-54.66c-3.73-29.85-40.46-45.17-40.83-45.32-6.81-2.64-13.08-6.42-18.63-11.25-8.05-7.01-12.95-16.92-13.8-27.91-1.87-24.27-22.86-44.94-23.07-45.15-23.83-22.34-37.49-13.72-37.62-13.63l-.15,.1-.15-.11c-13.6-10.1-31.54-2.17-44.19,6.27-13.76,9.17-24.43,20.91-24.53,21.03-20.93,14.21-18.93,44.29-18.91,44.59v.04s0,.04,0,.04c-7.18,26.57,.03,79.02,.72,83.8l43.7-19.8c-8.14-6.89-12.32-18.06-12.36-18.17l-13.82-42.16c-4-12.21-1.06-21.65-1.03-21.75l.07-.11c5.46-5.4,14.73-12.49,27.95-15.55,7.94-1.84,16.21-2.12,22.13-.76,8.53,1.97,15.32,11.68,17.19,14.61,.56,.87,1,1.52,1.45,2.1,7.69,10.01,14.44,6.13,14.73,5.96l.25-.15,.13,.26,11.24,22.98c5.06,26.02,27.71,36.96,29.36,37.72,9.94-3.41,17.59-4.35,23-4.35Z" fill="#002346"></path>
  </g>
  <path d="M517.35,524.04c-.19,0-.37-.12-.44-.31-8.96-25.39-45.68-55.61-46.04-55.91-.2-.16-.23-.45-.07-.65,.16-.2,.45-.23,.65-.07,.37,.3,37.28,30.69,46.33,56.32,.09,.24-.04,.51-.28,.59-.05,.02-.1,.03-.15,.03Z" fill="#ed1c24"></path>
  <g>
    <path d="M147.16,487.87s-9.84,23.78-17.32,37.05c-1.17,2.08-2.49,4.06-3.94,5.95-5.13,6.73-19.51,24.54-38.19,39.01,0,0-9.87,3.8-15.94,6.07,0,0-3.53,1.18-3.26,4.94,.23,3.25,3.06,5.7,6.31,5.79l52.36,1.42s5.31,.76,9.11-3.8c0,0,27.71,2.52,37.82-2.77,1.51-.79,2.44-2.37,2.52-4.08l1.95-43.66c.14-3.22,1.11-6.35,2.8-9.09l10.61-17.21s-10.91-8.22-20.78-12.01c0,0-16.21-8.41-24.05-7.62Z" fill="#f2b3c1"></path>
    <path d="M128.1,588.65c-.58,0-.94-.05-1-.06l-52.3-1.41c-3.57-.1-6.55-2.84-6.8-6.26-.29-4.1,3.56-5.44,3.6-5.45,5.72-2.15,14.96-5.7,15.85-6.04,18.53-14.36,32.77-31.96,38.04-38.87,1.46-1.91,2.77-3.9,3.9-5.9,7.38-13.09,17.2-36.76,17.3-37l.11-.28,.3-.03c7.9-.8,23.66,7.33,24.33,7.67,9.77,3.75,20.74,11.97,20.85,12.06l.36,.27-10.84,17.59c-1.64,2.66-2.58,5.73-2.73,8.85l-1.95,43.66c-.09,1.92-1.15,3.64-2.79,4.5-9.71,5.08-34.83,3.11-37.83,2.85-2.94,3.38-6.65,3.83-8.4,3.83Zm19.4-100.31c-1.14,2.73-10.26,24.46-17.23,36.82-1.15,2.04-2.49,4.06-3.98,6.01-5.3,6.95-19.64,24.66-38.28,39.1l-.13,.07c-.1,.04-9.94,3.82-15.94,6.07-.15,.05-3.17,1.12-2.94,4.43,.21,2.9,2.77,5.24,5.83,5.33l52.36,1.42c.11,.01,5.15,.66,8.71-3.62l.17-.2,.26,.02c.28,.02,27.68,2.45,37.54-2.71,1.32-.69,2.18-2.09,2.25-3.66l1.95-43.66c.15-3.3,1.14-6.52,2.87-9.33l10.36-16.81c-1.98-1.45-11.6-8.33-20.29-11.67-.21-.11-15.83-8.15-23.52-7.62Z" fill="#002346"></path>
  </g>
  <path d="M77.08,575.69c-.14,0-.29-.06-.38-.18-.18-.21-.15-.53,.06-.7,.19-.16,4.77-3.87,12.41-1.67,1.26-.67,8.36-4.07,16.04,0,1.53-.56,10.41-3.54,16.87-.67,.25,.11,.37,.41,.25,.66s-.41,.37-.66,.25c-6.56-2.92-16.22,.73-16.32,.77-.14,.05-.29,.04-.42-.03-7.99-4.36-15.37-.05-15.44,0-.12,.07-.27,.09-.4,.05-7.22-2.17-11.64,1.39-11.68,1.42-.09,.08-.21,.11-.32,.11Z" fill="#002346"></path>
  <g>
    <path d="M235.73,503.08l-11.94,28.91c-1.85,4.49-4.95,8.36-8.96,11.1-8.69,5.95-27.39,16.49-63.36,28.32,0,0-8.9,3.75-10.88,10.14-.89,2.88,1.26,5.82,4.28,5.87l78.71,1.44s33.11,2.45,54.7-.91c3.9-.61,6.74-4.03,6.68-7.98l-.59-36.28c-.04-2.26,.29-4.5,.98-6.65l6.39-20s-29.44-21.54-56.01-13.95Z" fill="#f2b3c1"></path>
    <path d="M249.25,590.21c-13.89,0-25.51-.84-25.7-.86l-78.69-1.44c-1.61-.03-3.07-.79-4.01-2.1-.94-1.29-1.2-2.9-.73-4.42,2.02-6.54,10.79-10.3,11.16-10.46,36.76-12.09,55.42-22.9,63.27-28.27,3.91-2.67,6.95-6.44,8.78-10.88l12.03-29.13,.23-.07c26.5-7.57,56.14,13.81,56.44,14.02l.29,.21-6.5,20.35c-.67,2.1-.99,4.29-.96,6.49l.59,36.28c.07,4.2-2.98,7.84-7.1,8.48-8.76,1.36-19.48,1.77-29.11,1.77Zm-13.15-86.72l-11.85,28.68c-1.91,4.62-5.07,8.54-9.14,11.32-9.65,6.6-28.49,16.87-63.48,28.38-.05,.02-8.67,3.72-10.56,9.81-.38,1.22-.16,2.51,.59,3.54,.76,1.05,1.93,1.66,3.22,1.68l78.71,1.44c.36,.03,33.33,2.41,54.61-.9,3.63-.56,6.32-3.78,6.26-7.48l-.59-36.28c-.04-2.31,.3-4.61,1-6.81l6.28-19.66c-3.12-2.18-30.48-20.58-55.05-13.73Z" fill="#002346"></path>
  </g>
  <path d="M250.81,426.9s-.1,0-.15-.02c-.26-.08-.41-.36-.33-.63,10.4-33.75,20.47-97.2,20.57-97.84,.04-.27,.3-.46,.57-.42,.27,.04,.46,.3,.42,.57-.1,.64-10.18,64.16-20.61,97.98-.07,.21-.26,.35-.48,.35Z" fill="#002346"></path>
  <path d="M316.95,509.65s-.09,0-.13-.02c-.27-.07-.42-.35-.35-.61l39.47-143.47c.07-.27,.35-.42,.61-.35,.27,.07,.42,.35,.35,.61l-39.47,143.47c-.06,.22-.26,.37-.48,.37Z" fill="#002346"></path>
  <path d="M386.79,542.3c-.17,0-.33-.08-.43-.24-.38-.61-38.04-61.88-50.11-103.67-.08-.27,.08-.54,.34-.62,.26-.07,.54,.08,.62,.34,12.03,41.65,49.62,102.81,50,103.42,.15,.23,.07,.54-.16,.69-.08,.05-.17,.07-.26,.07Z" fill="#002346"></path>
  <g>
    <path d="M332.93,250.5l-18.8,3.92s-3.92-3.92-7.83-6.27l31.28-14.16s9.42,8.09,19.61,9.17l-24.26,7.35Z" fill="#F9FAFC"></path>
    <path d="M313.97,254.96l-.19-.19s-3.92-3.9-7.74-6.19l-.82-.49,32.44-14.69,.24,.21c.09,.08,9.42,8,19.34,9.05l2.46,.26-26.67,8.07-19.06,3.97Zm-6.61-6.74c3.19,2.07,6.16,4.89,6.94,5.65l18.51-3.86,22.13-6.7c-8.55-1.69-15.98-7.54-17.44-8.74l-30.14,13.65Z" fill="#002346"></path>
  </g>
  <g>
    <path d="M356.42,153.9s1.52,5.31-10.63,9.11c0,0-15.49,2.21-21.75,10.27-.08,.1,.03,.25,.15,.21l20.61-7.11c.59-.2,1.23,.12,1.41,.71,.79,2.57,1.3,9.31-12.57,14.14,0,0-8.71,3.07-14.76,8.38-1.86,1.63-3.32,3.65-4.45,5.84-2,3.9-7,12.4-15.03,17.82-1.48,1-2.79,2.24-3.79,3.72l-26.5,39.39s-10.71,20.09-16.34,31.68c-36.03-6.12-55.01,48.78-55.01,48.78l-.84,2.09h0s-26.48-18.79,6.16-65.09c0,0,28.8-40.58,60.87-74.33,5.33-5.61,10.31-11.55,14.9-17.79l19.88-27.06s2.9-3.57,7.13-7.32c5.01-4.45,11.11-7.5,17.64-9.05l23.06-5.46c.48-.11,.97,.14,1.16,.59,.86,2.08,1.85,7.98-11.03,12.89,0,0,33.4-2.28,19.74,7.59Z" fill="#f2b3c1"></path>
    <path d="M197,339.59l-.36-.24c-.28-.2-6.8-4.93-9.35-15.48-2.34-9.67-1.57-26.25,15.4-50.32,.29-.41,29.18-40.99,60.91-74.39,5.35-5.63,10.34-11.59,14.86-17.74l19.88-27.06c.04-.06,2.99-3.67,7.2-7.4,4.96-4.4,11.13-7.57,17.85-9.16l23.06-5.46c.72-.17,1.45,.2,1.74,.89,.39,.96,.9,2.91-.1,5.22-1.18,2.72-4.05,5.14-8.55,7.21,6.09-.24,19.18-.31,20.55,3.47,.51,1.42-.51,3.05-3.11,4.99,.14,1.33-.2,5.98-11.02,9.36-.22,.04-14.12,2.1-20.64,9.1l19.35-6.67c.42-.14,.86-.11,1.25,.08,.39,.2,.67,.53,.8,.95,.86,2.79,1.33,9.81-12.89,14.76-.08,.03-8.69,3.1-14.6,8.28-1.7,1.49-3.16,3.41-4.33,5.7-1.82,3.56-6.95,12.44-15.19,18.01-1.52,1.03-2.74,2.23-3.65,3.58l-26.5,39.39c-.08,.16-10.74,20.17-16.31,31.62l-.16,.34-.37-.06c-35.21-5.98-54.27,47.9-54.46,48.45l-.95,2.27-.3,.32Zm149.79-206.29s-.08,0-.12,.01l-23.06,5.46c-6.56,1.55-12.58,4.64-17.42,8.94-4.15,3.68-7.05,7.23-7.07,7.27l-19.87,27.04c-4.54,6.18-9.56,12.18-14.94,17.83-31.68,33.34-60.53,73.87-60.82,74.27-16.72,23.72-17.53,39.98-15.26,49.44,2.05,8.54,6.91,13.23,8.48,14.57l.6-1.48c.18-.53,19.4-54.83,55.19-49.15,5.61-11.52,16.08-31.17,16.19-31.37l26.53-39.43c.98-1.46,2.3-2.76,3.92-3.85,8.05-5.43,13.07-14.14,14.86-17.63,1.23-2.4,2.76-4.42,4.56-5.99,6.06-5.31,14.84-8.44,14.93-8.47,13.4-4.66,13.04-11,12.26-13.52-.05-.15-.15-.28-.3-.35-.15-.07-.31-.09-.47-.03l-20.61,7.11c-.27,.09-.56,0-.72-.23-.16-.23-.16-.53,.01-.76,6.31-8.13,21.43-10.37,22.07-10.46,11.37-3.56,10.23-8.43,10.22-8.48l-.09-.33,.28-.21c2.32-1.67,3.36-3.06,3.01-4.02-1.08-2.98-14.32-3.22-22.42-2.66l-3.35,.23,3.13-1.19c5.79-2.2,9.37-4.83,10.65-7.79,.81-1.88,.5-3.45,.09-4.44-.08-.19-.26-.31-.46-.31Z" fill="#002346"></path>
  </g>
  <path d="M312.39,156.68c-.14,0-.28-.06-.38-.18-.18-.21-.15-.53,.06-.7,10.31-8.78,24.43-9.98,24.58-9.99,.27-.02,.52,.18,.54,.46s-.18,.52-.46,.54c-.14,.01-13.95,1.18-24.01,9.75-.09,.08-.21,.12-.32,.12Z" fill="#002346"></path>
  <path d="M312.39,163.51c-.17,0-.34-.09-.44-.25-.14-.24-.05-.55,.19-.68,.12-.07,12.4-6.9,26.03-7.65l18.2-1.52c.28-.03,.52,.18,.54,.46,.02,.28-.18,.52-.46,.54l-18.22,1.52c-13.4,.75-25.48,7.46-25.61,7.53-.08,.04-.16,.06-.24,.06Z" fill="#002346"></path>
  <path d="M315.43,177.17c-.2,0-.39-.12-.46-.31-.1-.26,.02-.55,.28-.65,1.8-.72,7.74-3.07,8.54-3.07,.28,0,.5,.22,.5,.5s-.22,.5-.49,.5c-.58,.05-5.12,1.78-8.17,3-.06,.02-.12,.04-.19,.04Z" fill="#002346"></path>
  <g>
    <ellipse cx="402.35" cy="167.19" rx="13.28" ry="18.6" fill="#f2b3c1"></ellipse>
    <path d="M402.35,186.28c-7.6,0-13.78-8.57-13.78-19.1s6.18-19.1,13.78-19.1,13.78,8.57,13.78,19.1-6.18,19.1-13.78,19.1Zm0-37.2c-7.05,0-12.78,8.12-12.78,18.1s5.73,18.1,12.78,18.1,12.78-8.12,12.78-18.1-5.73-18.1-12.78-18.1Z" fill="#002346"></path>
  </g>
  <g>
    <path d="M332.89,250.31l60.81-18.18,40.9-12.94s35.66-16.3,52.37,12.72c0,0,12.15,18.4,12.91,53.32l-2.28,60.73s0,31.52,4.69,56.19c1.27,6.67,3.24,13.19,5.72,19.51,9.03,22.97,43.12,117.1,8.56,149,0,0-3.8-43.27-29.6-78.19l-48.58-75.91-63.76-99.44-22.67,1.51s-.05-.03-.02-.05c1.06-.82,12.07-10.16,4.47-40.17,0,0-3.04-20.5-23.53-28.09Z" fill="#F9FAFC"></path>
    <path d="M516.18,571.7l-.09-1.01c-.04-.43-4.08-43.53-29.51-77.93l-48.6-75.94-63.6-99.19-22.75,1.52-.29-.71,.3-.26c1.23-.95,11.77-10.1,4.3-39.65-.04-.25-3.25-20.34-23.22-27.74l-1.4-.52,62.25-18.61,40.9-12.94c.3-.14,36.21-16.13,52.95,12.95,.11,.16,12.22,18.89,12.98,53.55l-2.28,60.76c0,.3,.05,31.73,4.68,56.07,1.2,6.32,3.12,12.86,5.7,19.42,4.43,11.26,15.3,40.73,20.65,71.25,6.71,38.28,2.6,64.62-12.22,78.3l-.75,.69Zm-141.28-255.11l.16,.25,63.76,99.44,48.58,75.91c23.4,31.65,28.79,70.64,29.57,77.4,13.96-13.63,17.72-39.42,11.18-76.7-5.34-30.42-16.18-59.83-20.6-71.05-2.6-6.62-4.54-13.21-5.75-19.6-4.64-24.43-4.7-55.96-4.7-56.28l2.28-60.75c-.75-34.32-12.71-52.84-12.83-53.02-16.3-28.32-51.39-12.71-51.74-12.55l-40.96,12.97-59.43,17.77c19.32,7.99,22.46,27.75,22.49,27.95,6.57,25.96-.7,36.63-3.65,39.71l21.64-1.44Z" fill="#002346"></path>
  </g>
  <g>
    <path d="M307.08,248.03s0-6.07-19.74,0c0,0-45.55,14.42-38.71,44.03,0,0,5.31,34.16,60.73,22.01l49.51-10.15s4.39-42.98-25.98-53.61l-18.22,3.8s-3.04-3.04-7.59-6.07Z" fill="#f2b3c1"></path>
    <path d="M287.45,317.2c-10.93,0-19.92-2.38-26.87-7.15-10.69-7.32-12.38-17.49-12.44-17.92-6.85-29.67,38.6-44.43,39.06-44.58,12.38-3.81,17.26-2.92,19.18-1.5,.84,.62,1.09,1.3,1.17,1.69,3.8,2.56,6.55,5.11,7.28,5.82l18.09-3.77,.13,.05c30.38,10.63,26.35,53.7,26.31,54.13l-.04,.37-49.87,10.23c-8.03,1.76-15.37,2.64-22,2.64Zm13.78-71.37c-2.81,0-7.13,.64-13.74,2.67-.45,.14-45.02,14.62-38.37,43.44,.02,.14,1.72,10.24,12.05,17.3,10.94,7.47,27.11,8.93,48.08,4.34l49.15-10.08c.32-4.17,2.48-42.75-25.55-52.68l-18.35,3.82-.19-.19s-3.06-3.04-7.51-6.01l-.22-.15v-.26c0-.05-.05-.65-.85-1.22-.68-.48-1.99-.99-4.5-.99Z" fill="#002346"></path>
  </g>
  <path d="M280.96,270.51c-.15,0-.29-.06-.39-.18-.17-.21-.14-.53,.07-.7,.15-.12,15.4-12.5,34.7-16.54,.27-.06,.54,.12,.59,.39s-.12,.54-.39,.59c-19.06,3.99-34.12,16.21-34.27,16.33-.09,.08-.21,.11-.32,.11Z" fill="#002346"></path>
  <path d="M262.29,308.5c-.1,0-.19-.03-.28-.08-.09-.06-9.42-6.44-3.96-16.59,.13-.24,.43-.33,.68-.2,.24,.13,.33,.43,.2,.68-5.03,9.34,3.28,15.05,3.63,15.29,.23,.15,.29,.46,.14,.69-.1,.14-.25,.22-.42,.22Z" fill="#002346"></path>
  <path d="M369.33,317.61s-.09,0-.14-.02c-.27-.08-.42-.35-.34-.62,13.41-46.18-16.68-71.35-16.98-71.6-.21-.17-.25-.49-.07-.7,.17-.21,.49-.25,.7-.07,.31,.25,30.91,25.82,17.31,72.66-.06,.22-.26,.36-.48,.36Z" fill="#002346"></path>
  <path d="M378.42,317.72c-2.43,0-3.77-.12-3.83-.12-.27-.03-.48-.27-.45-.54,.03-.27,.28-.47,.54-.45,.24,.02,24.56,2.09,57.45-12.11,.13-.09,19.33-11.4,36.82-4.56,.26,.1,.38,.39,.28,.65-.1,.26-.39,.38-.65,.28-17.03-6.67-35.81,4.4-36,4.52-25.56,11.04-46.01,12.33-54.16,12.33Z" fill="#002346"></path>
  <path d="M463.45,317.61c-.17,0-.34-.09-.43-.25-.09-.15-8.77-14.56-21.82-15.49-.28-.02-.48-.26-.46-.53,.02-.28,.26-.48,.53-.46,13.57,.97,22.52,15.83,22.6,15.98,.14,.24,.06,.54-.18,.69-.08,.05-.17,.07-.25,.07Z" fill="#002346"></path>
  <path d="M491.54,492.2s-.05,0-.08,0c-.27-.04-.46-.3-.42-.57,5.23-32.88-13.44-78.97-13.63-79.44-13.55-36.14-10.69-75.74-10.66-76.14,.02-.28,.27-.49,.54-.46,.28,.02,.48,.26,.46,.54-.03,.39-2.87,39.79,10.6,75.69,.18,.45,18.96,46.8,13.69,79.96-.04,.25-.25,.42-.49,.42Z" fill="#002346"></path>
  <g>
    <path d="M358.87,303.92l-9.29,1.9s-1.89,7.12,2.29,12.81c0,0,4.51-2.46,7-14.71Z" fill="#F9FAFC"></path>
    <path d="M351.72,319.27l-.26-.35c-4.27-5.82-2.45-12.93-2.37-13.23l.08-.3,10.33-2.11-.15,.74c-2.5,12.33-7.06,14.94-7.25,15.05l-.38,.21Zm-1.73-13.03c-.28,1.34-1.18,6.98,1.99,11.68,1.06-.87,4.23-4.14,6.24-13.36l-8.23,1.68Z" fill="#002346"></path>
  </g>
</svg>
