<?xml version="1.0" encoding="UTF-8"?>
<svg xmlns="http://www.w3.org/2000/svg" id="a" width="865.76" height="682.89" viewBox="0 0 865.76 682.89">
  <g>
    <path d="M281.62,149.67s-24.87,27.33-29.2,23c0,0-4.52,1.32-6.21-2.82,0,0-1.84,.75-3.63,.84-2.41,.12-3.49-3.01-1.59-4.49l24.82-19.26,9.36-6.47h9l-2.55,9.19Z" fill="#f39c12" stroke="#002346" stroke-miterlimit="10"></path>
    <path d="M352.23,130.97s-7.89,22.3-31.37,29.59c-3.94,1.2-8.08,1.58-12.17,1.1-8.9-1-25-4.8-32-19.11l18.08-28.43,57.46,16.85Z" fill="#fff" stroke="#002346" stroke-miterlimit="10"></path>
    <path d="M349.15,61.32s-8.45-15.78-36.53-8c0,0-23.75,7.56-26.81,31.85-.65,2.99-2.03,5.77-4,8.1,0,0-15.08,23.96-9.81,39.02l34.91-11.71,42.24-59.26Z" fill="#e6e7e8" stroke="#002346" stroke-miterlimit="10"></path>
    <path d="M353,67.77s-2-8.8-12.42-10.85c0,0-15.72-5.5-25.31,6.92,0,0-7.38,7.39-8.64,29.55,0,0-1.73,17.77-5.35,23.74,0,0,3.21,16.8,23.17,18.43,3.41,.28,6.85-.18,10.07-1.33,3-1.07,7.59-2.15,10.63-.29,0,0,4.25,2,7.08-3,0,0,5-10.38-1.26-31,0,0-3.62-10.85,.16-20.28l1.87-11.89Z" fill="#f39c12" stroke="#002346" stroke-miterlimit="10"></path>
    <path d="M364.77,73.06c.46-.3,.59-.92,.29-1.38-.09-.14-.21-.25-.35-.33-3.21-1.86-11.26-6.1-14.37-3.74,0,0-7.23,5.66-.94,12,0,0,1.56,2,8.12-1.54l.1-.06,7.15-4.95Z" fill="#002346" stroke="#002346" stroke-miterlimit="10"></path>
    <circle cx="329.37" cy="68.36" r="8.22" fill="#fff" stroke="#002346" stroke-miterlimit="10"></circle>
    <circle cx="329.87" cy="68.36" r="5.77" fill="#002346" stroke="#002346" stroke-miterlimit="10"></circle>
    <circle cx="327.71" cy="64.4" r="3.08" fill="#fff"></circle>
    <path d="M278.32,111.77c-15,25.69-13.87,33.11-12.48,35.18,.36,.52,.98,.78,1.6,.67,18.13-3,32.94-25.42,32.94-25.42l-22.06-10.43Z" fill="#e6e7e8" stroke="#002346" stroke-miterlimit="10"></path>
    <path d="M296.17,125.78c1.61-.32,3-1.34,3.77-2.79,2.94-5.24,10.74-20.39,4.43-24,0,0-11-7.68-26.05,12.73-.35,.46-.48,1.05-.36,1.62,.32,2.1,2.29,3.54,4.39,3.22,.05,0,.11-.02,.16-.03,0,0-1.67,6.25,4.85,4.58,0,0,1.32,4.85,6.25,3.17,0,.05,.11,1.95,2.56,1.5Z" fill="#e6e7e8" stroke="#002346" stroke-miterlimit="10"></path>
    <line x1="246.21" y1="169.85" x2="265.73" y2="154.23" fill="none" stroke="#002346" stroke-linecap="round" stroke-linejoin="round"></line>
    <line x1="252.42" y1="172.67" x2="269.73" y2="157.23" fill="none" stroke="#002346" stroke-linecap="round" stroke-linejoin="round"></line>
    <path d="M288.73,127.23s-8,9-19,16" fill="none" stroke="#002346" stroke-linecap="round" stroke-linejoin="round"></path>
    <path d="M283.23,123.73s-7,8-13,12" fill="none" stroke="#002346" stroke-linecap="round" stroke-linejoin="round"></path>
    <path d="M279.23,119.73s-3,4-6,7" fill="none" stroke="#002346" stroke-linecap="round" stroke-linejoin="round"></path>
    <path d="M297.38,159.24s.48,6.48,3.16,13.98" fill="none" stroke="#002346" stroke-linecap="round" stroke-linejoin="round"></path>
    <path d="M296.79,175.01s4.63-5.51,10.78,2.85" fill="none" stroke="#002346" stroke-linecap="round" stroke-linejoin="round"></path>
    <path d="M303.79,177.87s-.44-2.65-3.25-4.64" fill="none" stroke="#002346" stroke-linecap="round" stroke-linejoin="round"></path>
    <path d="M316.69,161.63c-.06,1.4,.56,3.36,1.28,4.42l7.06,10.36" fill="none" stroke="#002346" stroke-linecap="round" stroke-linejoin="round"></path>
    <path d="M320.73,180.23s3.31-7.86,12.16-1.43" fill="none" stroke="#002346" stroke-linecap="round" stroke-linejoin="round"></path>
    <line x1="329.49" y1="180.71" x2="326.05" y2="176.48" fill="none" stroke="#002346" stroke-linecap="round" stroke-linejoin="round"></line>
  </g>
  <g>
    <path d="M747.46,96.93c-12,58.29-74.7,57.11-74.7,57.11-50.57-1.1-62.72-56.31-63.12-58.31,.71,1.08,1.56,2.05,2.53,2.9,1.91,1.69,3.68,3.53,5.29,5.51,.8,.99,1.8,1.79,2.94,2.36,4.8,2.27,18.57,6.6,39.37-4.49,2.25,4.46,6.22,7.8,11,9.25,13.11,3.9,14.41-3.22,14.41-3.22,12.47,.42,10.53-3.66,10.53-3.66,11.62-3.43,10.74-6.65,10.74-6.65,4.9-1,7-2.66,7.84-4.29l33.17,3.49Z" fill="#00a9ff" stroke="#002346" stroke-miterlimit="10"></path>
    <path d="M740.97,80.08s14.11-15.15,24.41-29.36c2.12-2.92,3.94-6.03,5.71-9.17,1.62-2.89,5.07-6.84,10.7-3.11,1.09,.73,2.07,1.63,2.88,2.66,1.58,1.99,4.09,3.05,6.66,2.78,0,0,14.39-3,16.56,1.79v3.18l-5.15,7-23.7,16.68-22.09,13-15.98-5.45Z" fill="#00a9ff" stroke="#002346" stroke-miterlimit="10"></path>
    <path d="M708.76,102.07s11.43,2.1,28,0" fill="none" stroke="#000" stroke-miterlimit="10"></path>
    <path d="M697.91,107.97s15.61,1.53,26.85,.76" fill="none" stroke="#000" stroke-miterlimit="10"></path>
    <path d="M686.3,113.68s10.16,1.06,24.22,1.1" fill="none" stroke="#000" stroke-miterlimit="10"></path>
    <path d="M669.69,110.91s19.41,15.9,59.59-3c0,0,19.45-10.32,28.99-19.19,4.47-4.16,9.32-7.87,14.59-10.95,15.48-9.05,42.36-26.16,35.04-32.08,0,0-1.56,7-12.49,14.82,0,0-15.13,10.09-28.69,18.24-1.79,1.08-3.74,1.86-5.79,2.26-.03,0-.06,.01-.09,.02-1.68,.33-3.38-.01-4.94-.72-1.01-.46-3.06-.42-7.18,1.1,0,0-2-2.53-9.29-1.07l-8.09,1.26-28.25,1.51-33.4,27.81Z" fill="#e6e7e8" stroke="#002346" stroke-miterlimit="10"></path>
    <path d="M722.73,84.42s2.36,3.88-9.27,4.06c0,0,2,2.45,.74,5-.8,1.64-3,3.27-7.84,4.29,0,0,.88,3.23-10.74,6.65,0,0,2,4.09-10.53,3.66,0,0-1.31,7.12-14.4,3.22-4.78-1.45-8.75-4.79-11-9.25-20.79,11.09-34.58,6.76-39.37,4.5-1.11-.6-2.08-1.42-2.86-2.41-1.59-1.98-3.34-3.83-5.23-5.52-.97-.85-1.82-1.82-2.52-2.9h0c-.45-.66-.82-1.38-1.11-2.13-2.49-6.34-5.09-9-5.25-9.15h0l2.2-16.26c.12-4.34,1.58-8.53,4.18-12,2.66-3.7,7-7.48,14.17-10.08,0,0,20.84-7.93,37.39,14.84,0,0,.77,1.52,2,3.52l.34,.57c1.92,3.11,4.75,7,7.37,8.16,0,0,27.71-3.44,60.39,8.38-2.67,1.52-5.61,2.48-8.66,2.85Z" fill="#00a9ff" stroke="#002346" stroke-miterlimit="10"></path>
    <path d="M663.56,75.68c-4,2.33-6,6.55-7,10.2-1.89,6.88-6.5,12.79-13.03,15.65-12.41,5.44-22.87-1.08-28.05-5.51-1.73-1.48-3.24-3.18-4.61-4.99-4.03-5.31-7.31-6.53-7.53-6.6h0l2.2-16.26c.12-4.34,1.58-8.53,4.18-12,11.18-6.81,20.75-6.97,27.52-5.44,4.82,1.09,9.17,3.6,12.93,6.81s8.25,5.6,13.08,6.91l.34,.57c-8.67,7.54-26.71-.75-26.71-.75-9.37-2.46-16.06,.71-16.06,.71-6.74,1.68-9.76,8.94-10.53,11.14-.07,.2,.04,.41,.24,.48,.07,.02,.14,.03,.21,0,5.66-1.14,11.45-1.48,17.21-1,2.44,.23,4.84,.8,7.13,1.69,7.69,2.89,13,.29,13,.29,12.13-5.29,15.48-1.91,15.48-1.91Z" fill="#e6e7e8" stroke="#002346" stroke-miterlimit="10"></path>
    <circle cx="626.47" cy="69.79" r="8.81" fill="#fff" stroke="#002346" stroke-miterlimit="10"></circle>
    <circle cx="626.3" cy="69.81" r="5.78" fill="#002346" stroke="#002346" stroke-miterlimit="10"></circle>
    <circle cx="627.69" cy="66.14" r="2.96" fill="#fff"></circle>
    <path d="M605.51,68.15s-24.82,2.76-22.34,5.51l20.13,10.76c1.19-2.12,3.14-3.71,5.45-4.45,0,0,2.29-1.74-.44-4.48,0,0,1.51-4.74-2.8-7.34Z" fill="#002346" stroke="#002346" stroke-miterlimit="10"></path>
    <path d="M685.09,108.08s9.1,6.22,31.1-.78" fill="none" stroke="#002346" stroke-linecap="round" stroke-linejoin="round"></path>
    <path d="M695.62,104.42s7.57,2.88,24.57-3.12" fill="none" stroke="#002346" stroke-linecap="round" stroke-linejoin="round"></path>
    <path d="M706.36,97.77s11.83,2.53,34.83-6.47" fill="none" stroke="#002346" stroke-linecap="round" stroke-linejoin="round"></path>
    <path d="M713.46,88.48s14.73,5.82,32.73-3.18" fill="none" stroke="#002346" stroke-linecap="round" stroke-linejoin="round"></path>
    <path d="M722.73,84.42s4.46,2.88,17.46-1.12" fill="none" stroke="#002346" stroke-linecap="round" stroke-linejoin="round"></path>
    <path d="M776.19,42.3s-15.76,26.25-32.88,37.62" fill="none" stroke="#002346" stroke-linecap="round" stroke-linejoin="round"></path>
    <path d="M748.72,81.4s22.97-17.6,34.97-34.6" fill="none" stroke="#002346" stroke-linecap="round" stroke-linejoin="round"></path>
    <path d="M794.69,51.8s-20.39,17.63-38.2,28.82" fill="none" stroke="#002346" stroke-linecap="round" stroke-linejoin="round"></path>
    <path d="M661.09,152.74l-.71,2.55c-.28,1-.83,1.9-1.59,2.59l-15.62,14.29" fill="none" stroke="#002346" stroke-linecap="round" stroke-linejoin="round"></path>
    <path d="M626.51,177.37s17.68-12.08,22.68-1.08" fill="none" stroke="#002346" stroke-linecap="round" stroke-linejoin="round"></path>
    <path d="M636.4,179.5s3.41-7.34,7.85-7.52" fill="none" stroke="#002346" stroke-linecap="round" stroke-linejoin="round"></path>
    <path d="M696.32,150.5l-1.08,5.72c-.23,1.2-.79,2.3-1.61,3.2l-14.04,15.17" fill="none" stroke="#002346" stroke-linecap="round" stroke-linejoin="round"></path>
    <path d="M665.6,182.66s11.28-14.44,21.43-4.9" fill="none" stroke="#002346" stroke-linecap="round" stroke-linejoin="round"></path>
    <path d="M681.22,174.59s-4.7,1.33-5.61,8.27" fill="none" stroke="#002346" stroke-linecap="round" stroke-linejoin="round"></path>
  </g>
  <g>
    <path d="M176.51,527.69s-29.53,.95-42.83-1.22c0,0-23.34-4.62-26.46,0,0,0-2.72,3,3.26,5.3,0,0-6,2.2,.54,6.19,0,0-3.74,2.95,.41,4.23,1.21,.35,2.48,.44,3.73,.29,4.72-.49,20.25-2.18,32.64-4.52,0,0,19-2.79,24.38-2.59,1.75-2.38,3.2-4.96,4.33-7.68Z" fill="#f39c12" stroke="#002346" stroke-miterlimit="10"></path>
    <path d="M176.51,527.69s13.48,36.48,51.37,33.33c0,0,51.82-2.91,43.15-52.64l-.13-.9-2.63-17.44,.05-21.46c.08-1.58-.05-3.16-.37-4.71-.94-5.05-4.12-13-14.58-17.88,0,0-3.52-2.79-18.48-4.7,0,0-17.6-2.93-24-15-.39,2.72-.1,5.5,.87,8.07l-2.93-.44s2.35,5.14,3.81,7.48c0,0-2.74-.72-3.79-1.86,.6,.94,12.87,20.15,6,35.16,0,0-4.55,9.68-16.13,22.72-.05,.04-17.07,18.81-22.21,30.27Z" fill="#f39c12" stroke="#002346" stroke-miterlimit="10"></path>
    <path d="M238.21,472.65c.51,4.11,3.11,10.48,13.39,15.22,0,0,2.23,1.27,4.7,5.2,1.13,1.85,2.43,3.6,3.88,5.22,2.68,2.92,6.95,7.19,10.72,9.19l-2.63-17.44,.05-21.46c.08-1.58-.05-3.16-.37-4.71,0,0-3,4.05-11.95,2.72-1.16-.18-2.3-.52-3.37-1-2.58-1.22-5.45-1.72-8.29-1.45-4.01,.71-6.72,4.48-6.13,8.51Z" fill="#fff" stroke="#002346" stroke-miterlimit="10"></path>
    <path d="M268.27,468.81l15.23,9.27c.19,.13,.24,.38,.11,.57-.03,.04-.07,.08-.11,.11l-15.14,10.27c-.69,.47-1.59,.44-2.25-.07-3.05-2.54-5.11-6.09-5.79-10,0,0-.53-6,6-10.18,.6-.37,1.36-.35,1.95,.03Z" fill="#002346" stroke="#002346" stroke-miterlimit="10"></path>
    <circle cx="247.36" cy="472.89" r="8.07" fill="#fff"></circle>
    <circle cx="247.36" cy="472.89" r="5.21" fill="#002346" stroke="#002346" stroke-miterlimit="10"></circle>
    <circle cx="244.66" cy="470.32" r="2.76" fill="#fff"></circle>
    <path d="M179.73,527.72c1.6,.87,3.55,.72,5-.38,0,0-1.18,5.45,7.5,2.67,0,0-1.05,4.69,8.56,2.59,0,0-2.69,5,8.94,1.57,.25,.76,.98,1.25,1.78,1.2l3.56-.43c1.36-.18,2.66-.7,3.77-1.51,.06-.04,.11-.08,.15-.13,.2-.16,.35-.31,.5-.42s.38-.37,.38-.37c5.34-5.63,18.45-21.44,9.61-32.46-1.21-1.45-2.79-2.54-4.57-3.18-5.74-2.16-16.08-3.64-33.47,11.66,0,0-8.42,7.57-11.18,13.91-.88,1.97-1.16,3.79-.53,5.28Z" fill="#f39c12" stroke="#002346" stroke-miterlimit="10"></path>
    <path d="M162.25,561.88c-.24,1.46,.88,2.8,2.36,2.79,18.6-.21,48.35-25.98,54.22-31.24-1.11,.81-2.41,1.33-3.77,1.51l-3.56,.43c-.8,.05-1.53-.44-1.78-1.2-11.63,3.41-8.94-1.57-8.94-1.57-9.61,2.1-8.56-2.59-8.56-2.59-8.68,2.78-7.5-2.67-7.5-2.67-.46,.35-.97,.6-1.51,.76-2.13,.62-4.15-1.35-3.69-3.52,.15-.69,.39-1.4,.72-2.14-3.09,4.05-5.79,8.38-8.07,12.93-6,10.86-3.66,11.43-3.66,11.43-2.36,2.6-3.71,5.96-3.78,9.47-1.52,1.59-2.19,3.86-2.48,5.61Z" fill="#f39c12" stroke="#002346" stroke-miterlimit="10"></path>
    <path d="M201.66,509.97s.71,3.86,8.94,1.56c0,0,.23,3.7,11.23-.3" fill="none" stroke="#002346" stroke-linecap="round" stroke-linejoin="round"></path>
    <path d="M193.41,515.22s-.22,3.59,8.35,2.05c0,0,2.07,2.82,10.32,1.14,0,0,3.11,3.12,12.18-.28" fill="none" stroke="#002346" stroke-linecap="round" stroke-linejoin="round"></path>
    <path d="M188.33,522.73s3.13,5.09,10.57,2.55c.43,.45,3.13,3.55,11.28,2.5,0,0,1.81,3.13,7.98,1.04" fill="none" stroke="#002346" stroke-linecap="round" stroke-linejoin="round"></path>
    <path d="M208.33,537.73s-20,18-40,24" fill="none" stroke="#002346" stroke-linecap="round" stroke-linejoin="round"></path>
    <path d="M199.33,536.73s-14,12-31,20" fill="none" stroke="#002346" stroke-linecap="round" stroke-linejoin="round"></path>
    <path d="M190.33,533.73s-6,7-19,13" fill="none" stroke="#002346" stroke-linecap="round" stroke-linejoin="round"></path>
    <path d="M183.83,531.23s-4,5-11,9" fill="none" stroke="#002346" stroke-linecap="round" stroke-linejoin="round"></path>
    <line x1="175.18" y1="529.58" x2="120.33" y2="530.73" fill="none" stroke="#002346" stroke-linecap="round" stroke-linejoin="round"></line>
    <line x1="174.45" y1="532.5" x2="122.83" y2="537.23" fill="none" stroke="#002346" stroke-linecap="round" stroke-linejoin="round"></line>
    <path d="M209.15,559.12l.12,2.34c.04,.83,.31,1.63,.78,2.31l11.03,16.13,2.75,4.32" fill="none" stroke="#002346" stroke-linecap="round" stroke-linejoin="round"></path>
    <path d="M214.2,581.73s5.63-4.5,14.63,1.5" fill="none" stroke="#002346" stroke-linecap="round" stroke-linejoin="round"></path>
    <path d="M239.35,558.9l-.03,.6c-.05,1.29,.43,2.54,1.33,3.47l12.63,12.88,5.55,5.38" fill="none" stroke="#002346" stroke-linecap="round" stroke-linejoin="round"></path>
    <path d="M246.61,580.33s6.72-7.6,16.72-2.6" fill="none" stroke="#002346" stroke-linecap="round" stroke-linejoin="round"></path>
  </g>
  <line x1=".19" y1="177.3" x2="866.19" y2="177.3" fill="none" stroke="#002346" stroke-linecap="round" stroke-linejoin="round"></line>
  <line x1="-.31" y1="390.3" x2="865.69" y2="390.3" fill="none" stroke="#002346" stroke-linecap="round" stroke-linejoin="round"></line>
  <line x1="-.43" y1="582.3" x2="865.57" y2="582.3" fill="none" stroke="#002346" stroke-linecap="round" stroke-linejoin="round"></line>
  <g>
    <path d="M385.99,385.86l-21.29,38.44s-7.72,12.16-3.14,14.73c0,0,3,2,7.72-2.72,0,0,1.14,9.87,10.44,3.86,0,0,.05,1.04,.42,2.3,1.14,3.87,6.28,4.62,8.6,1.32,1.2-1.71,2.51-4.37,3.7-8.48l13.67-51-20.12,1.55Z" fill="#f39c12" stroke="#002346" stroke-miterlimit="10"></path>
    <path d="M464.34,283.2c-.34,.87-.49,1.8-.46,2.74l.95,29s1,32.5-29.7,52.63c-5.52,3.24-11.39,5.85-17.49,7.8l-17.91-85.21s4.16-12.91,9.22-21.45l-4.61-1.85,6.92-2.76c-2.87-1.25-5.53-2.94-7.89-5,2.66,0,5.31-.33,7.89-1,0,0-5.66-4.72-6.69-8,4.27,.07,8.54-.12,12.78-.57l16.18-2.51s24.55-7.5,33.07,16.61l-1,11.91s.67,2.84-1.26,7.66Z" fill="#f39c12" stroke="#002346" stroke-miterlimit="10"></path>
    <path d="M464.34,283.2c-.34,.87-.49,1.8-.46,2.74l.95,29s1,32.5-29.7,52.63c-5.52,3.24-11.39,5.85-17.49,7.8,38.4-25.07,42.62-49.17,42.62-49.17,5.72-21.66-11.87-30.07-12.61-30.4h0v-.15c-.03-1.86-.74-3.64-2-5l-.06-.06c-.19-.28-.41-.53-.66-.76-.2-.23-.42-.44-.66-.62-.37-.33-.62-.51-.62-.51-.27-.23-.51-.46-.76-.68l-.25-.23c-5.86-5.5-6.6-11.18-6-15.25,0-.25,.08-.52,.13-.78-.01-.08-.01-.15,0-.23,.08-.47,.2-.91,.31-1.32,.24-.86,.56-1.7,.94-2.51,.1-.23,.21-.45,.33-.66,.05-.12,.12-.24,.19-.35h0c1.47-2.76,3.65-5.08,6.32-6.71,.22-.12,.43-.25,.66-.35,.08-.05,.17-.1,.26-.14,.43-.22,.88-.41,1.34-.56,.23-.06,.47-.14,.72-.22l.74-.19c1.33-.32,2.7-.44,4.06-.35h.76c.27,.01,.54,.05,.8,.1l.8,.13c.29,.02,.57,.08,.85,.16,3.85,.94,7.48,2.64,10.66,5,.03,.02,.06,.04,.08,.07l-1,11.91s.68,2.84-1.25,7.66Z" fill="#e6e7e8" stroke="#002346" stroke-miterlimit="10"></path>
    <path d="M467.52,263.93c-.72-.28-1.54-.23-2.22,.14-1.29,.71-3,2.42-2.48,6.41,0,0,.31,5.89,6.36,4l10.42-5.67c.11-.06,.15-.19,.09-.3-.02-.04-.05-.07-.09-.09l-12.08-4.49Z" fill="#002346" stroke="#002346" stroke-miterlimit="10"></path>
    <circle cx="451.55" cy="267.85" r="5.99" fill="#fff" stroke="#002346" stroke-miterlimit="10"></circle>
    <circle cx="452.3" cy="267.85" r="3.92" fill="#002346" stroke="#002346" stroke-miterlimit="10"></circle>
    <circle cx="450.42" cy="265.8" r="2.05" fill="#fff"></circle>
    <path d="M383.51,327.69s.27,30.54,2.43,39.15c.3,1.18,.36,2.42,.15,3.62-.86,5.08-2.44,17.95,3.32,19.13,0,0,10.58,2.21,28.23-14.26,0,0,23.89-14.09,37-36.08l-14.37-5.24-56.76-6.32Z" fill="#f39c12" stroke="#002346" stroke-miterlimit="10"></path>
    <path d="M385.86,332.16s-2.93,1.89-2.24-5.35c0,0,2.22-39.59,16.11-36.69,0,0,4.41,2.38,6.65,24.8l.69,5.34s17.83-36.15,40.55-24.63c0,0,13.08,5.83,13.76,21.08,0,0,1.65,8.76-6.73,22.54,0,0-3.82,4.32-5,.69,0,0-10,11-9.63,1.45,0,0-12.8,13.63-13.9,3.88,0,0-12.76,9.76-14.91-.46,0,0-12.4,8.46-14.16,1,0,0-5.88,3.68-6.62-5.29,0,0-3.82,2.06-3.67-4.7,.01-.04-1.95,.22-.9-3.66Z" fill="#f39c12" stroke="#002346" stroke-miterlimit="10"></path>
    <line x1="369.28" y1="436.31" x2="386.69" y2="396.8" fill="none" stroke="#002346" stroke-linecap="round" stroke-linejoin="round"></line>
    <line x1="379.72" y1="440.17" x2="395.19" y2="399.3" fill="none" stroke="#002346" stroke-linecap="round" stroke-linejoin="round"></line>
    <path d="M437.47,349.22s-13.28,22.08-33.28,32.08" fill="none" stroke="#002346" stroke-linecap="round" stroke-linejoin="round"></path>
    <path d="M422.69,351.8s-9.97,16.81-32.98,31.91" fill="none" stroke="#002346" stroke-linecap="round" stroke-linejoin="round"></path>
    <path d="M408.69,351.8s-6,13-21,24" fill="none" stroke="#002346" stroke-linecap="round" stroke-linejoin="round"></path>
    <line x1="415.19" y1="378.3" x2="423.17" y2="389.36" fill="none" stroke="#002346" stroke-linecap="round" stroke-linejoin="round"></line>
    <path d="M419.08,393.54s2.03-6.86,11.57-3.05" fill="none" stroke="#002346" stroke-linecap="round" stroke-linejoin="round"></path>
    <line x1="422.69" y1="389.79" x2="423.69" y2="391.8" fill="none" stroke="#002346" stroke-linecap="round" stroke-linejoin="round"></line>
    <path d="M432.58,369.31v3.68c0,.75,.27,1.48,.76,2.05l13.85,13.26" fill="none" stroke="#002346" stroke-linecap="round" stroke-linejoin="round"></path>
    <path d="M442.12,393.44s3.61-8.57,13.84-3.85" fill="none" stroke="#002346" stroke-linecap="round" stroke-linejoin="round"></path>
    <line x1="446.43" y1="388.91" x2="449.69" y2="391.8" fill="none" stroke="#002346" stroke-linecap="round" stroke-linejoin="round"></line>
  </g>
  <g>
    <line x1="697.02" y1="575.67" x2="688.88" y2="581.44" fill="none" stroke="#002346" stroke-linecap="round" stroke-linejoin="round"></line>
    <path d="M727.1,576.71s8.88,9.15,5.47,51.47c-.26,3.27-.59,6.54-1.05,9.79-.41,2.89-.77,8.6,2.77,7.95,0,0,3.17,0,6.05-6.53,.12-.27,.52-.24,.6,.04,.44,1.6,1.66,4.79,4.54,6.07,1.13,.5,2.48,.28,3.37-.57,1.04-1,2.26-2.95,2.77-6.71,.05-.34,.51-.39,.62-.07,.67,2.01,2.12,5.42,4.64,7.01,1.85,1.17,4.25,.2,4.82-1.91,.8-3.01,1.16-9.26-.89-22.27-.53-3.39-1.32-6.73-2.37-10-3.26-10.13-11.38-34.45-16.87-43.3l-14.47,9.03Z" fill="#e6e7e8" stroke="#002346" stroke-miterlimit="10"></path>
    <path d="M734.24,510.62s16.76,25.33,25.23,56.74c.46,1.63,.52,3.34,.2,5-.46,2.21-1.71,3.84-5-1.82,0,0-2.08,8.06-5.76-2.54,0,0-4.33,1.22-6.89-7.11l-11.31-18.39,3.53-31.88Z" fill="#fff" stroke="#002346" stroke-miterlimit="10"></path>
    <path d="M652.46,499.3s-7.69,54.68,31.29,72.54c0,0,21.67,13.85,57.29,1,0,0,3.46-26.42-1.87-44.71l-26.44-21.83-32.47-19.34-18,.49-9.8,11.85Z" fill="#00a9ff" stroke="#002346" stroke-miterlimit="10"></path>
    <path d="M651.46,465.56s2.02-8.46,11.19-13.53c11.54-6.38,26.23-2.97,33.99,7.69,3.3,4.53,6.24,10.85,7.99,19.67,.38,3.28,2.74,5.98,5.93,6.81,0,0,24.09,9.07,28.63,41.89,0,0-11.35-.87-26.71-11.35,0,0-7.85-6.63-12.21-6.46l-22.52-11.86s-3.42-7.77-15.5-11l-10.79-21.86Z" fill="#002346" stroke="#002346" stroke-miterlimit="10"></path>
    <path d="M652.46,465.94s1.7-2.43,8.56-1.94c3.46-.43,6.55-2.36,8.46-5.27,0,0,7.72-8.58,17.77,0,0,0,14.83,15.69,13.85,25.13,0,0-3.31,3.31-16-6.32,0,0-9.07-6.43-13.49-6.8,0,0-15.07-3.8-11.89,2.45,0,0,9.36,21.82-7.21,26.11,0,0-.79-18.09-2.07-21.8l2.02-11.56Z" fill="#e6e7e8" stroke="#002346" stroke-miterlimit="10"></path>
    <circle cx="668.77" cy="465.56" r="5.76" fill="#fff" stroke="#002346" stroke-miterlimit="10"></circle>
    <circle cx="668.25" cy="465.56" r="3.82" fill="#002346" stroke="#002346" stroke-miterlimit="10"></circle>
    <circle cx="670.79" cy="463.08" r="2.02" fill="#fff"></circle>
    <path d="M632.77,467.8s11-2.93,17.91-2.69c.69,.03,1.33,.33,1.8,.83,1.3,1.33,2.5,2.77,3.58,4.29,.27,.38,.25,.89-.06,1.24l-4.54,5.44c-.47,.55-1.22,.77-1.91,.55-3.15-1.02-11.77-4.16-16.78-9.66Z" fill="#002346" stroke="#002346" stroke-miterlimit="10"></path>
    <path d="M743.64,583.69c-3.06-.39-15.18,4.15-58.32-33.39l2.31-27.41,8.12-17.86s13.68,10.64,15.06,21.54c0,0,8.91,10.09,10.75,20.25,0,0,7.52,8.77,5.68,14.15,0,0,7.68,4.61,8.6,9.83,0,0,4,1.47,7.21,7.49,1.23,1,2.03,2.43,2.24,4,0,0,.29,1.62-1.65,1.4Z" fill="#fff" stroke="#002346" stroke-miterlimit="10"></path>
    <path d="M697.46,507.4c-.26-.98-.89-1.83-1.75-2.37-5.21-3.2-25-13.9-31.62,4,0,0-8.75,13.33,21.19,41.23,0,0,5.07,2.3,4.84-6.68,0,0,6,1.38,3.22-7.83,0,0,5.68,.46,1.92-9.22,0,0,4-1.5,1.72-10.36,.04,.04,2.38-2.15,.48-8.77Z" fill="#e6e7e8" stroke="#002346" stroke-miterlimit="10"></path>
    <path d="M693.69,551.8s19,17,41,28" fill="none" stroke="#002346" stroke-linecap="round" stroke-linejoin="round"></path>
    <path d="M698.19,547.3s11,11,32,23" fill="none" stroke="#002346" stroke-linecap="round" stroke-linejoin="round"></path>
    <path d="M700.19,541.3s10,10,22,17" fill="none" stroke="#002346" stroke-linecap="round" stroke-linejoin="round"></path>
    <path d="M739.96,530.62s9.73,15.18,13.73,32.18" fill="none" stroke="#002346" stroke-linecap="round" stroke-linejoin="round"></path>
    <path d="M742.16,544.36s4.03,5.94,7.03,15.94" fill="none" stroke="#002346" stroke-linecap="round" stroke-linejoin="round"></path>
    <path d="M740.95,639.44s1.24-33.14-4.76-51.14" fill="none" stroke="#002346" stroke-linecap="round" stroke-linejoin="round"></path>
    <path d="M752.24,638.15s-3.05-29.85-8.05-47.85" fill="none" stroke="#002346" stroke-linecap="round" stroke-linejoin="round"></path>
    <path d="M678.32,582.99s12.47-4.99,18.67,2.16" fill="none" stroke="#002346" stroke-linecap="round" stroke-linejoin="round"></path>
    <line x1="688.88" y1="581.44" x2="684.69" y2="583.8" fill="none" stroke="#002346" stroke-linecap="round" stroke-linejoin="round"></line>
  </g>
</svg>
