<?xml version="1.0" encoding="UTF-8"?>
<svg xmlns="http://www.w3.org/2000/svg" id="a" width="865.76" height="682.89" viewBox="0 0 865.76 682.89">
  <path d="M485.48,269.71h-167V37.71h167v232Zm-166-1h165V38.71h-165v230Z" fill="#002346"></path>
  <g>
    <g>
      <path d="M778.03,629.54s-.04,0-.07,0c-.27-.04-.47-.29-.43-.56,6.31-47.51,38.7-119.01,39.03-119.72,5.2-12.38,6-21.2,2.36-26.21-3.4-4.68-9.67-4.21-9.74-4.2-25.64,1.86-44.57-1.77-44.75-1.8-.27-.05-.45-.32-.39-.59,.05-.27,.32-.45,.59-.39,.19,.04,18.99,3.64,44.49,1.79,.27-.02,6.88-.53,10.62,4.6,3.87,5.31,3.11,14.46-2.25,27.21-.33,.73-32.66,72.09-38.95,119.45-.03,.25-.25,.43-.5,.43Z" fill="#002346"></path>
      <path d="M789.65,628.04s-.05,0-.08,0c-.27-.04-.46-.3-.41-.57,3.53-21.48,26.59-83.86,33.58-102.47,1.56-4.16,2.75-8.35,3.52-12.45,2.59-13.72,1.25-23.48-3.98-29.01-5.34-5.64-12.99-4.7-13.07-4.69-.27,.03-.53-.16-.56-.43-.04-.27,.16-.52,.43-.56,.33-.04,8.23-1.02,13.93,4.99,5.47,5.77,6.89,15.83,4.24,29.88-.79,4.17-1.99,8.41-3.57,12.62-6.98,18.58-30.02,80.89-33.53,102.28-.04,.25-.25,.42-.49,.42Z" fill="#002346"></path>
    </g>
    <path d="M570.78,555.36s-.01,0-.02,0l-139.56-4.86c-.28,0-.49-.24-.48-.52,0-.28,.26-.51,.52-.48l139.56,4.86c.28,0,.49,.24,.48,.52,0,.27-.23,.48-.5,.48Z" fill="#002346"></path>
    <g>
      <path d="M108.57,468.84v-24.39c0-1.23-.92-2.24-2.06-2.24s-2.06,1-2.06,2.24v24.39h4.12Z" fill="#f1f2f2"></path>
      <path d="M109.07,469.34h-5.12v-24.89c0-1.51,1.15-2.74,2.56-2.74s2.56,1.23,2.56,2.74v24.89Zm-4.12-1h3.12v-23.89c0-.96-.7-1.74-1.56-1.74s-1.56,.78-1.56,1.74v23.89Z" fill="#002346"></path>
    </g>
    <g>
      <path d="M103.4,353.74c-1.14,.04-2.09-.85-2.13-1.99l-.77-22.48c-.04-1.14,.85-2.09,1.99-2.13,1.14-.04,2.09,.85,2.13,1.99l.77,22.48c.04,1.14-.85,2.09-1.99,2.13Z" fill="#fff"></path>
      <path d="M103.33,354.24c-1.37,0-2.51-1.09-2.56-2.47l-.77-22.48c-.05-1.41,1.06-2.6,2.47-2.65,.68-.03,1.34,.22,1.84,.69,.5,.47,.79,1.1,.81,1.78l.77,22.48c.02,.68-.22,1.34-.69,1.84-.47,.5-1.1,.79-1.78,.81-.03,0-.06,0-.09,0Zm-.76-26.6s-.04,0-.06,0c-.86,.03-1.54,.75-1.51,1.61l.77,22.48c.03,.86,.74,1.52,1.61,1.51h0c.42-.01,.8-.19,1.09-.49,.28-.31,.43-.7,.42-1.12l-.77-22.48c-.01-.42-.19-.8-.49-1.09-.29-.27-.67-.42-1.06-.42Z" fill="#002346"></path>
    </g>
    <path d="M575.27,626.58c-.08,0-.16-.02-.23-.06l-177.69-93.72c-.2-.11-.31-.34-.25-.56s.25-.38,.48-.38l176.6-.74-179.31-71.36-357.14,11.62c-.26,.04-.51-.21-.52-.48,0-.28,.21-.51,.48-.52l357.25-11.62c.09,0,.14,.01,.2,.04l181.81,72.35c.22,.09,.35,.32,.31,.56-.04,.23-.25,.41-.49,.41l-177.18,.74,175.92,92.78c.24,.13,.34,.43,.21,.68-.09,.17-.26,.27-.44,.27Z" fill="#002346"></path>
    <g>
      <path d="M327.52,362.67c-4.06-4.2-8.9-7.59-14.29-9.85-4.78-2-11.01-3.81-18.35-4.13-7.87-1.12-11.62-5.25-11.62-5.25l-17.99,7.87-54.73-4.87s-7.12,1.12-21.74,3.75c0,0-19.87,5.62-30.74,26.62-10.87,20.99-31.11,53.98-31.11,53.98,0,0-22.12,28.86-4.5,41.61,0,0,22.49,12.37,77.97,10.12,0,0-2.62-18.74,13.5-24.37l90.34-1.5,10.87-46.86,1.12-5.62,7.31,6.02,48.36-.16s-30.7-33.18-44.39-47.36Zm-158.22,89.11s-8.25-3.37-12.75-3.75l12-14.24s10.5-12.75,13.87-19.49l5.25,41.61-18.37-4.12Z" fill="#f39c12"></path>
      <path d="M187.38,483.28c-45.6,0-64.97-10.34-65.18-10.45-3.89-2.81-6.18-6.56-6.86-11.18-2.01-13.74,10.66-30.47,11.2-31.17,.17-.29,20.33-33.17,31.07-53.91,10.85-20.94,30.85-26.81,31.05-26.87,14.51-2.61,21.73-3.75,21.8-3.76h.06s.06,0,.06,0l54.6,4.86,18.2-7.96,.24,.26s3.74,4.01,11.32,5.09c6.3,.27,12.53,1.67,18.47,4.16,5.39,2.26,10.25,5.62,14.46,9.97,13.54,14.02,44.09,47.04,44.4,47.37l.77,.84-49.68,.17-6.8-5.61-.96,4.8-10.96,47.25-90.65,1.5c-15.45,5.45-13.11,23.62-13.09,23.8l.08,.55-.55,.02c-4.57,.19-8.92,.27-13.05,.27Zm23.17-136.34c-.73,.12-7.93,1.27-21.67,3.74-.15,.04-19.74,5.81-30.38,26.35-10.75,20.77-30.93,53.68-31.13,54.01-.16,.21-12.99,17.14-11.03,30.46,.64,4.34,2.79,7.87,6.4,10.48,.17,.09,22.85,12.17,77.13,10.05-.27-3.17-.87-19.21,13.88-24.36l.16-.03,89.95-1.49,10.78-46.48,1.29-6.43,7.82,6.44,47.04-.16c-4.86-5.25-31.29-33.76-43.61-46.52-4.11-4.25-8.86-7.53-14.12-9.74-5.83-2.45-11.95-3.82-18.18-4.09-6.95-.99-10.73-4.2-11.71-5.15l-17.8,7.79h-.13s-54.67-4.88-54.67-4.88Zm-22.3,109.6l-19.14-4.3c-.08-.03-8.23-3.35-12.6-3.71l-.96-.08,12.62-14.98c.1-.12,10.5-12.77,13.8-19.39l.74-1.47,5.54,43.95Zm-18.8-5.25l17.63,3.96-4.96-39.35c-3.91,6.9-12.78,17.7-13.18,18.19l-11.4,13.54c4.49,.67,11.27,3.39,11.92,3.66Z" fill="#002346"></path>
    </g>
    <g>
      <path d="M204.32,335.85c-1.01,4.54-2.54,9.48-4.72,12.4l27.06,.63,1.48-23.81-24.37-7.5h0c1.7,5.95,1.89,12.23,.54,18.28Z" fill="#fff"></path>
      <path d="M227.14,349.39l-28.52-.66,.58-.78c1.8-2.4,3.36-6.51,4.63-12.21h0c1.33-5.94,1.14-12.17-.53-18.03l-.25-.89,25.62,7.88-1.53,24.68Zm-26.59-1.62l25.66,.6,1.43-22.93-23.12-7.11c1.49,5.76,1.6,11.84,.31,17.64h0c-1.18,5.27-2.61,9.24-4.27,11.81Z" fill="#2f2e41"></path>
    </g>
    <g>
      <path d="M288.13,301.08c0,11.59-5.54,20.99-12.37,20.99-2.49,0-4.8-1.24-6.74-3.39-3.39-3.74-5.63-10.23-5.63-17.61s2.24-13.86,5.63-17.61c1.94-2.14,4.25-3.39,6.74-3.39,1.81,0,3.53,.66,5.08,1.85,1.24,.95,2.37,2.23,3.36,3.79,2.42,3.83,3.93,9.29,3.93,15.35Z" fill="#f39c12"></path>
      <path d="M275.76,322.57c-2.55,0-5.01-1.23-7.11-3.55-3.61-3.99-5.76-10.69-5.76-17.94s2.15-13.96,5.76-17.94c2.1-2.32,4.56-3.55,7.11-3.55,1.89,0,3.7,.66,5.39,1.96,1.28,.98,2.45,2.3,3.47,3.92,2.59,4.09,4.01,9.64,4.01,15.62,0,11.85-5.77,21.49-12.87,21.49Zm0-41.98c-2.26,0-4.46,1.11-6.37,3.22-3.44,3.81-5.5,10.26-5.5,17.27s2.06,13.46,5.5,17.27c1.91,2.11,4.11,3.22,6.37,3.22,6.55,0,11.87-9.19,11.87-20.49,0-5.71-1.41-11.21-3.86-15.08-.96-1.52-2.05-2.75-3.24-3.66-1.51-1.16-3.11-1.75-4.78-1.75Z" fill="#002346"></path>
    </g>
    <g>
      <path d="M281.01,301.08c0,9.73-5.2,17.62-11.62,17.62-.12,0-.24,0-.37-.01-3.39-3.74-5.63-10.23-5.63-17.61s2.24-13.86,5.63-17.61c.12,0,.24-.01,.37-.01,6.42,0,11.62,7.89,11.62,17.62Z" fill="#fff"></path>
      <path d="M269.39,319.2c-.13,0-.26,0-.4-.01h-.2s-.14-.16-.14-.16c-3.61-3.99-5.76-10.69-5.76-17.94s2.15-13.96,5.76-17.94l.14-.15h.2c.13-.02,.26-.02,.4-.02,6.68,0,12.12,8.13,12.12,18.12s-5.44,18.12-12.12,18.12Zm-.14-1s.09,0,.14,0c6.13,0,11.12-7.68,11.12-17.12s-4.99-17.12-11.12-17.12c-.05,0-.09,0-.14,0-3.36,3.83-5.36,10.2-5.36,17.12s2,13.29,5.36,17.12Z" fill="#002346"></path>
    </g>
    <g>
      <path d="M222.9,322.07l1.12,17.24-13.5,7.12s16.26,24.11,55.93,11.49c0,0-5.41-17.13-5.7-26.11l-16.8,2.63c-6.61,1.04-13.27-1.55-17.45-6.77-.93-1.16-2.65-4.83-3.61-5.61Z" fill="#f2b3c1"></path>
      <path d="M244.89,362.05c-24.08,0-34.64-15.14-34.77-15.33l-.31-.46,13.7-7.23-1.18-18.06,.89,.71c.64,.51,1.43,1.91,2.27,3.38,.54,.95,1.06,1.85,1.42,2.3,4.06,5.07,10.56,7.59,16.98,6.59l17.36-2.72,.02,.57c.28,8.81,5.62,25.8,5.67,25.98l.15,.48-.48,.15c-8.2,2.61-15.42,3.64-21.72,3.64Zm-33.61-15.44c2.5,3.2,19.08,22.06,54.55,10.99-.87-2.82-5.11-16.9-5.55-25.2l-16.25,2.54c-6.77,1.06-13.63-1.6-17.92-6.95-.41-.51-.94-1.45-1.51-2.43-.35-.61-.74-1.31-1.11-1.89l1.04,15.93-13.27,7Z" fill="#002346"></path>
    </g>
    <g>
      <path d="M442.65,580.59l-4.09,8.17c-.98,1.96,.55,4.27,2.74,4.07,1.48-.14,3.31-.67,5.4-1.98l2.25-4.87-6.29-5.38Z" fill="#f2b3c1"></path>
      <path d="M441.03,593.34c-1.08,0-2.06-.52-2.69-1.43-.69-1.01-.78-2.27-.23-3.37l4.38-8.74,7.07,6.04-2.47,5.35-.13,.08c-1.91,1.19-3.8,1.89-5.62,2.05-.1,0-.21,.01-.31,.01Zm1.79-11.95l-3.81,7.6c-.38,.77-.32,1.65,.16,2.36,.47,.69,1.25,1.07,2.08,.99,1.62-.15,3.32-.76,5.06-1.83l2.03-4.39-5.52-4.72Z" fill="#002346"></path>
    </g>
    <g>
      <path d="M525.42,542.86s.37,3-22.87,7.12l26.62,31.49,14.99-12.75,14.99-5.25-17.24-22.87-16.49,2.25Z" fill="#f2b3c1"></path>
      <path d="M529.11,582.18l-27.5-32.54,.86-.15c20.39-3.62,22.29-6.32,22.45-6.65l-.05-.41,17.27-2.36,17.83,23.65-15.55,5.44-15.31,13.01Zm-25.62-31.85l25.73,30.44,14.77-12.51,14.35-5.02-16.66-22.09-15.9,2.17c-.66,1.2-4.38,3.77-22.3,7.01Z" fill="#002346"></path>
    </g>
    <g>
      <path d="M697.71,354.6s8.01,1.21,14.76,9.46c0,0,7.5,7.12,17.24,12.75,0,0,34.49,12,36.74,50.98,0,0,3.37,24.37-1.12,91.84,0,0-4.12,82.47-4.87,108.34,0,0-4.5,6.37-24.37,3,0,0-12-.75-20.62,4.5,0,0-23.62,17.24-66.35,3.37,0,0-17.62-6.75-39.36-3.37,0,0-23.62,2.62-34.49-9.37l7.12-62.6s-8.62,8.62-21.37,9.37l-16.87-4.12s3.37-22.12-18.74-25.87c0,0,6.75-3.75,9-4.87,0,0,5.25-6,13.12-3.75l2.86-.77c4.1-1.1,7.16-4.49,7.88-8.67,.93-5.48,2.61-13.58,5.38-21.68,0,0,6-20.99,6.75-38.61,0,0,4.5-58.1,30.74-74.97l21.37-14.62,51.73-27.74,23.47,7.41Z" fill="#0088CC"></path>
      <path d="M680.91,644.68c-9.04,0-19.73-1.41-31.94-5.38-.2-.08-17.78-6.67-39.13-3.36-1,.11-24.02,2.52-34.93-9.53l-.15-.17,7-61.52c-2.65,2.25-10.38,8.01-20.69,8.62h-.08s-.07-.01-.07-.01l-17.31-4.23,.07-.45c.13-.88,3.03-21.68-18.33-25.3l-1.4-.24,1.25-.69c.07-.04,6.62-3.68,8.93-4.84,.66-.7,5.91-5.93,13.43-3.86l2.73-.73c3.89-1.05,6.84-4.29,7.51-8.27,.92-5.41,2.61-13.58,5.4-21.75,.05-.19,5.98-21.11,6.72-38.47,.05-.6,4.82-58.56,30.97-75.37l21.36-14.61,51.96-27.87,.2,.06,23.44,7.4c.7,.11,8.42,1.54,15.03,9.63,.03,.02,7.53,7.1,17.11,12.63,.26,.08,34.74,12.52,36.99,51.39,.03,.2,3.33,25.15-1.12,91.9-.04,.82-4.13,82.75-4.87,108.32v.15s-.09,.12-.09,.12c-.19,.27-4.91,6.59-24.86,3.2-.07,0-11.89-.67-20.27,4.43-.14,.11-12.41,8.8-34.82,8.8Zm-58.8-10.66c15.62,0,27.05,4.29,27.19,4.34,41.98,13.62,65.64-3.14,65.88-3.31,8.69-5.29,20.45-4.62,20.94-4.59,17.85,3.03,23.12-1.9,23.84-2.69,.75-25.77,4.83-107.35,4.87-108.17,4.44-66.63,1.16-91.5,1.13-91.75-2.21-38.23-36.06-50.46-36.41-50.58-9.77-5.63-17.35-12.78-17.42-12.86-6.58-8.03-14.41-9.31-14.49-9.33l-.08-.02-23.27-7.35-51.55,27.64-21.32,14.59c-25.75,16.55-30.48,74.02-30.52,74.6-.74,17.46-6.71,38.5-6.77,38.71-2.78,8.14-4.46,16.25-5.37,21.62-.74,4.36-3.98,7.92-8.24,9.07l-2.99,.81-.13-.04c-7.46-2.13-12.56,3.54-12.61,3.6l-.15,.12c-1.64,.82-5.72,3.06-7.77,4.19,19.15,4.09,18.15,22.56,17.84,25.72l16.37,4c12.36-.76,20.88-9.14,20.97-9.22l1.01-1.01-7.26,63.8c10.64,11.48,33.68,9.07,33.91,9.04,4.32-.67,8.5-.94,12.41-.94Z" fill="#002346"></path>
    </g>
    <g>
      <path d="M681.63,331.86l6.1,14.95s-14.62,20.62-31.11,32.61c0,0-13.5,9.75-15.37,22.87,0,0-5.25,22.12-12,30.74,0,0,2.25-16.87-1.12-25.49,0,0-4.87-12-1.12-20.99l5.25-14.24-10.87-16.87,14.62-19.87,21.78-21.6,23.85,17.89Z" fill="#f2b3c1"></path>
      <path d="M628.52,434.78l.24-1.82c.02-.17,2.19-16.84-1.09-25.24-.2-.49-4.9-12.28-1.12-21.37l5.15-13.99-10.92-16.95,14.82-20.15,22.14-21.96,24.31,18.23,6.26,15.34-.16,.22c-.15,.21-14.86,20.82-31.23,32.73-.13,.1-13.35,9.78-15.17,22.53-.22,.95-5.36,22.37-12.1,30.98l-1.13,1.45Zm-6.53-79.33l10.82,16.79-5.33,14.48c-3.63,8.73,1.07,20.51,1.12,20.63,2.74,7.01,1.86,19.1,1.38,23.81,6.07-9.29,10.74-28.78,10.79-28.98,1.88-13.13,15.01-22.75,15.56-23.16,15.32-11.14,29.2-30.02,30.84-32.28l-5.95-14.57-23.39-17.55-21.47,21.29-14.36,19.53Z" fill="#002346"></path>
    </g>
    <g>
      <path d="M627.38,364.8s-13.4,17.18-14.54,34.08c-.06,.89,.97,1.42,1.66,.86l4.96-4.06c1-.82,2.25-1.27,3.54-1.3l2.58-.04s1.42-6.3,6.67-22.04l-4.87-7.5Z" fill="#fff"></path>
      <path d="M613.86,400.47c-.24,0-.48-.06-.7-.17-.55-.28-.86-.84-.82-1.45,1.14-16.86,14.51-34.18,14.65-34.35l.43-.55,5.39,8.29-.08,.23c-5.18,15.54-6.64,21.93-6.66,21.99l-.09,.38-2.98,.05c-1.17,.02-2.32,.44-3.23,1.18l-4.96,4.06c-.28,.23-.62,.35-.96,.35Zm13.49-34.8c-2.28,3.1-13.01,18.38-14.01,33.24-.02,.32,.21,.46,.28,.5s.32,.14,.57-.06l4.96-4.06c1.08-.88,2.45-1.39,3.84-1.41l2.2-.04c.39-1.58,2.08-8.15,6.51-21.48l-4.35-6.7Z" fill="#002346"></path>
    </g>
    <g>
      <path d="M687.73,346.81c2.01-2.91,3-7.12,3-7.12l6,9.37s3.75,5.25-3,13.87c0,0-12,14.62-20.24,32.24,0,0-3.82,12.74-9.41,10.62-.77-.29-1.42-.85-1.9-1.52-2.01-2.82-10.48-13.74-18.67-9.48,0,0,3-7.12,13.12-15.37,0,0,17.62-13.12,31.11-32.61Z" fill="#fff"></path>
      <path d="M665.33,406.53c-.48,0-.96-.09-1.43-.27-.83-.31-1.57-.9-2.13-1.7-1.62-2.28-10.12-13.44-18.04-9.32l-1.23,.64,.54-1.28c.12-.3,3.16-7.33,13.27-15.56,.19-.14,17.73-13.31,31.02-32.51,1.93-2.79,2.91-6.91,2.92-6.95l.27-1.15,6.64,10.37c.15,.21,3.87,5.63-3.03,14.45-.13,.15-12.06,14.79-20.18,32.14-.08,.29-2.63,8.66-6.76,10.7-.61,.3-1.23,.45-1.85,.45Zm-17.88-13.22c6.9,0,13.13,7.87,15.12,10.67,.45,.64,1.03,1.1,1.67,1.34,.83,.32,1.65,.27,2.49-.14,3.74-1.84,6.25-10.07,6.27-10.16,8.21-17.54,20.21-32.27,20.33-32.41,6.4-8.18,3.12-13.06,2.98-13.26l-5.4-8.44c-.44,1.47-1.35,4.13-2.78,6.19h0c-13.39,19.34-31.05,32.6-31.23,32.73-7.48,6.09-11.04,11.61-12.35,13.96,.97-.33,1.93-.48,2.88-.48Z" fill="#002346"></path>
    </g>
    <g>
      <path d="M683.97,337.5s5.26-1.94,6.76,2.19c0,0-.75,3.37-3,7.12l-3.77-9.31Z" fill="#fff"></path>
      <path d="M687.65,347.93l-4.34-10.72,.48-.18c.12-.04,2.94-1.06,5.19-.01,1.04,.48,1.79,1.33,2.22,2.5l.05,.14-.03,.14c-.03,.14-.79,3.5-3.06,7.27l-.52,.86Zm-3.01-10.11l3.17,7.85c1.56-2.85,2.24-5.34,2.4-5.95-.34-.84-.89-1.45-1.64-1.8-1.37-.64-3.1-.32-3.93-.1Z" fill="#002346"></path>
    </g>
    <path d="M728.22,403.17c-.13,0-.25-.05-.35-.14l-20.33-20.07c-5.38-5.31-11.42-9.94-17.94-13.77-.24-.14-.32-.45-.18-.68,.14-.24,.45-.32,.68-.18,6.59,3.87,12.7,8.55,18.14,13.92l20.33,20.07c.2,.19,.2,.51,0,.71-.1,.1-.23,.15-.36,.15Z" fill="#002346"></path>
    <g>
      <path d="M527.67,562.36s19.49,11.25,74.22,16.87l5.25,.37s17.24,14.62-1.5,46.11l-78.72-22.87s-20.99-6.37-33.74-5.25c0,0-55.11,4.12-49.11-13.12l-2.25-14.99,16.12-23.62,7.5-.75,7.12,.37s-6-5.62-3-9.37c0,0,2.62-1.5,6.75,2.25,0,0,3,2.62,11.25,3.75,0,0,16.12,2.25,28.86,12.75,0,0,5.62,4.5,11.25,7.5Z" fill="#f2b3c1"></path>
      <path d="M605.87,626.3l-79.09-22.97c-.21-.06-21.06-6.34-33.55-5.23-1.67,.12-40.95,2.94-48.74-7.19-1.43-1.85-1.73-4.03-.92-6.47l-2.26-15.07,16.36-23.97,7.73-.77,5.94,.31c-1.63-1.83-4.67-5.98-2.16-9.12l.14-.12c.12-.07,2.99-1.63,7.33,2.31,.02,.02,3.02,2.54,10.98,3.62,.16,.02,16.41,2.39,29.12,12.86,.05,.04,5.65,4.5,11.16,7.44h.01c.19,.12,20.07,11.27,74.02,16.81l5.4,.39,.12,.11c.18,.15,17.35,15.26-1.39,46.75l-.2,.33Zm-109.49-29.33c12.73,0,30.48,5.34,30.68,5.4l78.34,22.76c17.17-29.13,2.97-43.67,1.52-45.03l-5.07-.36c-53.77-5.52-73.9-16.63-74.43-16.93-5.6-2.99-11.26-7.5-11.32-7.54-12.49-10.29-28.46-12.62-28.62-12.64-8.3-1.13-11.38-3.76-11.5-3.87-3.43-3.12-5.65-2.42-6.1-2.23-2.51,3.35,2.96,8.56,3.02,8.61l1,.94-8.49-.45-7.19,.72-15.88,23.26,2.24,14.92-.04,.12c-.76,2.18-.52,4.03,.73,5.65,7.47,9.71,47.47,6.84,47.87,6.81,1.03-.09,2.12-.13,3.24-.13Z" fill="#002346"></path>
    </g>
    <path d="M483.4,547.64c-5.32,0-10.71-1.6-10.98-1.67-.26-.08-.42-.36-.33-.62,.08-.26,.36-.41,.62-.34,.07,.02,7.47,2.21,13.29,1.48,.25-.03,.52,.16,.56,.43,.03,.27-.16,.52-.43,.56-.89,.11-1.8,.16-2.72,.16Z" fill="#2f2e41"></path>
    <g>
      <path d="M448.75,573.65l10.31,6.71s-.27,4.87-7.63,2.81l-5.49-4.31,2.81-5.21Z" fill="#f2b3c1"></path>
      <path d="M454.69,584.17c-1,0-2.13-.18-3.39-.53l-.17-.09-5.82-4.57,3.26-6.06,11.01,7.16-.02,.29c0,.07-.12,1.78-1.66,2.89-.84,.6-1.91,.9-3.21,.9Zm-3.02-1.46c2.5,.69,4.45,.6,5.64-.24,.85-.6,1.13-1.44,1.22-1.87l-9.59-6.24-2.35,4.36,5.08,3.99Z" fill="#002346"></path>
    </g>
    <path d="M561.03,573.35c-.06,0-.13-.01-.19-.04-.25-.1-.38-.4-.27-.65,4.33-10.51,4.76-19.35,1.28-26.28-4.54-9.04-14.34-11.63-14.43-11.65-.27-.07-.43-.34-.36-.61,.07-.27,.34-.43,.61-.36,.42,.11,10.32,2.71,15.08,12.16,3.62,7.2,3.2,16.33-1.24,27.12-.08,.19-.27,.31-.46,.31Z" fill="#002346"></path>
    <path d="M582.4,563.98c-.07,0-.15-.02-.22-.05-.25-.12-.35-.42-.23-.67,.06-.12,5.53-11.81,2.95-35.72l-.75-40.9-.75-44.23c0-.28,.22-.5,.49-.51,.23-.02,.5,.22,.51,.49l.75,44.23,.75,40.86c2.61,24.19-2.82,35.73-3.05,36.21-.09,.18-.26,.28-.45,.28Z" fill="#002346"></path>
    <path d="M614.63,584.97s-.01,0-.02,0c-.28,0-.49-.24-.48-.52l3.37-105.34c-1.86-24.56,11.19-46.14,11.32-46.35,.14-.24,.45-.31,.69-.16,.24,.14,.31,.45,.16,.69-.13,.21-13.01,21.52-11.17,45.81l-3.37,105.39c0,.27-.23,.48-.5,.48Z" fill="#002346"></path>
    <g>
      <path d="M523.92,382.05h9.37v8.46c0,2.16-1.75,3.91-3.91,3.91h-1.56c-2.16,0-3.91-1.75-3.91-3.91v-8.46h0Z" fill="#002346"></path>
      <path d="M529.38,394.92h-1.56c-2.43,0-4.41-1.98-4.41-4.41v-8.96h10.37v8.96c0,2.43-1.98,4.41-4.41,4.41Zm-4.96-12.37v7.96c0,1.88,1.53,3.41,3.41,3.41h1.56c1.88,0,3.41-1.53,3.41-3.41v-7.96h-8.37Z" fill="#002346"></path>
    </g>
    <path d="M510.2,472.89c-3.68,0-7.2-1.53-9.81-4.35-17-18.4-28.58-62.68-28.69-63.13-.07-.27,.09-.54,.36-.61,.27-.07,.54,.09,.61,.36,.11,.44,11.62,44.48,28.46,62.7,3.06,3.31,7.47,4.7,11.82,3.72,4.46-1,7.95-4.26,9.34-8.72,5.03-16.08,6.8-39.1,5.29-68.42-.01-.28,.2-.51,.47-.53,.3-.01,.51,.2,.52,.47,1.52,29.44-.27,52.57-5.33,68.77-1.5,4.8-5.27,8.31-10.08,9.4-.99,.22-1.99,.33-2.97,.33Z" fill="#002346"></path>
    <g>
      <polygon points="431.33 549.99 426.45 547.36 425.66 529.85 430.16 529.66 431.33 549.99" fill="#fff"></polygon>
      <path d="M431.88,550.85l-5.91-3.18-.83-18.3,5.49-.23,1.25,21.71Zm-4.94-3.79l3.84,2.07-1.09-18.94-3.5,.15,.75,16.73Z" fill="#2f2e41"></path>
    </g>
    <g>
      <path d="M426.45,547.36h-25.87l4.5,3,26.13-.36s.04-.05,.01-.07l-4.77-2.57Z" fill="#002346"></path>
      <path d="M404.94,550.86l-6-4h27.64l5.21,2.81-.12,.76-.4,.06-26.33,.37Zm-2.7-3l3,2,24.18-.34-3.08-1.66h-24.09Z" fill="#002346"></path>
    </g>
    <g>
      <path d="M267.33,414.22l-5.62,105.38c-.11,2.04,1.54,3.75,3.58,3.71l160.63-2.87c1.79-.03,3.28-1.41,3.44-3.19l9.83-103.94c.2-2.08-1.45-3.87-3.54-3.85l-164.85,1.44c-1.86,.02-3.39,1.48-3.49,3.34Z" fill="#fff"></path>
      <path d="M265.23,523.8c-1.09,0-2.14-.45-2.9-1.23-.77-.8-1.18-1.9-1.12-3.01l5.62-105.38c.11-2.12,1.86-3.79,3.98-3.81l164.85-1.44c1.1,.01,2.23,.46,3,1.3s1.15,1.97,1.04,3.1l-9.83,103.94c-.19,2.04-1.88,3.61-3.93,3.64l-160.63,2.88s-.05,0-.07,0Zm2.1-109.59l.5,.03-5.62,105.38c-.05,.85,.25,1.65,.84,2.26,.59,.61,1.38,.95,2.23,.92l160.63-2.88c1.54-.03,2.81-1.2,2.96-2.74l9.83-103.94c.08-.85-.21-1.7-.78-2.33-.58-.63-1.41-.99-2.25-.98l-164.85,1.44c-1.59,.01-2.91,1.27-2.99,2.86l-.5-.03Z" fill="#002346"></path>
    </g>
    <g>
      <path d="M237.95,503.53l23.94,11.22,.75-11.62-24.68,.37s-.02,.02,0,.02Z" fill="#002346"></path>
      <path d="M262.34,515.51l-24.96-11.71,.15-.78,.4-.02,25.24-.38-.83,12.89Zm-22.27-11.54l21.37,10.02,.67-10.35-22.03,.33Z" fill="#002346"></path>
    </g>
    <g>
      <path d="M237.95,503.58l-.04,3.05c0,.62,.34,1.18,.89,1.46l22.92,11.51,.17-4.84-23.87-11.22s-.07,0-.07,.04Z" fill="#fff"></path>
      <path d="M262.19,520.39l-23.62-11.86c-.72-.36-1.17-1.11-1.16-1.91l.05-3.32,.48-.33,.29,.11,24.17,11.36-.21,5.95Zm-23.74-16.1l-.03,2.34c0,.42,.23,.81,.61,1l22.22,11.17,.13-3.74-22.93-10.78Z" fill="#002346"></path>
    </g>
    <g>
      <rect x="220.28" y="254.59" width="51.36" height="81.72" rx="25.68" ry="25.68" fill="#f2b3c1"></rect>
      <path d="M245.96,336.81c-14.43,0-26.18-11.74-26.18-26.18v-30.36c0-14.43,11.74-26.18,26.18-26.18s26.18,11.74,26.18,26.18v30.36c0,14.43-11.74,26.18-26.18,26.18Zm0-81.72c-13.88,0-25.18,11.29-25.18,25.18v30.36c0,13.88,11.29,25.18,25.18,25.18s25.18-11.29,25.18-25.18v-30.36c0-13.88-11.29-25.18-25.18-25.18Z" fill="#002346"></path>
    </g>
    <g>
      <path d="M270.13,319.82c.75,1.87,5.62,2.25,5.62,2.25,12.37-1.12,12.37-20.99,12.37-20.99-.75-20.62-12.37-20.99-12.37-20.99,4.12,20.24-4.12,30.24-4.12,30.24v-11.87c-9.37-3.37-17.99-28.11-17.99-28.11-2.25-8.25-12.37-7.5-12.37-7.5-13.5-3.75-14.24,17.99-14.24,17.99,0,16.12-11.25,19.12-11.25,19.12l-10.12-29.99c9.37-36.36,32.61-25.49,32.61-25.49,23.99-20.24,44.23,27.74,44.23,27.74,13.12,26.99,9,63.73,9,63.73-1.5,12.75-8.25,8.25-8.25,8.25,1.82,5.99,6.36,16.51,8.96,22.37,1.91,4.29,3.12,8.87,3.5,13.55,1.33,16.75-8.71,17.31-8.71,17.31,1.12-1.87,.75-3.75,.75-3.75-4.12,5.62-7.5,4.12-7.5,4.12,5.28-11.43-2.51-22.63-6.16-26.98-2.86-3.41-5.25-7.19-6.95-11.3-4.62-11.18-6.38-27.7-6.38-27.7,0,0,6-4.12,9.37-12Z" fill="#002346"></path>
      <path d="M281.38,398.48c-.79,0-1.27-.2-1.33-.23l-.46-.21,.21-.46c5.16-11.18-2.54-22.22-6.09-26.44-3.02-3.59-5.38-7.44-7.03-11.43-4.6-11.12-6.4-27.68-6.41-27.84l-.03-.3,.25-.17c.06-.04,5.92-4.14,9.2-11.78l.48-1.11,.45,1.12c.46,1.15,3.43,1.8,5.2,1.94,11.7-1.07,11.83-20.3,11.83-20.49-.63-17.29-8.84-19.99-11.25-20.42,3.81,19.79-4.02,29.57-4.36,29.98l-.89,1.07v-12.92c-9.35-3.84-17.61-27.29-17.97-28.29-2.12-7.78-11.46-7.19-11.86-7.16h-.09s-.08-.02-.08-.02c-2.85-.79-5.32-.44-7.34,1.04-5.79,4.24-6.27,16.37-6.28,16.49,0,16.3-11.5,19.55-11.62,19.58l-.45,.12-10.32-30.57,.04-.14c3.43-13.29,9.07-21.87,16.78-25.5,7.65-3.61,14.7-1.08,16.23-.44,5.16-4.26,10.56-5.75,16.06-4.43,16.48,3.95,28.23,31.4,28.72,32.56,13.02,26.79,9.07,63.61,9.03,63.98-.58,4.97-2.04,8.02-4.31,9.07-1.37,.63-2.71,.39-3.61,.07,2,6.11,6.19,15.79,8.6,21.22,1.98,4.46,3.17,9.08,3.54,13.72,.52,6.58-.61,11.51-3.36,14.65-2.61,2.98-5.7,3.19-5.83,3.19l-.94,.05,.49-.81c.44-.74,.63-1.48,.7-2.08-2.44,2.84-4.59,3.4-5.89,3.4Zm-.43-1.02c1.01,.14,3.45-.07,6.4-4.08l.67-.91,.22,1.11c.01,.07,.29,1.51-.36,3.17,1.02-.27,2.73-.97,4.24-2.7,2.55-2.94,3.59-7.61,3.09-13.89-.36-4.53-1.52-9.03-3.45-13.39-2.57-5.78-7.15-16.39-8.99-22.43l-.4-1.33,1.16,.76s1.91,1.23,3.74,.38c1.91-.89,3.2-3.75,3.73-8.27,.04-.36,3.95-36.9-8.95-63.45-.13-.31-12.06-28.17-28.04-32-5.26-1.26-10.44,.23-15.42,4.43l-.24,.21-.29-.13c-.08-.04-7.66-3.48-15.69,.32-7.39,3.49-12.84,11.8-16.19,24.7l9.92,29.38c2.07-.74,10.43-4.6,10.43-18.49,.02-.54,.51-12.75,6.68-17.28,2.26-1.66,4.99-2.06,8.11-1.21,1.04-.05,10.58-.25,12.8,7.87,.08,.21,8.64,24.52,17.68,27.78l.33,.12v10.57c1.98-3.32,6.32-12.83,3.13-28.49l-.13-.62,.63,.02c.12,0,12.1,.63,12.85,21.47,0,.85-.15,20.36-12.82,21.51-.53-.03-4.04-.35-5.56-1.76-3.07,6.61-7.81,10.4-8.95,11.24,.26,2.24,2.1,17.09,6.31,27.28,1.61,3.9,3.92,7.65,6.87,11.17,3.62,4.3,11.39,15.45,6.47,26.96Z" fill="#002346"></path>
    </g>
    <path d="M283.26,344.69c-.19,0-.37-.11-.46-.29-.08-.17-1.92-4.31-1.54-11.11l-.37-13.06c0-.28,.21-.51,.49-.51,.29,0,.51,.21,.51,.49l.37,13.1c-.36,6.59,1.44,10.64,1.45,10.68,.11,.25,0,.55-.25,.66-.07,.03-.14,.04-.21,.04Z" fill="#002346"></path>
    <g>
      <path d="M216.21,328c-7.47,1.16-15.13-8.27-17.11-21.05-1.36-8.8,.31-16.9,3.93-21.47,1.64-2.07,3.67-3.42,6-3.78,7.47-1.16,15.13,8.27,17.11,21.05,1.98,12.79-2.47,24.09-9.93,25.25Z" fill="#f39c12"></path>
      <path d="M214.98,328.6c-7.29,0-14.46-9.27-16.37-21.57-1.34-8.64,.21-17.02,4.03-21.86,1.76-2.23,3.95-3.6,6.32-3.96,3.8-.59,7.73,1.36,11.08,5.48,3.29,4.04,5.63,9.72,6.6,15.99,2.02,13.04-2.62,24.62-10.35,25.82-.44,.07-.87,.1-1.31,.1Zm-4.69-46.49c-.39,0-.79,.03-1.18,.09-2.12,.33-4.08,1.57-5.69,3.59-3.66,4.63-5.13,12.7-3.83,21.08,1.94,12.49,9.36,21.75,16.54,20.63,7.18-1.11,11.45-12.18,9.52-24.68-.95-6.1-3.22-11.61-6.39-15.52-2.76-3.4-5.9-5.21-8.97-5.21Z" fill="#002346"></path>
    </g>
    <g>
      <ellipse cx="208.54" cy="306.45" rx="9.47" ry="18.84" transform="translate(-44.49 35.57) rotate(-8.81)" fill="#fff"></ellipse>
      <path d="M210.67,325.62c-2.44,0-4.94-1.64-7.12-4.69-2.36-3.3-4.09-7.9-4.87-12.95-.78-5.05-.53-9.96,.72-13.82,1.28-3.98,3.48-6.4,6.17-6.82,2.68-.42,5.52,1.23,7.95,4.63,2.36,3.3,4.09,7.9,4.87,12.95,.78,5.05,.53,9.96-.72,13.82-1.28,3.98-3.48,6.4-6.17,6.82-.27,.04-.55,.06-.83,.06Zm-4.27-37.35c-.23,0-.45,.02-.67,.05-2.3,.36-4.21,2.54-5.37,6.14-1.2,3.72-1.44,8.46-.68,13.36,.76,4.9,2.43,9.35,4.7,12.53,2.2,3.08,4.67,4.58,6.98,4.22,2.3-.36,4.21-2.54,5.37-6.14,1.2-3.72,1.44-8.46,.68-13.36h0c-.76-4.9-2.43-9.35-4.7-12.53-1.98-2.78-4.2-4.27-6.31-4.27Z" fill="#002346"></path>
    </g>
    <g>
      <ellipse cx="205.29" cy="308.02" rx="5.96" ry="12.69" transform="translate(-44.77 35.09) rotate(-8.81)" fill="#f39c12"></ellipse>
      <path d="M206.79,321.09c-1.61,0-3.27-1.15-4.7-3.28-1.52-2.26-2.65-5.38-3.18-8.8-.53-3.42-.4-6.74,.36-9.35,.8-2.74,2.22-4.4,4-4.67,1.78-.28,3.63,.88,5.22,3.24,1.52,2.26,2.65,5.38,3.18,8.8h0c.53,3.42,.4,6.74-.36,9.35-.8,2.74-2.22,4.4-4,4.67-.17,.03-.35,.04-.52,.04Zm-3.02-25.14c-.12,0-.24,0-.35,.03-1.35,.21-2.51,1.65-3.19,3.96-.72,2.47-.84,5.64-.34,8.91,.51,3.28,1.58,6.26,3.02,8.39,1.35,2,2.89,3.02,4.24,2.81,1.35-.21,2.51-1.65,3.19-3.96,.72-2.47,.84-5.64,.34-8.91h0c-.51-3.28-1.58-6.26-3.02-8.39-1.23-1.83-2.63-2.84-3.89-2.84Z" fill="#002346"></path>
    </g>
    <g>
      <path d="M284.2,285.73c-.98-1.56-2.11-2.84-3.36-3.79l-.83-7.79c-.1-.93-.24-1.86-.44-2.77-5.81-26.06-37.17-23.54-37.17-23.54-33.74,2.62-33.36,33.85-33.36,33.85-2.33,.36-4.36,1.71-6,3.78v-9.89c1.5-29.24,39.36-31.86,39.36-31.86,36.74-1.5,39.36,22.49,39.36,22.49l2.44,19.51Z" fill="#f39c12"></path>
      <path d="M284.97,287.89l-1.2-1.9c-.96-1.52-2.05-2.75-3.24-3.66l-.17-.13-.85-8c-.11-1.05-.25-1.91-.43-2.71-5.64-25.33-36.33-23.18-36.64-23.15-32.89,2.56-32.9,33.04-32.9,33.35v.43s-.42,.07-.42,.07c-2.12,.33-4.08,1.57-5.69,3.59l-.89,1.13v-11.33c1.51-29.37,39.44-32.34,39.83-32.36,36.81-1.5,39.87,22.69,39.89,22.94l2.72,21.73Zm-39.38-43.73c-1.03,0-2.09,.02-3.18,.07-.36,.03-37.42,2.93-38.88,31.39v8.54c1.48-1.51,3.18-2.49,5.01-2.87,.13-3.79,2.16-31.47,33.81-33.93,.32-.03,31.87-2.25,37.7,23.93,.19,.84,.33,1.74,.45,2.82l.81,7.58c.76,.6,1.47,1.32,2.14,2.15l-2.19-17.55c-.03-.23-2.86-22.12-35.66-22.12Z" fill="#002346"></path>
    </g>
    <path d="M224.03,345.06c-.28,0-.5-.22-.5-.5v-5.25c0-.28,.22-.5,.5-.5s.5,.22,.5,.5v5.25c0,.28-.22,.5-.5,.5Z" fill="#2f2e41"></path>
    <path d="M182.42,414.79c-.27,0-.49-.22-.5-.49-.37-16.18-5.89-27.79-5.95-27.91-.12-.25-.02-.55,.23-.67,.25-.12,.55-.02,.67,.23,.06,.12,5.67,11.91,6.05,28.32,0,.28-.21,.5-.49,.51h-.01Z" fill="#002346"></path>
    <path d="M140.06,450.4c-.21,0-.41-.13-.48-.35-.08-.26,.06-.54,.32-.63,.43-.14,10.7-3.4,16.77-1.88,.27,.07,.43,.34,.36,.61-.07,.27-.34,.43-.61,.36-5.79-1.45-16.12,1.83-16.22,1.87-.05,.02-.1,.02-.15,.02Z" fill="#002346"></path>
    <path d="M213.91,458.65s-.03,0-.04,0l-26.24-2.25c-.28-.02-.48-.27-.46-.54,.02-.27,.27-.49,.54-.46l26.24,2.25c.28,.02,.48,.27,.46,.54-.02,.26-.24,.46-.5,.46Z" fill="#002346"></path>
    <g>
      <path d="M235.59,478.44s-1.44,2.57,2.68,2.57c0,0-2.62,3.75,4.12,3.37,0,0,2.25,1.87,7.5,0,0,0,6.19,2.89,13.96-1.74l.23-5.61-4.45-8.4-22.49,1.5-1.55,8.3Z" fill="#f2b3c1"></path>
      <path d="M254.83,485.79c-2.58,0-4.37-.63-4.95-.87-4.59,1.59-6.99,.39-7.63-.03-2.59,.12-4.14-.34-4.73-1.42-.39-.7-.24-1.46-.04-2-1.2-.11-2-.5-2.39-1.16-.48-.83-.11-1.76,.02-2.04l1.61-8.61,23.2-1.55,4.67,8.8-.25,6.01-.23,.14c-3.56,2.12-6.79,2.72-9.28,2.72Zm-4.91-1.95l.19,.09c.06,.03,5.93,2.66,13.26-1.58l.22-5.2-4.24-7.99-21.78,1.45-1.54,8.07s-.35,.67-.07,1.13c.27,.45,1.09,.7,2.32,.7h.95l-.54,.79s-.68,1.01-.29,1.7c.23,.4,1.04,1.06,3.98,.89h.2s.15,.11,.15,.11c.02,.01,2.14,1.65,7.01-.09l.19-.07Z" fill="#002346"></path>
    </g>
    <path d="M238.27,481.51c-.14,0-.28-.06-.37-.17-.18-.21-.16-.52,.04-.71l7.13-6.31c.21-.18,.52-.16,.71,.04,.18,.21,.16,.52-.04,.71l-7.13,6.31c-.09,.08-.21,.13-.33,.13Z" fill="#002346"></path>
    <path d="M242.39,484.89c-.13,0-.27-.05-.37-.16-.19-.2-.18-.52,.03-.71l8.15-7.58c.2-.19,.52-.18,.71,.03,.19,.2,.18,.52-.03,.71l-8.15,7.58c-.1,.09-.22,.13-.34,.13Z" fill="#002346"></path>
    <path d="M249.89,484.89c-.16,0-.31-.07-.41-.21-.16-.22-.11-.54,.11-.7l11.86-8.51c.22-.16,.54-.11,.7,.11,.16,.22,.11,.54-.11,.7l-11.86,8.51c-.09,.06-.19,.09-.29,.09Z" fill="#002346"></path>
    <path d="M316.24,404.67s-.01,0-.02,0c-.28-.01-.49-.25-.48-.52,.38-8.62,4.88-18.09,4.92-18.19,.12-.25,.42-.35,.67-.23,.25,.12,.35,.42,.23,.67-.04,.09-4.46,9.38-4.82,17.8-.01,.27-.23,.48-.5,.48Z" fill="#002346"></path>
    <path d="M247.13,445.99c-.12,0-.24-.04-.34-.13-7.35-6.74-7.15-24.81-7.14-25.58,1.83-12.13-3.27-22.53-3.32-22.64l-11.25-23.25c-5.84-8.38-5.36-28.35-5.3-30.13-2.96-8.17-4.05-16.12-4.06-16.2-.04-.27,.16-.53,.43-.56,.27-.03,.52,.16,.56,.43,.01,.08,1.1,7.98,4.04,16.08,.02,.06,.03,.12,.03,.19,0,.21-.67,21.3,5.16,29.69l11.29,23.31c.05,.1,5.29,10.78,3.42,23.16,0,.12-.19,18.33,6.82,24.76,.2,.19,.22,.5,.03,.71-.1,.11-.23,.16-.37,.16Z" fill="#002346"></path>
    <path d="M250.27,447.4h-.01c-.28,0-.49-.24-.49-.51,0-.15,.42-15.57,4.16-24.91l12-29.62c.1-.26,10.08-27.54,9.71-51.16l-.38-19.12c0-.28,.21-.5,.49-.51h0c.27,0,.49,.22,.5,.49l.38,19.12c.37,23.81-9.68,51.27-9.78,51.54l-12,29.63c-3.67,9.18-4.08,24.41-4.09,24.57,0,.27-.23,.49-.5,.49Z" fill="#002346"></path>
    <g>
      <circle cx="102.57" cy="325.82" r="3.75" fill="#002346"></circle>
      <path d="M102.57,330.07c-2.34,0-4.25-1.91-4.25-4.25s1.91-4.25,4.25-4.25,4.25,1.91,4.25,4.25-1.91,4.25-4.25,4.25Zm0-7.5c-1.79,0-3.25,1.46-3.25,3.25s1.46,3.25,3.25,3.25,3.25-1.46,3.25-3.25-1.46-3.25-3.25-3.25Z" fill="#002346"></path>
    </g>
    <g>
      <path d="M104.44,468.84l13.24,11.97c.4,.36,.95,.5,1.47,.39h0c1.18-.26,1.69-1.67,.95-2.63l-8.16-9.93-7.5,.2Z" fill="#f1f2f2"></path>
      <path d="M118.79,481.74c-.53,0-1.05-.19-1.45-.56l-14.16-12.81,8.99-.24,8.31,10.12c.46,.6,.58,1.37,.33,2.06-.25,.7-.84,1.21-1.56,1.37-.15,.03-.31,.05-.47,.05Zm-13.09-12.43l12.31,11.13c.28,.25,.66,.35,1.02,.27,.39-.09,.7-.35,.84-.73,.14-.38,.08-.78-.17-1.1l-7.99-9.73-6.01,.16Z" fill="#002346"></path>
    </g>
    <path d="M94.4,469.47c-.25,0-.47-.19-.5-.45-.58-5.51,1.92-10.41,2.7-11.78,.43-.76,.75-1.45,.97-2.1,1.52-4.48,1.14-10.99,.77-14.46-.15-1.44-.41-2.88-.67-4.22-2.43-12.47,7.38-36.7,7.8-37.73,10.32-31.69,6.5-53.13,6.46-53.34-.05-.27,.13-.53,.4-.58,.27-.05,.53,.13,.58,.4,.04,.22,3.91,21.88-6.5,53.87-.11,.28-10.13,25.02-7.76,37.19,.27,1.36,.53,2.82,.69,4.3,.37,3.56,.76,10.23-.82,14.89-.24,.72-.59,1.46-1.05,2.28-.74,1.31-3.12,5.97-2.58,11.18,.03,.27-.17,.52-.44,.55-.02,0-.04,0-.05,0Z" fill="#002346"></path>
    <path d="M133.73,441.14c-1.11,0-2.23-.22-3.29-.66-2.39-1-4.18-2.97-4.91-5.42-2.19-7.42,1.9-17.17,2.07-17.59,9.2-25.02,4.51-45.73,4.46-45.94-4.06-28.07-19.5-37.74-19.65-37.83-.24-.14-.31-.45-.17-.69,.14-.24,.45-.31,.69-.17,.16,.1,15.99,9.97,20.12,38.5,.04,.17,4.81,21.15-4.51,46.49-.05,.12-4.13,9.87-2.04,16.93,.64,2.16,2.22,3.9,4.33,4.78,2.1,.87,4.43,.77,6.4-.3,2.63-1.42,4.5-3.97,5.56-7.56,.08-.26,.35-.42,.62-.34,.26,.08,.42,.36,.34,.62-1.13,3.86-3.17,6.61-6.05,8.16-1.23,.67-2.59,1-3.96,1Z" fill="#002346"></path>
    <g>
      <rect x="585.4" y="241.85" width="69.35" height="114.33" rx="34.67" ry="34.67" fill="#f2b3c1"></rect>
      <path d="M620.07,356.68c-19.4,0-35.17-15.78-35.17-35.17v-44.98c0-19.4,15.78-35.17,35.17-35.17s35.17,15.78,35.17,35.17v44.98c0,19.4-15.78,35.17-35.17,35.17Zm0-114.33c-18.84,0-34.17,15.33-34.17,34.17v44.98c0,18.84,15.33,34.17,34.17,34.17s34.17-15.33,34.17-34.17v-44.98c0-18.84-15.33-34.17-34.17-34.17Z" fill="#002346"></path>
    </g>
    <g>
      <path d="M585.52,281.77s-14.37,3.94-9.87-11.81c0,0-12-3-11.25-13.87,0,0-.37-6.37,11.62-5.62,0,0-9-9.75-2.25-16.12,0,0,4.12-3.37,12.75,.37,0,0-8.62-13.5,4.87-12,0,0,3.37-7.87,12.75-.37,0,0-1.87-6.75,4.12-8.62,0,0,5.25-.75,7.5,4.5,0,0,1.5-7.87,10.5-6,0,0,5.62,1.12,6.37,9.37,0,0,9.37-1.87,21.37,.37,0,0,8.62-8.25,13.5,4.12,0,0,4.87-5.62,11.62-1.87,0,0,3.75,2.25,3.37,9,0,0,2.71-1.19,6.09-.82,3.52,.38,6.16,3.37,6.11,6.91-.02,1.17-.18,2.52-.58,4.04,0,0,5.25-4.87,10.5-1.5,0,0,4.12,3,0,13.5,0,0,7.12-2.25,8.62,3,0,0,1.5,5.25-4.12,9,0,0,6.75,3.37,5.62,11.25,0,0,1.12,7.12-9.37,8.62,0,0,6.75,3.37,6,10.12,0,0-.75,6.75-8.62,6,0,0,12.37,10.5-5.25,12.75,0,0,6.37,16.87-11.62,10.12,0,0-9.37,16.49-12.75,2.62,0,0-10.87,4.12-9-6.37,0,0-12,.37-14.99-8.62l-29.99-34.49s-5.25-1.5-4.12-7.87c0,0-14.62,10.87-13.87-7.12,0,0-9.61,7.84-13.24,.74,0,0-2.51,2.4-2.51,8.14l.12,8.55Z" fill="#002346"></path>
      <path d="M677.28,334.87c-.15,0-.29,0-.43-.03-1.81-.25-3.18-2.06-4.08-5.37-1.43,.45-5.37,1.43-7.69-.49-1.42-1.18-1.94-3.21-1.54-6.04-2.51-.08-12.12-.89-14.85-8.86l-29.84-34.31c-.84-.3-4.84-2.04-4.47-7.27-2.01,1.29-6.83,3.92-10.25,2.1-2.37-1.26-3.55-4.36-3.51-9.24-1.75,1.24-5.86,3.79-9.32,3.07-1.44-.3-2.6-1.13-3.46-2.47-.68,.96-1.93,3.27-1.93,7.26l.13,8.93-.37,.1c-.26,.07-6.3,1.68-9.51-1.56-2.03-2.06-2.41-5.55-1.11-10.39-2.3-.73-11.81-4.38-11.13-14.24,0-.01-.09-1.87,1.59-3.55,1.85-1.84,5.01-2.71,9.42-2.59-2.05-2.62-7.29-10.45-1.49-15.93,.19-.16,4.05-3.2,11.94-.27-1.16-2.17-3.09-6.61-1.38-9.36,1.11-1.78,3.5-2.51,7.12-2.16,.43-.8,1.72-2.77,4.21-3.39,2.36-.59,5.1,.21,8.13,2.39-.23-2.17-.04-6.46,4.68-7.94,.13-.02,4.94-.65,7.53,3.65,.45-1.16,1.38-2.9,3.2-4.11,1.99-1.33,4.52-1.68,7.52-1.05,.24,.05,5.75,1.24,6.71,9.28,2.16-.35,10.55-1.45,20.77,.42,.82-.72,4.08-3.29,7.65-2.51,2.54,.56,4.61,2.67,6.18,6.29,1.52-1.37,5.99-4.6,11.68-1.44,.17,.1,3.74,2.32,3.66,8.71,1.06-.34,3.15-.86,5.62-.6,3.79,.41,6.61,3.59,6.56,7.41-.01,.91-.11,1.85-.29,2.8,1.91-1.28,5.95-3.28,9.97-.69,.2,.14,4.17,3.19,.54,13.2,1.36-.28,3.9-.58,5.88,.48,1.2,.64,2.01,1.68,2.41,3.09,.02,.05,1.42,5.23-3.69,9.1,1.74,1.15,6.12,4.74,5.22,11.28,.05,.46,.22,2.73-1.42,4.95-1.44,1.95-3.81,3.27-7.07,3.94,1.97,1.37,5.69,4.68,5.11,9.91,0,.07-.8,6.42-7.8,6.5,1.51,1.55,4.1,4.74,3.23,7.68-.74,2.5-3.81,4.16-9.12,4.92,.59,1.84,2.08,7.44-.72,10.24-2.04,2.05-5.87,2.08-11.36,.08-.99,1.64-5.08,8.06-8.8,8.06Zm-3.81-6.72l.13,.55c.78,3.21,1.92,4.94,3.38,5.15,3.01,.42,7.11-5.56,8.44-7.9l.21-.37,.4,.15c5.3,1.99,8.9,2.09,10.69,.29,2.85-2.85,.31-9.7,.29-9.77l-.22-.59,.63-.08c5.26-.67,8.25-2.12,8.9-4.3,1-3.36-3.86-7.53-3.91-7.57l-1.21-1.03,1.58,.15c7.28,.69,8.05-5.3,8.08-5.56,.7-6.33-5.66-9.59-5.72-9.62l-1.43-.72,1.58-.23c3.65-.52,6.25-1.78,7.71-3.75,1.55-2.09,1.24-4.28,1.24-4.3v-.07s0-.07,0-.07c1.06-7.43-5.29-10.7-5.35-10.73l-.77-.39,.72-.48c5.26-3.51,3.93-8.39,3.92-8.44-.33-1.14-.97-1.97-1.92-2.48-2.41-1.3-6.03-.19-6.07-.17l-1,.31,.38-.97c3.9-9.93,.21-12.88,.17-12.91-4.83-3.1-9.66,1.28-9.86,1.46l-1.27,1.17,.44-1.67c.36-1.34,.55-2.65,.56-3.92,.05-3.3-2.39-6.05-5.67-6.4-3.19-.34-5.81,.77-5.84,.78l-.74,.32,.04-.81c.35-6.33-2.99-8.45-3.13-8.54-6.29-3.49-10.79,1.56-10.98,1.77l-.54,.62-.3-.77c-1.46-3.71-3.39-5.86-5.74-6.38-3.52-.78-6.91,2.4-6.94,2.43l-.19,.18-.25-.05c-11.75-2.2-21.09-.39-21.18-.38l-.54,.11-.05-.55c-.7-7.75-5.76-8.88-5.97-8.93-2.73-.57-5-.26-6.75,.9-2.54,1.69-3.15,4.67-3.15,4.7l-.31,1.6-.64-1.49c-2.07-4.84-6.92-4.21-6.97-4.2-5.39,1.69-3.78,7.74-3.71,7.99l.41,1.49-1.21-.97c-3.18-2.54-5.96-3.55-8.27-2.97-2.59,.64-3.7,3.13-3.71,3.16l-.15,.34-.37-.04c-3.39-.38-5.58,.18-6.5,1.66-1.95,3.14,2.07,9.5,2.11,9.57l.88,1.38-1.5-.65c-8.2-3.56-12.19-.48-12.23-.44-6.28,5.93,2.22,15.3,2.3,15.39l.84,.92-1.24-.08c-4.61-.29-8,.48-9.77,2.23-1.37,1.35-1.32,2.81-1.32,2.87-.71,10.38,10.4,13.29,10.87,13.41l.5,.13-.14,.5c-1.35,4.71-1.1,8.04,.72,9.89,2.37,2.4,6.84,1.67,8.16,1.39l-.12-8.15c0-5.9,2.55-8.41,2.66-8.51l.49-.46,.31,.6c.75,1.46,1.78,2.31,3.15,2.6,3.97,.84,9.28-3.45,9.33-3.5l.86-.7-.05,1.11c-.21,5.06,.78,8.21,2.95,9.36,3.78,2,10.06-2.61,10.12-2.66l1.01-.75-.22,1.24c-1.03,5.83,3.57,7.25,3.77,7.3l.14,.04,.1,.11,30.05,34.56,.03,.09c2.84,8.53,14.39,8.28,14.5,8.28l.62-.02-.11,.61c-.49,2.75-.12,4.66,1.1,5.67,2.35,1.95,7.18,.16,7.22,.14l.53-.2Z" fill="#002346"></path>
    </g>
    <g>
      <ellipse cx="637.5" cy="302.58" rx="26.62" ry="34.11" fill="#0088CC"></ellipse>
      <path d="M637.5,337.19c-14.95,0-27.12-15.53-27.12-34.61s12.16-34.61,27.12-34.61,27.12,15.53,27.12,34.61-12.16,34.61-27.12,34.61Zm0-68.23c-14.4,0-26.12,15.08-26.12,33.61s11.71,33.61,26.12,33.61,26.12-15.08,26.12-33.61-11.71-33.61-26.12-33.61Z" fill="#002346"></path>
    </g>
    <g>
      <ellipse cx="637.31" cy="303.14" rx="21.55" ry="27.93" fill="#fff"></ellipse>
      <path d="M637.31,331.57c-12.16,0-22.05-12.75-22.05-28.43s9.89-28.43,22.05-28.43,22.05,12.75,22.05,28.43-9.89,28.43-22.05,28.43Zm0-55.85c-11.61,0-21.05,12.3-21.05,27.43s9.45,27.43,21.05,27.43,21.05-12.3,21.05-27.43-9.45-27.43-21.05-27.43Z" fill="#002346"></path>
    </g>
    <g>
      <path d="M629.25,263.97h14.24v39.25c0,3.16-2.57,5.73-5.73,5.73h-2.78c-3.16,0-5.73-2.57-5.73-5.73v-39.25h0Z" fill="#0088CC"></path>
      <path d="M637.77,309.45h-2.78c-3.44,0-6.23-2.8-6.23-6.23v-39.75h15.25v39.75c0,3.44-2.8,6.23-6.23,6.23Zm-8.01-44.98v38.75c0,2.89,2.35,5.23,5.23,5.23h2.78c2.88,0,5.23-2.35,5.23-5.23v-38.75h-13.25Z" fill="#002346"></path>
    </g>
    <g>
      <path d="M626.26,256.84h18.74v6.63c0,1.93-1.57,3.5-3.5,3.5h-11.75c-1.93,0-3.5-1.57-3.5-3.5v-6.63h0Z" fill="#fff"></path>
      <path d="M641.5,267.46h-11.75c-2.2,0-4-1.79-4-4v-7.12h19.74v7.12c0,2.2-1.79,4-4,4Zm-14.75-10.12v6.12c0,1.65,1.34,3,3,3h11.75c1.65,0,3-1.34,3-3v-6.12h-17.74Z" fill="#002346"></path>
    </g>
    <g>
      <path d="M632.63,221.61s-11.33,3.89-7.15,35.77c.23,1.77,1.59,3.18,3.34,3.48,3.75,.64,10.4,1.15,15.84-1.72,.36-.19,.63-.51,.78-.89,.51-1.34,1.53-5.18,1.81-14.9,0,0,1.12-18.37,6.75-21.37,0,0-10.12-2.25-21.37-.37Z" fill="#0088CC"></path>
      <path d="M634.53,261.86c-2.27,0-4.31-.25-5.79-.5-1.98-.34-3.49-1.91-3.76-3.91-4.19-31.92,7.01-36.15,7.48-36.31l.08-.02c11.21-1.87,21.46,.36,21.56,.38l1.32,.29-1.19,.64c-5.31,2.83-6.47,20.78-6.48,20.96-.27,9.61-1.27,13.55-1.84,15.05-.19,.5-.55,.91-1.01,1.16-3.32,1.76-7.09,2.27-10.37,2.27Zm-1.77-39.77c-.65,.27-10.74,5.09-6.79,35.22,.2,1.56,1.38,2.79,2.93,3.05,3.49,.6,10.15,1.17,15.52-1.67,.24-.13,.44-.35,.54-.63,.44-1.15,1.5-4.9,1.78-14.73,.04-.73,1.07-16.6,6.01-21.08-2.93-.51-11.15-1.63-20-.16Z" fill="#002346"></path>
    </g>
    <g>
      <path d="M745.98,404.1c-16.06-3.23-32.26,4.68-39.95,19.14-5.34,10.04-12.86,28.29-17.92,57.78l-8.56,53.98c-.71,4.46-2.24,8.75-4.54,12.64-4.17,7.03-10.56,20.24-9.02,33.09,0,0-26.99-3-32.61,1.5,0,0-.75-7.12-14.24-1.5,0,0-3,1.5-8.25-2.62,0,0-5.25-4.12-9,1.12l5.25,.37s16.87,16.87-1.5,46.11c0,0-1.5,2.62,6.75,1.87,0,0,3.37-1.5,8.62,2.62,0,0,5.25,3.75,10.87-.37,0,0,76.1,25.87,92.59-16.12,0,0,30.36-91.84,36.36-126.33,0,0,12.91-58.6-6.38-78.73-2.2-2.3-5.07-3.85-8.19-4.5-.09-.02-.19-.04-.29-.06Z" fill="#0088CC"></path>
      <path d="M678.54,638.21c-2.13,0-4.32-.06-6.58-.2-19.63-1.13-37.7-6.88-40-7.63-5.77,4.04-11.19,.27-11.25,.23-4.92-3.87-8.1-2.59-8.13-2.57l-.15,.04c-4.09,.37-6.43,0-7.17-1.15-.38-.58-.21-1.2-.06-1.47,17.1-27.22,3.18-43.75,1.7-45.38l-5.94-.42,.52-.73c1.17-1.63,2.59-2.58,4.24-2.82,2.88-.42,5.36,1.51,5.47,1.59,4.89,3.84,7.69,2.58,7.72,2.57,5.82-2.43,10.09-2.86,12.71-1.31,1.24,.74,1.8,1.75,2.05,2.44,6.26-3.68,27.71-1.67,31.74-1.25-1.29-12.89,5.15-26.04,9.16-32.79,2.26-3.82,3.77-8.01,4.47-12.46l8.56-53.98c5.06-29.47,12.57-47.77,17.97-57.93,7.79-14.65,24.44-22.63,40.49-19.4l.29,.06c3.27,.68,6.19,2.29,8.45,4.65,19.25,20.09,7.04,76.78,6.51,79.18-5.93,34.11-36.07,125.46-36.38,126.38-6.29,16-22.26,24.34-46.4,24.34Zm-46.75-8.94l.25,.08c.76,.26,75.83,25.23,91.96-15.83,.29-.89,30.41-92.18,36.33-126.23,.13-.61,12.64-58.59-6.25-78.29-2.12-2.21-4.86-3.72-7.93-4.36l-.28-.06c-15.62-3.15-31.82,4.62-39.41,18.88-5.37,10.1-12.83,28.29-17.87,57.63l-8.56,53.98c-.73,4.58-2.27,8.89-4.6,12.81-4,6.75-10.49,19.99-8.95,32.78l.08,.63-.63-.07c-.27-.03-26.85-2.93-32.25,1.39l-.71,.57-.1-.91c0-.06-.2-1.53-1.78-2.46-1.61-.94-4.96-1.47-11.77,1.37-.1,.05-3.32,1.58-8.75-2.69-.02-.02-2.25-1.74-4.72-1.38-1.11,.16-2.11,.73-2.98,1.69l4.48,.32,.13,.13c.17,.17,16.94,17.49-1.43,46.73,0,.01-.1,.21,.05,.43,.19,.28,1.18,1.14,6.16,.69,.59-.22,4.02-1.23,9.05,2.72,.18,.13,5.01,3.47,10.27-.39l.21-.15Z" fill="#002346"></path>
    </g>
    <path d="M672.01,581.39c-3.99,0-6.04-.17-6.06-.17-.28-.02-.48-.26-.46-.54,.02-.27,.27-.48,.54-.46,.03,0,3.05,.25,8.93,.14,2.29-.04,4.57-.23,6.79-.56,2.62-.39,7.63-.85,11.76,.44,.26,.08,.41,.36,.33,.63-.08,.26-.36,.41-.63,.33-3.94-1.23-8.78-.79-11.31-.41-2.26,.34-4.59,.53-6.92,.57-1.08,.02-2.07,.03-2.96,.03Z" fill="#002346"></path>
    <path d="M631.88,630.33c-.12,0-.24-.04-.33-.13-.21-.18-.22-.5-.04-.71,18.63-20.82,1.63-46.74,1.46-47-.15-.23-.09-.54,.14-.69,.23-.15,.54-.09,.69,.14,.18,.27,17.61,26.81-1.54,48.22-.1,.11-.24,.17-.37,.17Z" fill="#002346"></path>
    <g>
      <path d="M436.95,571.73l10.5,16.12s4.95,1.98,3.99-5.92c-.43-3.58-1.85-6.97-3.95-9.91-1.22-1.71-2.34-3.78-1.54-4.78l12,5.62s7.12,5.62,8.25-2.25c0,0-.75-6-5.62-8.62,0,0,7.5,.75,1.5-6.75l7.87,4.87s7.87-5.62-4.5-14.99l7.12,.37s-4.93-4.61-3.78-7.74c0,0-14.97-2.01-17.22,6.61,0,0-.75,2.25,.37,4.87,0,0-13.12,3.37-9.75,14.62,0,0-6.75,1.5-5.25,7.87Z" fill="#f2b3c1"></path>
      <path d="M448.7,588.57c-.78,0-1.39-.24-1.44-.26l-.15-.06-10.65-16.41c-.46-1.95-.23-3.68,.67-5.13,1.25-2,3.45-2.89,4.44-3.21-.79-2.98-.51-5.7,.83-8.07,2.35-4.17,7.24-6.02,8.88-6.53-.89-2.54-.22-4.61-.19-4.71,2.33-8.91,17.13-7.04,17.76-6.95l.62,.08-.21,.58c-.85,2.31,2.34,5.98,3.65,7.2l1,.94-6.92-.36c3.98,3.29,5.97,6.5,5.92,9.55-.05,3.36-2.57,5.2-2.68,5.27l-.27,.19-6.07-3.76c1.03,1.72,1.26,3.06,.72,4.06-.5,.91-1.54,1.28-2.45,1.42,3.83,2.96,4.49,7.89,4.52,8.12v.07s0,.07,0,.07c-.33,2.33-1.22,3.81-2.64,4.37-2.58,1.03-5.91-1.42-6.37-1.76l-11.49-5.39c-.12,.75,.49,2.12,1.71,3.82,2.21,3.1,3.61,6.61,4.04,10.14,.37,3.07-.08,5.12-1.35,6.1-.61,.47-1.29,.6-1.88,.6Zm-.93-1.14c.38,.11,1.42,.34,2.21-.26,.95-.74,1.29-2.53,.96-5.18-.41-3.37-1.74-6.72-3.86-9.68-1.85-2.59-2.35-4.36-1.53-5.39l.25-.31,12.45,5.85s3.25,2.53,5.43,1.66c1.05-.42,1.72-1.6,2.01-3.51-.1-.63-1.03-5.85-5.36-8.18l-2.19-1.18,2.48,.24c.69,.07,2.59,.03,3.12-.95,.5-.93-.23-2.7-2.06-4.98l-1.81-2.26,10.03,6.21c.58-.52,1.98-2.02,2.01-4.28,.03-3.01-2.24-6.27-6.77-9.7l-1.3-.98,7.47,.39c-1.31-1.45-3.54-4.31-3.16-6.74-2.7-.25-14.23-.87-16.11,6.3-.02,.05-.68,2.15,.35,4.55l.23,.54-.56,.15c-.06,.02-6.22,1.65-8.79,6.22-1.27,2.25-1.47,4.87-.6,7.77l.15,.51-.52,.12s-2.93,.68-4.33,2.91c-.75,1.19-.93,2.63-.56,4.28l10.35,15.9Z" fill="#002346"></path>
    </g>
    <path d="M460.57,562.48c-.09,0-.19-.03-.27-.08l-8.25-5.25c-.23-.15-.3-.46-.15-.69,.15-.23,.46-.3,.69-.15l8.25,5.25c.23,.15,.3,.46,.15,.69-.1,.15-.26,.23-.42,.23Z" fill="#002346"></path>
    <path d="M462.04,555.77c-.09,0-.17-.02-.25-.07l-10.08-6.07c-.24-.14-.31-.45-.17-.69,.14-.24,.45-.31,.69-.17l10.08,6.07c.24,.14,.31,.45,.17,.69-.09,.16-.26,.24-.43,.24Z" fill="#002346"></path>
    <path d="M466.43,546.39c-.1,0-.2-.03-.28-.09l-5.49-3.78c-.23-.16-.29-.47-.13-.7,.16-.23,.47-.28,.7-.13l5.49,3.78c.23,.16,.29,.47,.13,.7-.1,.14-.25,.22-.41,.22Z" fill="#002346"></path>
    <path d="M445.95,567.73c-.12,0-.24-.04-.33-.13l-3.75-3.37c-.21-.18-.22-.5-.04-.71,.19-.21,.5-.22,.71-.04l3.75,3.37c.21,.18,.22,.5,.04,.71-.1,.11-.24,.17-.37,.17Z" fill="#2f2e41"></path>
    <g>
      <path d="M548.28,338.19c0,23.92-7.8,43.62-17.82,46.2-.73,.19-1.48,.28-2.23,.28-11.08,0-20.06-20.81-20.06-46.48s8.98-46.48,20.06-46.48c1.15,0,2.29,.22,3.39,.66,9.46,3.73,16.67,22.83,16.67,45.82Z" fill="#fff"></path>
      <path d="M528.23,385.17c-11.33,0-20.55-21.08-20.55-46.98s9.22-46.98,20.55-46.98c1.2,0,2.4,.23,3.57,.69,9.84,3.88,16.98,23.35,16.98,46.29s-7.82,44.02-18.2,46.68c-.78,.2-1.57,.3-2.36,.3Zm0-92.97c-10.78,0-19.55,20.63-19.55,45.98s8.77,45.98,19.55,45.98c.7,0,1.41-.09,2.11-.27,9.95-2.55,17.45-22.21,17.45-45.71s-6.88-41.62-16.35-45.36c-1.05-.41-2.13-.62-3.21-.62Z" fill="#002346"></path>
    </g>
    <g>
      <path d="M553.91,338.56c0,25.67-8.98,46.48-20.06,46.48-1.15,0-2.29-.22-3.39-.66,10.02-2.58,17.82-22.28,17.82-46.2s-7.2-42.09-16.67-45.82c.73-.19,1.48-.28,2.23-.28,11.08,0,20.06,20.81,20.06,46.48Z" fill="#002346"></path>
      <path d="M533.85,385.55c-1.2,0-2.4-.23-3.57-.69l-1.43-.57,1.49-.38c9.95-2.55,17.45-22.21,17.45-45.71s-6.88-41.62-16.35-45.36l-1.44-.57,1.5-.38c.78-.2,1.58-.3,2.36-.3,11.33,0,20.56,21.08,20.56,46.98s-9.22,46.98-20.56,46.98Zm-1.76-1.19c.59,.13,1.18,.19,1.76,.19,10.78,0,19.56-20.63,19.56-45.98s-9.1-46.75-20.14-45.96c9.08,5.15,15.52,23.8,15.52,45.59s-7.08,42.05-16.7,46.17Z" fill="#002346"></path>
    </g>
    <g>
      <ellipse cx="527.1" cy="339.31" rx="15.56" ry="41.61" fill="#fff"></ellipse>
      <path d="M527.1,381.42c-9,0-16.06-18.5-16.06-42.11s7.05-42.11,16.06-42.11,16.06,18.5,16.06,42.11-7.05,42.11-16.06,42.11Zm0-83.22c-8.3,0-15.06,18.44-15.06,41.11s6.75,41.11,15.06,41.11,15.06-18.44,15.06-41.11-6.75-41.11-15.06-41.11Z" fill="#002346"></path>
    </g>
    <g>
      <path d="M454.19,409.04h7.87v42.92c0,2.17-1.76,3.94-3.94,3.94h0c-2.17,0-3.94-1.76-3.94-3.94v-42.92h0Z" transform="translate(32.11 -31.66) rotate(4.1)" fill="#fff"></path>
      <path d="M456.74,456.35c-.11,0-.22,0-.33-.01-2.44-.17-4.28-2.3-4.11-4.74l3.11-43.31,8.85,.64-.04,.5-3.07,42.81c-.08,1.18-.62,2.26-1.52,3.04-.81,.7-1.83,1.08-2.9,1.08Zm-.4-47l-3.03,42.31c-.14,1.89,1.29,3.54,3.18,3.67h0c.92,.06,1.8-.23,2.5-.83,.69-.6,1.11-1.44,1.18-2.35l3.04-42.31-6.86-.49Z" fill="#002346"></path>
    </g>
    <g>
      <path d="M210.83,459.75l17.32,.64,6.75-10.5s3.75-5.25,8.25-3.37c0,0,4.87-5.25,13.12-.37l9.46,6.36-1.64,24.53-6.33-3.15s.37,5.62-9,1.87l-6.95-3.33c-.96-.46-2.11-.14-2.69,.74l-2.78,4.18c-1.37,2.05-3.67,3.3-6.13,3.33l-29.88,.33s-1.18-15.9,10.51-21.26Z" fill="#f2b3c1"></path>
      <path d="M199.86,481.52l-.03-.47c-.01-.16-1.07-16.31,10.8-21.75l.11-.05,17.15,.63,6.59-10.26c.17-.24,3.89-5.34,8.55-3.68,1.14-1,6.05-4.62,13.49-.23l9.72,6.54-1.7,25.56-6.34-3.16c-.12,.63-.45,1.49-1.31,2.12-1.63,1.18-4.42,.99-8.3-.56l-6.98-3.34c-.73-.35-1.61-.1-2.06,.57l-2.78,4.18c-1.46,2.19-3.91,3.52-6.54,3.55l-30.35,.34Zm11.08-21.26c-10.02,4.68-10.2,17.62-10.13,20.25l29.4-.32c2.31-.03,4.44-1.19,5.72-3.1l2.78-4.18c.72-1.08,2.15-1.48,3.33-.91l6.95,3.33c4.37,1.75,6.39,1.33,7.3,.67,1.04-.75,.98-2.01,.98-2.06l-.05-.86,6.42,3.2,1.57-23.49-9.22-6.2c-7.79-4.6-12.43,.25-12.47,.3l-.24,.26-.32-.13c-4.07-1.7-7.61,3.15-7.65,3.2l-6.89,10.72-17.48-.65Z" fill="#002346"></path>
    </g>
    <path d="M224.4,468.02c-.08,0-.16-.02-.23-.06-.24-.13-.34-.43-.21-.68l3.75-7.12c.13-.24,.43-.34,.68-.21,.24,.13,.34,.43,.21,.68l-3.75,7.12c-.09,.17-.26,.27-.44,.27Z" fill="#002346"></path>
    <path d="M257.76,474.39c-.1,0-.21-.03-.3-.1l-9-6.75c-7.94-6.14-14.14-4.8-14.21-4.79-.27,.06-.54-.11-.6-.37-.06-.27,.1-.54,.37-.6,.27-.06,6.7-1.48,15.04,4.96l8.99,6.74c.22,.17,.27,.48,.1,.7-.1,.13-.25,.2-.4,.2Z" fill="#002346"></path>
    <path d="M264.56,470.07c-.13,0-.26-.05-.36-.15l-6.16-6.27c-.89-.9-1.89-1.68-2.98-2.32l-15.55-9.12c-.24-.14-.32-.45-.18-.68,.14-.24,.45-.32,.68-.18l15.55,9.12c1.16,.68,2.23,1.52,3.18,2.48l6.16,6.27c.19,.2,.19,.51,0,.71-.1,.1-.22,.14-.35,.14Z" fill="#002346"></path>
    <path d="M264.79,460.96c-.13,0-.26-.05-.36-.15l-2.97-3.07c-.92-.95-1.97-1.75-3.13-2.38l-15.43-8.38c-.24-.13-.33-.44-.2-.68,.13-.24,.44-.33,.68-.2l15.43,8.38c1.25,.68,2.39,1.54,3.38,2.57l2.97,3.07c.19,.2,.19,.52-.01,.71-.1,.09-.22,.14-.35,.14Z" fill="#002346"></path>
    <path d="M417.51,543.46c-.18,0-.36-.1-.45-.28-4.12-8.25-.24-19.15-.07-19.61,2.12-8.47,1.17-21.27,1.1-22.22-5.94-18.65-.42-40.12-.36-40.34l7.5-28.49c8.49-29.89,2.31-56.47,2.25-56.74-.06-.27,.1-.54,.37-.6,.27-.06,.54,.1,.6,.37,.06,.27,6.3,27.09-2.25,57.23l-7.5,28.48c-.06,.21-5.51,21.45,.37,39.83,.01,.04,.02,.07,.02,.11,.01,.14,1.11,13.68-1.14,22.65-.05,.16-3.92,11.02,.01,18.87,.12,.25,.02,.55-.22,.67-.07,.04-.15,.05-.22,.05Z" fill="#002346"></path>
    <path d="M444.21,465.48c-4.7,0-7.54-3.88-7.66-4.05-9.62-13.05,8.05-39.15,11.69-44.26,.86-1.21,1.56-2.33,2.12-3.42,6.94-13.49-3.79-20.4-4.25-20.69-.23-.15-.31-.45-.16-.69,.15-.23,.45-.31,.69-.16,.12,.07,11.98,7.67,4.61,21.99-.58,1.14-1.3,2.29-2.19,3.54-3.57,5-20.9,30.59-11.69,43.09,.03,.04,2.72,3.71,6.99,3.63,3.85-.07,7.78-3.07,11.69-8.92,.15-.23,.46-.29,.69-.14,.23,.15,.29,.46,.14,.69-4.11,6.14-8.32,9.3-12.52,9.37-.05,0-.1,0-.15,0Z" fill="#002346"></path>
    <g>
      <rect x="415.96" y="355.38" width="3.37" height="27.74" transform="translate(-23.73 28.72) rotate(-3.83)" fill="#fff"></rect>
      <path d="M416.42,383.74l-1.92-28.68,4.36-.29,1.92,28.68-4.36,.29Zm-.85-27.75l1.79,26.68,2.37-.16-1.79-26.68-2.37,.16Z" fill="#002346"></path>
    </g>
    <g>
      <circle cx="416.14" cy="353.75" r="4.31" fill="#002346"></circle>
      <path d="M416.14,358.56c-2.65,0-4.81-2.16-4.81-4.81s2.16-4.81,4.81-4.81,4.81,2.16,4.81,4.81-2.16,4.81-4.81,4.81Zm0-8.62c-2.1,0-3.81,1.71-3.81,3.81s1.71,3.81,3.81,3.81,3.81-1.71,3.81-3.81-1.71-3.81-3.81-3.81Z" fill="#002346"></path>
    </g>
    <g>
      <rect x="429.99" y="343.46" width="7.02" height="68.26" rx="3.51" ry="3.51" transform="translate(-130.72 267.34) rotate(-30)" fill="#fff"></rect>
      <path d="M448.82,408.12c-1.39,0-2.74-.72-3.48-2l-30.62-53.04c-.54-.93-.68-2.01-.4-3.04,.28-1.03,.94-1.9,1.87-2.43,.93-.54,2.01-.68,3.04-.4,1.03,.28,1.9,.94,2.43,1.87l30.62,53.04c.54,.93,.68,2.01,.4,3.04s-.94,1.9-1.87,2.43h0c-.63,.36-1.32,.54-2,.54Zm-30.64-60.06c-.52,0-1.04,.14-1.5,.4-.7,.4-1.19,1.05-1.4,1.83-.21,.78-.1,1.59,.3,2.28l30.62,53.04c.83,1.44,2.67,1.93,4.11,1.1h0c.7-.4,1.19-1.05,1.4-1.83s.1-1.59-.3-2.28l-30.62-53.04c-.4-.7-1.05-1.19-1.83-1.4-.26-.07-.52-.1-.78-.1Z" fill="#002346"></path>
    </g>
    <g>
      <rect x="419.18" y="379.53" width="8.98" height="153.18" rx="4.49" ry="4.49" transform="translate(-26.44 26.07) rotate(-3.42)" fill="#0088CC"></rect>
      <path d="M427.96,533.08c-1.22,0-2.38-.44-3.31-1.26-1-.88-1.59-2.11-1.67-3.44l-8.6-143.94c-.16-2.75,1.94-5.12,4.68-5.28,1.35-.08,2.61,.36,3.61,1.25,1,.88,1.59,2.1,1.67,3.44l8.6,143.94c.08,1.33-.36,2.61-1.25,3.61-.88,1-2.11,1.59-3.44,1.67h0c-.1,0-.2,0-.3,0Zm-8.58-152.92c-.08,0-.16,0-.24,0-2.2,.13-3.88,2.03-3.75,4.22l8.6,143.94c.06,1.06,.54,2.04,1.33,2.75,.8,.71,1.83,1.06,2.89,1,1.06-.06,2.04-.54,2.75-1.34,.71-.8,1.06-1.82,1-2.89l-8.6-143.94c-.06-1.06-.54-2.04-1.33-2.75-.74-.65-1.67-1.01-2.64-1.01Z" fill="#002346"></path>
    </g>
    <g>
      <path d="M457.22,315.62h13.37c2.92,0,5.28,2.37,5.28,5.28v34.13h-23.94v-34.13c0-2.92,2.37-5.28,5.28-5.28Z" transform="translate(19.73 -25.73) rotate(3.25)" fill="#fff"></path>
      <path d="M475.21,356.21l-24.9-1.41,1.96-34.58c.09-1.54,.77-2.96,1.92-3.99,1.15-1.03,2.65-1.54,4.18-1.46l13.35,.76c3.18,.18,5.63,2.92,5.45,6.1l-1.96,34.58Zm-23.84-2.35l22.9,1.3,1.91-33.58c.07-1.28-.36-2.5-1.21-3.46-.85-.95-2.02-1.52-3.3-1.59l-13.35-.76c-1.28-.07-2.5,.36-3.46,1.21s-1.52,2.02-1.59,3.3l-1.91,33.58Z" fill="#002346"></path>
    </g>
    <g>
      <path d="M451.98,347.83h19.58c2.55,0,4.63,2.07,4.63,4.63v46.95c0,7.81-6.34,14.15-14.15,14.15h-.53c-7.81,0-14.15-6.34-14.15-14.15v-46.95c0-2.55,2.07-4.63,4.63-4.63Z" transform="translate(20.05 -23.1) rotate(2.93)" fill="#f39c12"></path>
      <path d="M461.1,414.05c-.25,0-.51,0-.77-.02l-.53-.03c-3.91-.2-7.51-1.91-10.13-4.82s-3.96-6.66-3.76-10.57l2.4-46.89c.07-1.37,.67-2.63,1.68-3.54,1.02-.92,2.32-1.38,3.7-1.31l19.56,1c2.82,.14,5,2.56,4.86,5.38l-2.4,46.89c-.2,3.91-1.91,7.51-4.81,10.13-2.71,2.45-6.17,3.78-9.8,3.78Zm-.71-1.02c7.5,.38,13.95-5.42,14.33-12.94l2.4-46.89c.12-2.27-1.64-4.21-3.91-4.33l-19.56-1c-1.11-.06-2.16,.32-2.98,1.06-.82,.74-1.3,1.75-1.36,2.85l-2.4,46.89c-.38,7.52,5.42,13.95,12.94,14.33l.53,.03Z" fill="#002346"></path>
    </g>
    <g>
      <rect x="117.22" y="317.08" width="5.65" height="72.34" rx="2.83" ry="2.83" transform="translate(-152.81 98.8) rotate(-28.23)" fill="#fff"></rect>
      <path d="M135.82,385.96c-1.19,0-2.34-.64-2.94-1.75l-31.54-58.76c-.42-.78-.51-1.68-.25-2.53,.26-.85,.83-1.55,1.61-1.97,.78-.42,1.68-.51,2.53-.25,.85,.26,1.55,.83,1.97,1.61l31.55,58.76c.87,1.62,.26,3.64-1.36,4.5h0c-.5,.27-1.04,.4-1.57,.4Zm-31.55-64.41c-.38,0-.75,.09-1.1,.28-.55,.29-.95,.78-1.13,1.38-.18,.6-.12,1.22,.18,1.77l31.54,58.76c.61,1.13,2.02,1.56,3.15,.95h0c1.13-.61,1.56-2.02,.95-3.15l-31.55-58.76c-.29-.55-.78-.95-1.38-1.13-.22-.07-.45-.1-.67-.1Z" fill="#002346"></path>
    </g>
    <g>
      <rect x="101.06" y="345.68" width="8.26" height="113.21" rx="4.13" ry="4.13" transform="translate(-8.29 2.26) rotate(-1.18)" fill="#f1f2f2"></rect>
      <path d="M106.27,459.38c-2.51,0-4.58-2.01-4.63-4.54l-2.17-104.92c-.05-2.55,1.98-4.67,4.53-4.73,2.58-.01,4.67,1.98,4.73,4.53l2.17,104.92c.03,1.24-.43,2.41-1.29,3.3-.86,.89-2.01,1.4-3.25,1.42h0s-.06,0-.1,0Zm-2.17-113.19s-.05,0-.08,0c-2,.04-3.6,1.7-3.56,3.71l2.17,104.92c.04,2,1.69,3.58,3.71,3.56,.97-.02,1.87-.42,2.54-1.12s1.03-1.62,1.01-2.59l-2.17-104.92c-.04-1.98-1.66-3.56-3.63-3.56Z" fill="#002346"></path>
    </g>
    <g>
      <path d="M189.91,384.3h10.5v5.62c0,2.9-2.35,5.25-5.25,5.25h0c-2.9,0-5.25-2.35-5.25-5.25v-5.62h0Z" transform="translate(129.36 -41.14) rotate(17.92)" fill="#002346"></path>
      <path d="M195.1,395.66c-.58,0-1.18-.09-1.76-.28h0c-3.02-.98-4.68-4.22-3.7-7.24l1.88-5.83,10.94,3.54-1.88,5.83c-.79,2.43-3.05,3.98-5.47,3.98Zm-2.94-12.08l-1.58,4.87c-.39,1.21-.29,2.49,.29,3.62,.58,1.13,1.56,1.97,2.77,2.36h0c2.49,.81,5.17-.57,5.98-3.06l1.58-4.87-9.04-2.92Z" fill="#002346"></path>
    </g>
    <g>
      <ellipse cx="210.07" cy="351.68" rx="34.2" ry="32.99" fill="#002346"></ellipse>
      <path d="M210.07,385.17c-19.13,0-34.7-15.02-34.7-33.49s15.57-33.49,34.7-33.49,34.7,15.02,34.7,33.49-15.57,33.49-34.7,33.49Zm0-65.98c-18.58,0-33.7,14.57-33.7,32.49s15.12,32.49,33.7,32.49,33.7-14.57,33.7-32.49-15.12-32.49-33.7-32.49Z" fill="#002346"></path>
    </g>
    <g>
      <ellipse cx="207.82" cy="355.06" rx="34.2" ry="32.99" fill="#fff"></ellipse>
      <path d="M207.82,388.55c-19.13,0-34.7-15.02-34.7-33.49s15.57-33.49,34.7-33.49,34.7,15.02,34.7,33.49-15.57,33.49-34.7,33.49Zm0-65.98c-18.58,0-33.7,14.57-33.7,32.49s15.12,32.49,33.7,32.49,33.7-14.57,33.7-32.49-15.12-32.49-33.7-32.49Z" fill="#002346"></path>
    </g>
    <g>
      <ellipse cx="208.28" cy="354.68" rx="29.99" ry="28.86" fill="#fff"></ellipse>
      <path d="M208.28,384.05c-16.81,0-30.49-13.17-30.49-29.36s13.68-29.36,30.49-29.36,30.49,13.17,30.49,29.36-13.68,29.36-30.49,29.36Zm0-57.73c-16.26,0-29.49,12.72-29.49,28.36s13.23,28.36,29.49,28.36,29.49-12.72,29.49-28.36-13.23-28.36-29.49-28.36Z" fill="#002346"></path>
    </g>
    <path d="M168.73,408.66c-.05,0-.11,0-.16,0-11.98-.08-20.06-9.09-20.14-9.18-.18-.21-.16-.52,.04-.71,.21-.18,.52-.16,.71,.04,.08,.09,7.88,8.77,19.41,8.84,8.36,0,16.63-4.35,24.54-13.09,.19-.21,.5-.22,.71-.04,.21,.19,.22,.5,.04,.71-8.06,8.9-16.52,13.42-25.13,13.42Z" fill="#002346"></path>
    <g>
      <path d="M141.93,393.29h6v35.61c0,1.66-1.34,3-3,3h0c-1.66,0-3-1.34-3-3v-35.61h0Z" transform="translate(36.31 -11.01) rotate(4.97)" fill="#fff"></path>
      <path d="M143.52,432.34c-.1,0-.2,0-.31-.01-1.92-.17-3.35-1.87-3.18-3.79l3.13-35.98,6.97,.61-3.13,35.98c-.16,1.82-1.69,3.2-3.48,3.2Zm.55-38.7l-3.04,34.98c-.12,1.37,.9,2.59,2.27,2.71,1.37,.12,2.59-.9,2.71-2.27l3.04-34.98-4.98-.43Z" fill="#002346"></path>
    </g>
    <g>
      <path d="M145.26,319.44h10.94c2.25,0,4.08,1.83,4.08,4.08v29.67h-19.1v-29.67c0-2.25,1.83-4.08,4.08-4.08Z" transform="translate(13.92 -5.9) rotate(2.35)" fill="#fff"></path>
      <path d="M160.06,354.09l-20.08-.82,1.24-30.15c.1-2.52,2.24-4.5,4.77-4.39l10.93,.45c2.52,.1,4.49,2.24,4.39,4.77l-1.24,30.15Zm-19.04-1.78l18.09,.74,1.2-29.15c.08-1.97-1.46-3.65-3.43-3.73l-10.93-.45c-1.98-.07-3.65,1.46-3.73,3.43l-1.2,29.15Z" fill="#002346"></path>
    </g>
    <path d="M160.58,327.35s-.02,0-.04,0l-19.03-1.4c-.28-.02-.48-.26-.46-.54,.02-.28,.26-.48,.54-.46l19.03,1.4c.28,.02,.48,.26,.46,.54-.02,.26-.24,.46-.5,.46Z" fill="#002346"></path>
    <g>
      <path d="M141.08,345.9h14.89c3.04,0,5.5,2.46,5.5,5.5v35.16c0,7.15-5.8,12.95-12.95,12.95h0c-7.15,0-12.95-5.8-12.95-12.95v-35.16c0-3.04,2.46-5.5,5.5-5.5Z" transform="translate(26.19 -9.4) rotate(3.97)" fill="#f1f2f2"></path>
      <path d="M147.58,399.97c-.32,0-.63-.01-.95-.03-3.58-.25-6.86-1.88-9.21-4.59-2.36-2.71-3.52-6.18-3.27-9.76l2.44-35.07c.23-3.3,3.11-5.79,6.4-5.57l14.86,1.03c1.6,.11,3.06,.84,4.11,2.05,1.05,1.21,1.57,2.76,1.46,4.35l-2.44,35.07c-.25,3.58-1.88,6.85-4.59,9.21-2.47,2.15-5.57,3.3-8.81,3.3Zm-5.02-54.04c-1.21,0-2.36,.43-3.27,1.23-1.01,.88-1.61,2.09-1.71,3.43l-2.44,35.07c-.23,3.32,.84,6.52,3.03,9.03,2.18,2.51,5.21,4.02,8.53,4.25,3.31,.23,6.52-.84,9.03-3.03,2.51-2.18,4.02-5.21,4.25-8.53l2.44-35.07c.09-1.33-.34-2.62-1.22-3.63-.88-1.01-2.09-1.61-3.43-1.71l-14.86-1.03c-.12,0-.24-.01-.35-.01Z" fill="#002346"></path>
    </g>
    <path d="M476.44,324.4s-.01,0-.02,0l-23.74-1.08c-.28-.01-.49-.25-.48-.52,.01-.27,.21-.5,.52-.48l23.74,1.08c.28,.01,.49,.25,.48,.52-.01,.27-.23,.48-.5,.48Z" fill="#002346"></path>
  </g>
  <path d="M478.98,260.21h-153V48.21h153v212Zm-152-1h151V49.21h-151v210Z" fill="#002346"></path>
  <path d="M345.15,260.65l-.54-.84c26.6-17.11,31.28-63.13,32.06-82.12,.42-10.22,1.38-19.45,2.95-28.22,8.04-44.92,27.77-69.85,42.9-82.85,16.42-14.11,31.16-17.63,31.31-17.67l.22,.97c-.14,.03-14.69,3.52-30.92,17.49-14.99,12.9-34.53,37.64-42.52,82.23-1.56,8.72-2.52,17.91-2.94,28.08-.78,19.14-5.52,65.55-32.51,82.92Z" fill="#002346"></path>
  <path d="M466.98,256.21c-36.39,0-66-29.61-66-66s29.61-66,66-66c3.89,0,7.79,.34,11.59,1.01l-.17,.98c-3.74-.66-7.58-1-11.41-1-35.84,0-65,29.16-65,65s29.16,65,65,65c4.02,0,8.05-.37,11.97-1.1l.18,.98c-3.98,.74-8.07,1.12-12.15,1.12Z" fill="#002346"></path>
  <path d="M327.27,138.32l-.41-.91c23.16-10.53,38.12-33.77,38.12-59.2,0-10.3-2.34-20.15-6.95-29.28l.89-.45c4.68,9.27,7.06,19.27,7.06,29.73,0,25.82-15.19,49.42-38.71,60.11Z" fill="#002346"></path>
  <path d="M438.48,204.21c-12.41,0-22.5-7.4-22.5-16.5s10.09-16.5,22.5-16.5,22.5,7.4,22.5,16.5-10.09,16.5-22.5,16.5Zm0-32c-11.86,0-21.5,6.95-21.5,15.5s9.64,15.5,21.5,15.5,21.5-6.95,21.5-15.5-9.64-15.5-21.5-15.5Z" fill="#002346"></path>
  <path d="M437.98,194.21c-4.96,0-9-2.69-9-6s4.04-6,9-6,9,2.69,9,6-4.04,6-9,6Zm0-11c-4.41,0-8,2.24-8,5s3.59,5,8,5,8-2.24,8-5-3.59-5-8-5Z" fill="#002346"></path>
  <path d="M445.48,110.21c-12.41,0-22.5-7.4-22.5-16.5s10.09-16.5,22.5-16.5,22.5,7.4,22.5,16.5-10.09,16.5-22.5,16.5Zm0-32c-11.86,0-21.5,6.95-21.5,15.5s9.64,15.5,21.5,15.5,21.5-6.95,21.5-15.5-9.64-15.5-21.5-15.5Z" fill="#002346"></path>
  <path d="M444.98,100.21c-4.96,0-9-2.69-9-6s4.04-6,9-6,9,2.69,9,6-4.04,6-9,6Zm0-11c-4.41,0-8,2.24-8,5s3.59,5,8,5,8-2.24,8-5-3.59-5-8-5Z" fill="#002346"></path>
  <path d="M350.48,216.21c-9.1,0-16.5-10.09-16.5-22.5s7.4-22.5,16.5-22.5,16.5,10.09,16.5,22.5-7.4,22.5-16.5,22.5Zm0-44c-8.55,0-15.5,9.65-15.5,21.5s6.95,21.5,15.5,21.5,15.5-9.65,15.5-21.5-6.95-21.5-15.5-21.5Z" fill="#002346"></path>
  <path d="M350.98,203.21c-3.31,0-6-4.04-6-9s2.69-9,6-9,6,4.04,6,9-2.69,9-6,9Zm0-17c-2.76,0-5,3.59-5,8s2.24,8,5,8,5-3.59,5-8-2.24-8-5-8Z" fill="#002346"></path>
</svg>
