<?xml version="1.0" encoding="UTF-8"?>
<svg xmlns="http://www.w3.org/2000/svg" id="a" width="865.76" height="682.89" viewBox="0 0 865.76 682.89">
  <g>
    <rect x="103.92" y="520.04" width="691.75" height="105.93" fill="#e6e7e8"></rect>
    <path d="M796.17,626.47H103.42v-106.93H796.17v106.93Zm-691.75-1H795.17v-104.93H104.42v104.93Z" fill="#002346"></path>
  </g>
  <g>
    <path d="M211.43,56.92c241.64,4.13,241.61,363.57,0,367.66-241.64-4.13-241.6-363.57,0-367.66Z" fill="#fff"></path>
    <path d="M211.43,425.08c-56.2-.96-103.32-21.29-136.3-58.78-29.29-33.31-45.42-77.9-45.42-125.56,0-47.66,16.14-92.25,45.44-125.55,32.98-37.49,80.1-57.81,136.28-58.76h.02c56.18,.96,103.31,21.29,136.29,58.78,29.29,33.31,45.43,77.9,45.42,125.56,0,47.66-16.14,92.25-45.44,125.55-32.98,37.49-80.1,57.81-136.28,58.76Zm0-367.66C87.27,59.52,30.71,153.92,30.71,240.73c0,86.82,56.54,181.22,180.72,183.34,124.15-2.1,180.71-96.5,180.72-183.31,0-86.81-56.55-181.21-180.72-183.34h0Z" fill="#002346"></path>
  </g>
  <g opacity=".3">
    <path d="M190.54,60.01c-1.51-.26-5.32,1.59-.81,.63,.96-.28,.95-.51,.81-.63Z" fill="#a7a9ac"></path>
    <path d="M187.69,58.58c.28-.04,.56-.12,.82-.22-.41,.05-1.08-.05-1.36,.25,.18,.03,.36,.02,.54-.03Z" fill="#a7a9ac"></path>
    <path d="M193.44,57.9c1.1,.1,2-.12,3.14-.31-1.56,0-4.03,.18-5.87,.45,.79,.06,1.96-.09,2.73-.14Z" fill="#a7a9ac"></path>
    <path d="M190.17,58.5h0c.79-.19,1.61-.02,2.4-.21-2.15-.07-4.3,.19-6.37,.79,1.32-.02,2.63-.13,3.93-.35,0-.08,0-.16,.04-.23Z" fill="#a7a9ac"></path>
    <path d="M193.1,59.24c.34-.12,.89-.41,1.24-.52,.13,0,.14,0,.14-.08-.61,0-1.44,.18-2.08,.43h0q.08,0-.29,.33c.33-.03,.66-.09,.99-.16Z" fill="#a7a9ac"></path>
    <path d="M184.25,61.94c-.88-.07-1.75,.18-2.58,.47h0c.69-.04,2.32,.04,2.58-.47Z" fill="#a7a9ac"></path>
    <path d="M184.5,65.27c-2.01-.71-4.8-.61-6.89,.07h0c1.98,.82-1.63,1.57-2.44,1.62,0-.51,.67-.47,.83-.87-3.69,.25-1.83,.83-2.9,3.2,.29,.64,5.21-.32,6.71-1.06,1.66-1.21,1.37-1.71-.5-1.6,1.74-.42,3.58-.45,5.19-1.36Z" fill="#a7a9ac"></path>
    <path d="M172.84,61.01c2.05-.17,4-.9,6-1.15-.77,.12-1.53,.3-2.26,.56,.31-.09,7.74-1.29,7.76-1.53-4.73,.49-9.42,1.43-14.05,2.53,.93,.21,1.75-.32,2.64-.43l-.09,.02Z" fill="#a7a9ac"></path>
    <path d="M168.44,73.55c-1.3,.47-5.06,1.68-5.8,1.91h0c.3,.15,1.29,.14,1.3,.33,.53,1.65,3.63,.99,5.01,.6,.53-.98,.18-2.21-.51-2.84Z" fill="#a7a9ac"></path>
    <path d="M175.42,64.54c-1.08-.24-2.23-.06-3.24,.39h0c.14,0,.28,.04,.39,.13,.24,.11-.94,.79-.4,.82,.68-.17,3.47-.81,3.25-1.34Z" fill="#a7a9ac"></path>
    <path d="M301.7,103.01c-1.36-2.92-3.49-5.55-2.66-9.01-.31-3.15,4.1-1.56,.39-5.28-5.14-6.1-5.15-6.21-5.4-7.27l.19-.22h.38c-1.24-2.51-5.57-2.4-5.28-6.23l-.53-.55,.32-.49h.3c-2.94-1.36-4.61-2.03-7.41-2.49-3.64-2.09-11.55-5.53-15.13-5.73-1.68-.57-3.4-.99-5.15-1.25h0c.86,.32,1.68,.72,2.46,1.2-5.52-2.31-13.33-3.3-19.52-2.9q.23,.24,1.39,.64c-3.89,1.35-8.21-.16-12.23,.36-2.49,1.69,1.5,3.92,1.56,3.93,10.85,2.94,10.94,3.09,11.46,4,0,0,3,7.27,.39,9.68-1.95,1.6-.84,1.38-.43,2.81,0,1-.63,1.77-.45,2.79,1.51,.16,3.14-.9,4.54,.43,2.4,2.25,.28,4.08,.25,4.09-1.64,1-3.74,.17-5.33,1.39-1.25,1.13-2.07,2.66-2.31,4.32,0,.73,3.31,17.62,6.81,20.35,9.23,5.37,9.52,5.21,10.4,4.72,1.46-.81,6.42-9.22,6.48-9.3,1.3-2.81,.38-4.96,5.15-4.33q8.63,.39,9.34-1c.47-5.78,21.51,.56,20.02-4.66Z" fill="#a7a9ac"></path>
    <path d="M199.75,84.23c1.98-2.24-1.64-2-3.26-.97-.71,4.21,1.59,2.92,3.26,.97Z" fill="#a7a9ac"></path>
    <path d="M226.92,58.01h-1.75c1.75,.2,7.48,.6,8.36,.66-3.86,.21-7.76-.63-11.56-.44-.32,.6-.8,1.08-1.4,1.4-1.39-1-6.28-.1-6.49,0,.31,.28,.76,.36,1,.69l-.11,.16c.89,.17,1.8,.21,2.7,.12-3.55,.59-3.76,.07-3.9-.26-2.28-.74-2.71,.07-2.91,.47-1.59,.39-3.29-.11-4.82,.61v.2c2.81,1.26,5.96-.08,8.69,1.28q-.26,.29-.76,.46c1.18,.7,5.94,.15,5.93-1l-.42-.26c2.13-1.3,10.22-.66,10.24-1.81-.05-.05-.11-.09-.17-.12,3.68,.29,5.35,.43,6.64,.11-.28-.14-.58-.21-.89-.22l8.89,.33c-2.06-.42-2.17-.45-2.94-.66,2.06,.17,4.09,.56,6.15,.74-5.48-1.66-8.32-2.17-14.63-2.67,.05,.12,.12,.24,.21,.33-1.49-.46-7.63-1.47-9.63-.76,.52,.31,.59,.36,3.57,.64Z" fill="#a7a9ac"></path>
    <path d="M193.05,60.31c-.56,.52-1.27,.84-2.01,1.01,.15-.19,.59-.6,.68-.82-.54-.15-1.12-.06-1.6,.24h.21s0,.05,0,.07c-.99,.2-1.99,.3-3,.31,.11,.11,.29,0,.4,.13-.44,.49-.24,.22,2.59,.38-1.28,.12-2.53,.46-3.69,1h0c1.31,.09,4.48-.05,5.83-.98,0,.09-.03,.18-.09,.24h0c1.19-.61,2.88-1.07,4.01-1.62-.1-.14-2.78-.19-3.28-.16l-.05,.2Z" fill="#a7a9ac"></path>
    <path d="M212.75,89.01c4.61,4.11,1.01,11.81,10.27,.92l-10.48-6.58c1.49-.67,5.24-.19,6.14-1.02-.19-2.6-3.43-7.18-6.81-8.2-.56-4.67-6.04-2.56-9.38-3.13,.06-1.13,.32-2.25,.76-3.29-4.14-3.26-19.77,2.72-19.19,5.5,1.46,1.98,8.47,2.94,9.5,2.79-.39-1.73,6.19,.92,6.55-.48,1.59,1.76,1.98,3.94,2.46,6.16,.57,1.53,2.87,2.18,2.15,4.36,0,0-2.22,4.7-9.66,4.36-2.42,.13-7.46-2.53-8.05,1.22,3.05,2.33,7.74-1.13,12.47,4.9q-.54,.28-2.79,.32c.73,1.31,8.36,5.92,10.37,5.57-.92-1.72-2.22-3.6-2.98-5.5,2.26,.68,3.87,2.62,5.34,4.24,1,0,3.76-2.89,3.29-3.92-2.84-3.38-7.64-7.75,.04-8.22Z" fill="#a7a9ac"></path>
    <path d="M181.24,59.72c.6,.11,1.21-.02,1.78-.22-.6,0-1.2,.08-1.78,.22Z" fill="#a7a9ac"></path>
    <path d="M240.62,91.01c.6,.02,3,.78,2.62-.56-.02-.44-.67-.72-.45-1.21m0-.07c-1.55-1.35-5.66,.95-2.17,1.84l2.17-1.84Z" fill="#a7a9ac"></path>
    <path d="M210.01,70.29h0c-.91-1.3-6.27-3.92-5.46-.89,.93,1.37,5.4,.89,5.46,.89Z" fill="#a7a9ac"></path>
    <path d="M200.65,57.84c-.58,0-1.16,.05-1.73,.14,.64-.01,1.27,.12,1.86,.35-.17,.26-.55,.11-.71,.38,1.37,.42,3.14-.27,4.31-1.06-.18-.14-.4,0-.6-.1,.3-.28,.71-.1,1-.31-1.35-.01-2.71,.06-4.05,.24,.26,.2,.63,.07,.9,.2,.04,.11-.16,.15-.98,.16Z" fill="#a7a9ac"></path>
    <path d="M191.5,62.76c-.42,.11-.56,.15-.15,.65,1.05,1.02,4.55-.2,4.5-1.15-1.46,.02-2.92,.21-4.35,.5Z" fill="#a7a9ac"></path>
    <path d="M209.31,59.86c-2.03,.13-4.38-.24-6.44-.19,2.04,.34,4.52,1.25,6.44,.19Z" fill="#a7a9ac"></path>
    <path d="M203.02,59.01h0c.42-.11,3.65,.08,4.36-.39,.06-.12-.21-.17-.16-.31s.09-.13,.07-.21h0c-.9-.62-1.88,.64-2.85,.58-.72,.01-1.13,.03-1.42,.33Z" fill="#a7a9ac"></path>
    <path d="M209.93,57.37c.7-.02,1.39-.13,2.07-.31-.33,.11-3.38-.31-3.24,.35,.39,.02,.78,0,1.17-.04Z" fill="#a7a9ac"></path>
    <path d="M213.9,57.87c.82,0,1.07,0,1.28,.24v.08c-1.32,.39-4.64-.94-4.95,.79,2.82,.8,6.78-.2,9.81-.09l-.52-.37v-.06c.84-.03,2.4-.1,1.39-.45,.24-.15,.65-.08,.7-.49,.31-.18,.68-.15,1-.35-2.37-.3-4.84-.09-7.23,.03,.23,.09,.47,.14,.72,.14-1.42,.26-2.92-.37-4.27,.36,.68,.13,1.38,.19,2.07,.17Z" fill="#a7a9ac"></path>
    <path d="M195.76,64.35c.11,0,13,3.12,17.4,1,1.19-.57-1-1.46-1-1.47-2.32-1.07-9.86,.97-10.08-1.8,3.23,.27,2.61-1.25,.38-1.11-1.53-.7-3.33-1.45-4.68,.04,.61,.23,2.14-.02,2.43,.26,.12,.16-1.19,1.23-1.26,1.27-.74,.03-4.56,1.29-3.19,1.81Z" fill="#a7a9ac"></path>
    <path d="M175.03,60.77c-.46,.07-4.28,.79-4.52,.94,.18,.06,.35,.12,4.52-.94Z" fill="#a7a9ac"></path>
    <path d="M152.48,67.81v.1c3.99-1.72,8.56-1.46,12.18-3.92v-.12c-.68,0-1.35,.1-2,.29q.6-.24,.79-.53h-.25q-2.57,.15-15.32,4.82c-1.23,.38-2.34,1.07-3.23,2l.09,.07c2.79-.41,5.18-1.86,7.74-2.71Z" fill="#a7a9ac"></path>
    <path d="M169.65,63.3c6.93-1.13,11.02-.51,16.21-2.52-1.36-.33-2.61,.54-4,.73,1.4-.69,3-1.11,4.42-1.83-.12-.03-4.16,.58-4.61,1-.33,.41-1,1.07-3.92,.75v-.09c.5-.45,2.21-.03,1.92-.97-.08,0-8.55,1-9,1.92,1.4-.15,2.8-.37,4.18-.67-.59,.32-1.23,.54-1.89,.64,.25,0,2.27-.31,2.88-.25-1.49,.7-5.71,.24-6.19,1.29Z" fill="#a7a9ac"></path>
    <path d="M143.17,74.16c.49,.31,1.05,0,1.55,.2v.11c-.45,.54-1.17,.7-1.67,1.16,4.11,.19,8.02-1.04,11.92-2.08l.08,.11q-.39,.35-.44,.43c.57,.54,1.2,1.01,1.88,1.4,1.93,.07,2.04-.16,4.4-1.28q-.17-.1-2.08,.21c1.77-1.94,4.62,.68,5.64-1.9-2.67-2.72,5.4-4.92,5.93-6.46-.15-.14-.31-.26-.47-.38,0-.06,0-.13,0-.19-2.25,.85-4.18,2.48-6.59,2.92,.1-.89,1.06-.86,1.52-1.39l-.13-.15c-.89,.15-1.79,.24-2.69,.26,.38-.29,.87-.37,1.22-.72-.01-.04-.01-.07,0-.11-1.26,0-2.41,.53-3.64,.55,1.07-.5,2.17-.92,3.3-1.28-.71-.17-11.63,2.47-11.78,3.61l.28,.31c-.28,.22-.29,.23-1.58,.5-2.14,.46-2.29,.64-2.36,.89,1.8,.39,3.81-.3,5.54,.79-2.52,.61-11.79,.21-9.83,2.49Z" fill="#a7a9ac"></path>
    <path d="M179.57,99.65c.29-.35-.12-.46-.45-.53-4.13-.56-3.17,3.76,.45,.53Z" fill="#a7a9ac"></path>
    <path d="M179.82,92.84c1.56-.19-.9-3.73-1.16-4.71-.87-.69-1.96-1.31-1.99-2.45-2.65,.94-5.26,3.51-7.54,5.16,1.64,.41,.7,1.28,1,1.86,3.54-1.58,6.21-1.4,9.69,.14Z" fill="#a7a9ac"></path>
    <path d="M174.59,96.6c-1.44-.16-4.87-.67-4.59,1.53-.11,.71,7.21-.65,4.59-1.53Z" fill="#a7a9ac"></path>
    <path d="M108.94,235.21c-1.08,0-1.07,1.74-.55,2.15s2.64,1.61,3,.57c.14-.63-1.11-2.48-2.45-2.72Z" fill="#a7a9ac"></path>
    <path d="M315.07,125.22c.28-2.39-2.83-2.77-4.25-3.91-.62-.54-.9-1.46-1.79-1.72-2.18,.03-4.26-.34-6.41-.68-.68,0-.52,.9-1.09,1-.67,.05-1.18-.8-1.89-.44-.5,.79-.08,2.06-1.28,2.49-1.69-2.37-3.05-7.76-6.62-7.23,0,.88,1,1.05,1.26,1.78-.69,1.05-2,.39-2.79,1,.24,.34,1.39,.57,2.05,.66,1.15,.2,4.18,2.58,1.7,3.49,.67,1.67,4.31,.68,3.14,3.21,.16,.27,.32,.42,2.32,.89,3,.6,5.31,2.94,8.56,2.68,3.47-.1,8.08-.59,6.8-3.39,.1,.04,.2,.1,.29,.17Z" fill="#a7a9ac"></path>
    <path d="M113.51,232.19c.54,1.67,6.69,4.35,7.06,3.66-2.65-8.53-5.81-20.82-17.59-15.71,.75,1.28,8.43-.51,8.46,1.73-.21,.19-.66,.4-1.26-.28h-.09c-.17,2.56,5.69,3.68,4.53,6.52-.32,1.72,1.77,4-1.11,4.08Z" fill="#a7a9ac"></path>
    <path d="M120.84,243.47c.53,.59-.42,1.62,.48,2,1.55,.72,2.13-1.52,3.57-1.17,2.5,.93,5.15,3.1,7.73,3.17,.29-.71-.1-1.52,.36-2.19,1.33-2.15-10.27-7.52-11.14-7.39,.35,1.41,.97,2.99-.17,4.33-.41,.35-5.68-3.07-5.04-2.07,1.27,1.37,3.04,1.97,4.21,3.32Z" fill="#a7a9ac"></path>
    <path d="M192.87,141.92c-1.15,0,.76,2,1.15,2.34,2.54,2.49,4.18,1.32,4.18,1.31,.64-.64-4.16-3.43-5.33-3.65Z" fill="#a7a9ac"></path>
    <path d="M89.43,102.64l.1-.09h0l-.1,.09Z" fill="#a7a9ac"></path>
    <path d="M65.67,128.7c-17.33,23.41-25.96,42.19-25.26,49.65q.42,.24,2.55,18.38l-1.79-.57c.23,2.23,3.88,13.21,3.91,13.29,.92-.67,1.87-1.39,.34-6.8-.7-2.48-1.49-5.26-.35-17,2.48,3.61,2.27,5.33,2,7.51-1.28,7.95,4.12,14.79,6.28,22.02-.27,4.8-1.17,8.61,3.82,11.59,2.45,1.65,5.07,3,7.53,4.64,2.46,1.64,6.05,1.1,8.22,3.59q5,5.73,7.07,6.73c10.19,4.33,9.75,18.69,20.91,22.2,7.55-6.27,7.13,4.29,6.62,9.12q-.17,1.52-4.92,6.46c-.12,.9-7.4,10.34-5.75,13.42,1.67,6.44,11.07,25.73,11.14,25.89,2.45,4.27,7,6.62,9.75,10.59,6.55,14.48-3.86,28.43,3.64,57.17,6.17,21.42,18.62,23.68,18.75,23.68q-9.31-9.82-6.55-14.26-1-2.23-1.09-11.48,.52,0,2.64,.84,0-.24-1.27-4.72,2.62-1.08,3-2.54l.54-.19c4.35,2.83,5.88-1.08,4.47-3.61,8.09,2.6,18.32-15.58,18.41-15.78,2-2.06,5.57-2.46,7-2.55,4.03-.05,5.61-6.39,9.79-4.54,1.11,.57,1.19,.61,1.74-.44,2.08-3.52,2.15-7.98,4.38-11.23,2.12-1.38,2.01-1.92,1.7-3.69,7.57-.08,12.54-6.52,12.54-6.57,.34-.92-.25-1.86-.1-2.82,.2-1.28,2.4-2.37,1.14-3.67-5.35-1.03-6.93-5.88-10.68-9.12-24.36-14.93-9.12-7.24-22.83-27.33-12.81-9.46-9.85-4.99-18.73-19.2-15.16-9.11-31.03-17.11-37.01-3.55-3.82-5.41-18.92-4.28-14.74-12.31,1.55-2.9,2.15-6.23,1.69-9.49-3.27-3.41-8-2.78-12-4.41q2.79-3.93,2.62-6.3c2.09-2.01,3.81-4.38,5.08-7-.51-.93-5.3-8.68-12,5.92-2.26-1-4.86,1.75-7-.68-4.93-5.71-5.46-10.95-5.34-13.57,.16-3.24,3.43-4.66,4.33-7.45,.59-1.78-1.49-3.48-.16-5.28,1.72-2.34,8.35-5.57,9.75-6,2.56-.85,9.74,3.68,9.83,3.72l.9-.33c-.36-.87-1.17-1.4-1.65-2.19l.48-.79c1.88-.35,14.72,2.93,14.78,3,4.33,4.72-1.56,11.07,2.52,15.85,8.36-4.26,.57-13.33,3.9-19.39,3.33-6.06,10.63-5.46,15.83-8.35h-.09c-.1-.24-.23-.58-.34-.81,.13-.22,.28-.53,.39-.77h.85l.43-.92-.66-.55,5.55-11.79c-.53,1.84-2.47,7.33-2.47,7.33q.7-.17,4-8c.32,.97,.5,1.98,.53,3,3.57-6.17,7.06-5.75,13.63-6.31q2.88-6.06,7.56-8.12,.59,.24,12.91-2.09l-.6,.6c.51,.43,1.09,.77,1.72,1l-.32,.88q-7.4,2.13-7.91,3.33c4,1.49,18.87-1.4,18.6-7.69-2.09,.53-2.9,2.6-4.45,3.77-1.19-.82-2.16-1.5-3-2.09,.71,.02,1.42-.19,2-.6-1.81-.26-4.36-1.32-3.45-3.48h0c-.6,.6-.94,1.42-.94,2.27-1.28-1.26-1.28-2.14-1.22-4.18-1.26-1-1.31-1.19-1.66-2.17,2.37,.18,4.08,.31,5.31-1.71q-.73-1.48-19.5,2.78,14.51-7.32,26.59-6.79c1.88,2.56,15,1,17.78-1.55q-.08-1.53,1.39-3.23l-.14-.9c-2.58-2.07-6.09-2.65-9.2-1.52v-.85c1.39-1,1.81-1,5.57-1.09,1.94,.04-.85-3.57-4.4-3.92q-.8-.07-1.14-.34c1.32-2.66-.23-2.35-1.43-4.28,.74-2.24,2.58-.49,1.36-5.26q-1.47-8.36-4.68-5.41c-.51,.46,0,1.39-.64,1.71s-1.61-.5-2.4,0c-3.66,3.14-4.64-.62-7.2-2.2-.12-.69,1.95-4.24,3.4-4.76-1.3-1.04-3.43-.38-3.69-2.49-.8-2.91-8.32-4.63-11.55-4.7-.37,2.43-3.9,3.5-2.78,6.55-4.43,2.51-2.54,2.15-2.73,6.52,0,.07-2,6-5.64,5.57-.79-.08-2.68-.14-2.79,1.22-.38,.22-.79,.39-1.22,.49-2.09,3.09-1.39,8.14-6.17,9.46-.57-2.29-2.54-3.58-3.8-5.38,1.29-1.28,1.93-3.07,1.74-4.87l1.22-.45c0-.15,.16-.43,.17-.6-.32-.16-.66-.29-1-.4-1.06-2.1-3.48-1.39-5-2.45-2.92-3.33-3.17-6.29-8.61-5.08q-.33-.55,.33-4.25,.2-1.3-2.58-2.52c.65-4,12.09-7.5,17-9,0-1.4-1.5-1.27-2-2.12q8,1.31,13.92-1.76c-3.09-.51-3.73-.62-5.57-2.78,3.15,0,6.16,3,9.43,.47-.2-.24-.44-.44-.72-.58,0,0,2-1.2,3.15,.23,7.1-.16,7.77,.43,9.4-4.05,1.38-.73,2.79-.18,3.59-1.79,0,0-2.67-5.7-6.14-.24-3,.57-7,5.86-9.07,2,.92-1.72,5-1.6,3.93-4-2.22,0-3.69,1.74-5.57,2.52,0-1.12,2.91-3,3-3-.59-.3-1.2-.55-1.82-.76q4.75-3.82,4.95-4.42l-.33-.49q2.67-2.07,12.44-4c-6.72-2.68-21.45,8.01-21.65,7.93-.14,0,0,.37,.07,.53,.69,.24,1.4,.32,2.12,.53v.46c-.96,.04-1.91,.26-2.78,.66l-.13,.33h0l.39,.24c-2.21,1.89-5.57,1.64-7.56,3.86q-.67-1.47,2-2.89c-2.65-1.69-5.14,3.1-11.97-.47-.14-.53,.11-1.09,0-1.62-4-.34-5.85,1.4-9.54,4.91,0-1.23,1.24-1.79,1.47-2.86-2.1-.39-4.29,.67-6.35-.42,1.2-.55,2.79-.39,3.61-1.65l-.26-.41c-.57,.1-.67,.11-2-.54-.1-.31-.22-.62-.38-.91-1.07-.14-2,.52-2.92,.78,.27-.25,.56-.47,.87-.66-.65,.17-1.27,.42-1.86,.73,.81-.81,1.75-1.49,2.78-2-15.87,6.44-43.09,30.84-55.54,47.27h.04Z" fill="#a7a9ac"></path>
    <path d="M136.07,249.82c-2.24,1.85,2.76,3.66,4.45,3.3,.11-.11,0-.5-1.72-1.79s-2.25-1.47-2.73-1.51Z" fill="#a7a9ac"></path>
    <path d="M333.27,174.65c3.86-.86,5.21,.63,4.17-4.95-.64-1.85,2.51-3.14,.56-5.15-.78-1.11-2.15-1.69-2.83-2.83-.56-.21-5.07,.05-1.95,2.23-2.99-.11-6.82,2.44-2.4,4.25-3.58,3.64-5.02,7.61,2.45,6.45Z" fill="#a7a9ac"></path>
    <path d="M355.27,234.25c4.41-.77-2.27-3.44-1.87-1.68,.44,.73,1.09,1.32,1.87,1.68Z" fill="#a7a9ac"></path>
    <path d="M342.59,171.57c-.18,0-.19,.07-.21,.26l1.17,.52c-.27-.32-.59-.58-.96-.78Z" fill="#a7a9ac"></path>
    <path d="M387.3,199.24c2.07,2.63,4.63,10.06,5.47,13-3.96-21.3-10.76-42.6-18.76-57.76h0c-.18-.33-.35-.66-.54-1,.59,1.64,1.28,3.24,2.07,4.79-.41-.5-.72-1.07-1.1-1.59,.31,1.79,1.49,3.15,2.24,4.73l-.33,.09c-3.51-5.75-6-12-9.58-17.73,1.93,2.41,3.09,5.39,5.36,7.58-.41-2.75-8.89-14.84-12.73-19.71,.2,.16,.39,.33,.57,.51-.35-.59-.76-1.15-1.22-1.66l-.34,.11c-.98-.94-1.86-1.99-2.6-3.13,.18,.16,.43,.36,.61,.5-.07-1.1-3.72-4.63-4-4.83,.02,.58,.18,1.16,.46,1.67-1.39-1.06-1.55-2.93-2.85-4,0,.79,.68,1.39,.72,2.16-2.61,1.46,.11,9.19-.03,10.39,1.77,7.04-.09,9.63-3.86,10.75-2.4-.35,0,16.5,5.9,16.04,1.88-.18,2-3.16,2.09-4.59,.3,.44,6.21,12.67,7,16.11,.33,1.63,.64,3.18,2,3.68,2.79-2.63-.2-10.87,2.82-11.19,.34-.87,.36-1.25-1.66-3.92q-1.39-1.84-2.48-6.72c-.4-1.85,1.84-3.21,.95-5.15-2.56-5.93-2.24-4.4-2.31-5.9l.28-.23c1.19,.94,4.66,5.58,4.66,6.56l-.38-.09c.22,13.99,4.21,13.95,11.47,21.86-.44-.29-.84-.62-1.2-1l-.35,.07c.07,.41,.16,.81,.28,1.21-1.43-1.19-2.95-2.27-4.55-3.23,1,3.31,3,6.25,3.48,9.75-1.87-.74-1-3.54-3.12-4.1l-.32,.25c.02,2.23,1.88,6.82,1.6,9.29q-1.13-.51-1.4-.53c-.29,.31-.48,.67-.76,1,.02,.11,.06,.23,.11,.33q-5.21-2.25-5.43-1.75l-.91,.19c-1.02-1.1-2.2-2.04-3.51-2.78l2.43,1.39c-2.16-3.4-3.74-.51-5.38-5.63-2.6-3.93,.59-9.1-1.53-12.68-6.43-2.75,.25,11.47,.6,14.2-.25,.25-2.4-.28-2.87-.32-4.32-3.58-4.86-10.23-10.17-12.52h0c1.4-.58,4.56-4.87,1.66-6-.93-.43-4.31-.7-3.69-1.41,.32-1,2.61-2.21,1.28-2.78,0,0-3.66-1.22-4.65-.12-.47,1.3,.16,2.71-.11,4.04-.24,1.19-1.21,1.62-1.17,2.7,.06,.72,3.12-.65,3.9-.22,1.06,1.19-1,2.06-.88,3.25-.6,2.65,4.12,4.82,4.86,5.78-1.03,1.36,2.98,7.65-1.19,3.78q-.35-.35-1.52-.86c.18,2.17,2.99,5.46-1.17,5.56-.33,0-.84,.09-.8,.47-.7,1.03,6.22,2.25,6.12,3.58-.63-.17-1.29-.23-1.94-.17-.02,.09-.02,.19,0,.28-1.23-.26-1.85,1.06-2.76,1.55-.68,.32-1.8,.59-2.65,1v.22c.25,.16,.32,.2,2.92,.77-.21,.4-.47,.77-.78,1.11-2.68-1.1-3-1.57-3.88-2.85,.13,.68,.29,1.34,.49,2l-.59,.79c-.7,.05-1.4,.05-2.1,0q-1-1.31-3.14-2.1l-.68,.69,1.14,2.24-.92,.26c11.53,8,5,20.17,4.9,20.27-5.8-2.52-10.91-6.33-16.61-9,.12,.69,.31,1.36,.58,2-.06,.16-5,16.24-3.14,17.56-.76,1.75-1.61,3.45-2.54,5.11,4.25,1.13,5.14,1.4,6.77,2.39-.16,1.03-.26,2.07-.28,3.12l10.82,.18c2.79,.61,4.66-2.55,4-5.34,3.78-5.83,3.86-5.83,8.36-6q1.85-5.12,2.41-5.32c2.4-.89,3,2.08,4.69,2.69,2.55-2.24,4.5-3.59,6.21-.61,2.81,6.94,5.26,14.02,7.33,21.22-.35,.65-.5,1.39-.42,2.13,.18,.45,.91,.52,.82,1.17-.12,.84-1.16,2.08,.06,2.48-.4,1.8-1.67,1.55-6.45,.57,.71,2.27,1.68,4.46,2.88,6.52,1-1.39,.59-3.2,1.4-4.65l.8,.41c1.09-.82,1.83-2,2.87-2.78v-.15c1.63-.54,1.39-2.44,1.58-3.83,.15,.54,.35,1.18,.51,1.67,.16-.87,.07-1.76-.26-2.58,.47-1.22,.54-2.86-.92-2.6l-1.25-3.41,.46-.73c-.01,.27,.81,2.31,1,2.66,.71-.43,1.31-4.58,1.28-6.11l2.23,5.81c-.16,5.84,.15,17.63,.79,23.41,2.05-2.79,1.85-17.34,3.69-16.55,1.15,.71,3.23,3.2,3.06,5.43,.5-.43,.97-.89,1.39-1.4l.95,.27c3.09-6.08,.47-13.19,3.51-19.29,.6,.03,1.17,.27,1.62,.66l-.66,.66c.32,.91,.82,1.76,1.46,2.48-.04,1.03-.39,2.02-1,2.85,.35,1.27,.62,2.55,.83,3.85,3.7-.7,.22-5.45,2-7.72,1.46,.18,1.55,.71,1.58,1.91l-.76,.67q.21,.93,0,3.93l-.76,.55c.29,6.26,3.81,12.27,1.32,18.71l-.92,.15c-2-2.7,.18-8.54-4.52-8.91-.25,.57-.67,1.06-1.2,1.39-.46-.35-1.07-.79-1.56-1.09-.05,.59,.06,1.19,.32,1.73-1.28,.5-2.44-.47-3.69-.32-.33,.61-.6,1.26-.81,1.92l.74,.53c-.73,3.41-2.06,9.75,.78,14.57l.83-.41,.28-.89c.94,1.55,.71,3.54,1.91,5,.4-.49,.74-1.04,1-1.62,.27,.56,.65,1.07,1.11,1.49-3.68,12.54-4.18,14.53-6.75,17.4-1.73-.77-1.9-1.26-1.86-3.21-.57-.15-1.18-.11-1.72,.12-5.75-2.51-2.2-10.91-8.36-13.18-1.86,1.64-1.79,4.35-3.33,6.17h-1c-.94-1.39-10.16-18.47-10.57-20.42-.12-.61,.6-1.39,1.09-1.75q1.14-.92,3.15-8.36c-.65-.89-1.36-1.74-2.11-2.55q-1.5,.49-6.06-2.39c-.58,.31-1.13,.68-1.64,1.1-5.57-4.78-13.23,.45-18.85-4-2.32-.97-3.43-.11-4.67-3.82-.4-.83-.81,0-1.34,.07-1.72,1.05-1.54,3.46-3.24,4.53-2.12,1.39-4.86,.32-7,1.85-5.85,13.93-3.47,7.95-13.66,12.31-1.83,1.47-15.63,13.33-15.64,13.35-1.74,3.85-.3,8.13-1.59,12-1.09,3.29-6.3,3.2-6.14,7.49,.56,10.4,1.79,25.78,9.51,33.08,8.04,2.3,17.62,1.23,24.79,6.01,1,1.72-.77,3.51,.21,5.23,.98,1.72,2.95,1.71,4.31,2.78,.91,6.22-9.91,11.29-9.09,15.61,.19,10.32-11.92,22.73-23.84,29.46-4.18,3.41-6.39,8.59-10.45,12.14-19.96,18.09-13.63,10.96-22.45,18.34,8.68,4.75,16.17-.61,23.66-2.06,0,0,12.48-4.37,12.48-4.37,5.82-4.79,12.45-6.74,19.62-8.5,8.48-3.84,18.61-13.83,19.75-15.11,4.63-5.12,16.24-11.39,19.63-13.13,5.44-3,14.71-12.54,17.57-16.53q-.87-.69-2.78-.92c-.02-.07-.04-.13-.05-.19-.13-.7,5.51-12.28,5.59-15.35,5.38-11.65,10.7-29.73,13.54-42.43q.19,.82-.45,4.09c.66-.3,1.21-.78,1.59-1.39-1.29,17.81-11.71,32.48-16.91,48.93q2.08-.21,2.79,.25,8.35-8.53,9-9.75l-.49,.92c3.48-6.22,3.5-6.34,7.42-15.24l-.33,.88c9.42-22.55,10.56-29.48,14.62-56.81,0,.07,0,.14,0,.21q.95-20.79,1.17-21.74v.11c.58-12.1,.5-27.81-7.15-38.07Zm-35-23c.08,0,.11,0,.81,.43l-.89-.34h0s.05-.05,.08-.07v-.02Zm17.1,49.77c-.62,.96-.28,2.61-1.54,3.05-.26,.06-.47,.31-.46,.58-1.79-1.68-3.21-3.17-4.81-16.71,.5-.36,1.09-.58,1.7-.64l5.24,13.63c-.05,.04-.1,.08-.13,.14v-.05Z" fill="#a7a9ac"></path>
  </g>
  <g>
    <path d="M360.11,265.21c.59-43.28-64.59-31.17-48.51,9h0c23.79,36.64,14.43,35.99,43.9,3.7h.07c2.64-3.74,4.21-8.13,4.54-12.7Zm-26.39,9c-14.66-1.28-12.81-23.57,1.86-22.42,14.66,1.28,12.81,23.57-1.86,22.42Z" fill="#f39c12"></path>
    <path d="M331.7,302.42c-.1,0-.21,0-.31-.01-3.24-.27-5.93-4.72-11.29-13.58-2.34-3.87-5.24-8.68-8.92-14.34-6.28-15.67,.04-25.07,4.37-29.28,7.73-7.54,20.54-9.92,30.47-5.66,5.55,2.38,14.82,8.89,14.59,25.68v.03c-.34,4.66-1.94,9.14-4.63,12.95l-.15,.21h-.11c-4.42,4.84-7.99,9.01-10.86,12.36-6.58,7.67-9.99,11.65-13.15,11.65Zm3.71-63.99c-7.05,0-14.2,2.64-19.17,7.48-4.15,4.04-10.2,13.07-4.18,28.11,3.64,5.59,6.55,10.41,8.9,14.28,5.18,8.58,7.79,12.88,10.52,13.11,2.74,.23,6.04-3.62,12.62-11.29,2.91-3.4,6.54-7.62,11.03-12.55l.18-.16c2.49-3.62,3.98-7.84,4.3-12.22,.22-16.19-8.67-22.44-13.99-24.73-3.19-1.37-6.69-2.03-10.21-2.03Zm-.58,36.32c-.37,0-.76-.02-1.15-.05h0c-7.89-.69-10.99-7.05-10.52-12.66,.46-5.62,4.57-11.37,12.46-10.76,7.9,.69,10.99,7.05,10.53,12.66-.44,5.34-4.17,10.8-11.31,10.8Zm-1.07-1.04c7.22,.57,10.96-4.71,11.39-9.84,.43-5.14-2.4-10.95-9.61-11.58-7.17-.56-10.96,4.71-11.38,9.84-.42,5.14,2.4,10.95,9.61,11.58Z" fill="#002346"></path>
  </g>
  <g>
    <path d="M165.57,287.5c.36-27.68-41.31-19.95-31.07,5.75h0c15.06,23.31,9.46,22.99,28.11,2.3h0c1.7-2.36,2.72-5.15,2.96-8.05Zm-16.9,5.76c-9.32-.63-8.11-15.26,1.19-14.35,9.32,.64,8.11,15.26-1.19,14.35Z" fill="#f39c12"></path>
    <path d="M147.41,311.4c-.08,0-.15,0-.23,0-2.24-.18-3.94-2.97-7.64-9.09-1.44-2.38-3.24-5.35-5.46-8.79-4.06-10.15,.04-16.23,2.84-18.96,5-4.87,13.28-6.4,19.69-3.65,3.59,1.54,9.6,5.75,9.45,16.59v.03c-.24,2.99-1.3,5.86-3.05,8.3-2.71,3.01-4.92,5.6-6.7,7.68-4.56,5.35-6.73,7.88-8.9,7.88Zm2.34-40.86c-4.46,0-8.98,1.67-12.13,4.73-4.53,4.41-5.47,10.73-2.66,17.79,2.19,3.36,3.99,6.34,5.43,8.72,3.31,5.46,5.13,8.47,6.87,8.61,1.76,.14,4.07-2.58,8.29-7.53,1.78-2.09,4-4.68,6.68-7.66,1.61-2.24,2.6-4.93,2.83-7.74,.09-7.6-3.05-13.15-8.85-15.64-2.02-.87-4.24-1.28-6.47-1.28Zm-.27,23.25c-.28,0-.57-.01-.86-.04-2.79-.19-4.96-1.6-6.09-3.97-1.27-2.65-.99-6.05,.7-8.46,1.51-2.15,3.87-3.19,6.67-2.92,2.78,.19,4.95,1.6,6.08,3.97,1.27,2.65,.99,6.05-.7,8.46-1.35,1.93-3.39,2.96-5.8,2.96Zm-.42-14.43c-2.09,0-3.85,.88-5,2.53-1.49,2.12-1.73,5.12-.62,7.45,.97,2.03,2.84,3.24,5.26,3.41h.01c2.42,.24,4.46-.65,5.75-2.49,1.49-2.12,1.73-5.12,.62-7.45-.97-2.03-2.84-3.24-5.26-3.41-.26-.03-.51-.04-.76-.04Z" fill="#002346"></path>
  </g>
  <g>
    <path d="M128.59,149.66c-1.42-24.19-37.67-14.35-26.68,7.23h0c14.86,19.16,9.87,19.37,24.71,0h0c1.29-2.19,1.97-4.68,1.97-7.22Zm-14.33,6.24c-8.19,.12-8.19-12.74,0-12.62,3.48,0,6.31,2.83,6.31,6.31h0c0,3.49-2.82,6.32-6.31,6.31Z" fill="#f39c12"></path>
    <path d="M114.28,171.83c-1.98,0-3.64-2.28-7.28-7.28-1.45-2-3.26-4.48-5.5-7.36-4.34-8.51-1.22-14.12,1.02-16.71,4.08-4.71,11.33-6.68,17.23-4.67,3.24,1.1,8.77,4.36,9.32,13.82v.03c0,2.63-.71,5.21-2.04,7.47-2.17,2.84-3.92,5.26-5.33,7.2-3.73,5.15-5.43,7.5-7.43,7.5h0Zm.6-35.81c-4.35,0-8.78,1.86-11.6,5.11-3.59,4.15-3.92,9.66-.94,15.52,2.2,2.82,4.01,5.31,5.47,7.31,3.22,4.43,5,6.86,6.47,6.86h0c1.49,0,3.31-2.52,6.62-7.09,1.41-1.95,3.17-4.37,5.31-7.17,1.2-2.05,1.86-4.46,1.87-6.9-.39-6.57-3.46-11.15-8.65-12.91-1.46-.5-3-.73-4.55-.73Zm-.74,20.37c-2.43,0-4.39-1.08-5.55-3.06-1.31-2.24-1.31-5.26,0-7.5,1.17-2.01,3.14-3.08,5.67-3.06,3.75,0,6.8,3.06,6.8,6.81,0,1.82-.7,3.53-1.99,4.82-1.29,1.29-2.99,1.99-4.81,1.99-.02,0-.08,0-.12,0Zm0-12.62c-2.06,0-3.72,.91-4.69,2.56-1.13,1.94-1.13,4.55,0,6.49,.98,1.69,2.73,2.61,4.79,2.57h.02c1.55,0,3-.6,4.1-1.7,1.1-1.1,1.7-2.56,1.7-4.11,0-3.2-2.61-5.81-5.81-5.81-.03,0-.07,0-.1,0Z" fill="#002346"></path>
  </g>
  <g>
    <path d="M96.61,469.58H802.51c18.25,0,33.05,14.79,33.05,33.04,0,18.25-14.8,33.05-33.05,33.05H96.61c-43.22-.67-43.62-65.33,0-66.09Z" fill="#fff"></path>
    <path d="M802.51,536.17H96.6c-22.7-.35-33.05-17.66-33.07-33.59-.01-15.86,10.32-33.1,33.06-33.5H802.51c18.5,0,33.55,15.05,33.55,33.54s-15.05,33.54-33.55,33.54ZM96.61,470.08c-22.05,.39-32.08,17.11-32.07,32.5,.01,15.46,10.06,32.25,32.07,32.59H802.51c17.95,0,32.55-14.6,32.55-32.54s-14.6-32.54-32.55-32.54H96.61Z" fill="#002346"></path>
  </g>
  <g>
    <path d="M268.56,262.45s1.92-7.92,8.53-6.9c0,0,3.05,.25,1.78,9.66-.12,7.32,1.26,14.59,4.06,21.35,0,0,16,30.95-1.8,38.32l-9.89,6.42-10.67-10.43-5.09-36.09,13.08-22.33Z" fill="#f2b3c1"></path>
    <path d="M271.17,331.93l-11.08-10.83-.02-.17-5.11-36.26,13.13-22.42c.23-.84,2.45-8.22,9.07-7.2,.03,0,.67,.07,1.28,.83,.86,1.06,1.71,3.56,.92,9.39-.12,7.24,1.24,14.35,4.03,21.09,.39,.75,9.85,19.29,5.52,31.13-1.34,3.67-3.9,6.31-7.59,7.84l-10.15,6.6Zm-10.13-11.31l10.26,10.03,9.56-6.21c3.51-1.46,5.87-3.9,7.12-7.3,4.18-11.43-5.39-30.17-5.49-30.36-2.86-6.91-4.24-14.16-4.12-21.59,1.16-8.64-1.31-9.15-1.34-9.16-6.08-.94-7.91,6.22-7.99,6.52l-.05,.13-12.99,22.18,5.04,35.75Z" fill="#002346"></path>
  </g>
  <path d="M422.36,251.61l-6.35,16.77s5.84-1.27,8.26-1.14c3.99-4.19,8.74-7.59,14-10-5.57-1.03-10.93-2.93-15.91-5.63Z" fill="#002346"></path>
  <g>
    <path d="M424.27,267.24c-41.97,2.1-95.6,42.85-109.81,133.72,0,0,5.33,70.16,5.33,70.16h302s26.18-7.88,10.42-48.81c-32.75-91.86-63.65-165.75-207.94-155.07Z" fill="#f39c12"></path>
    <path d="M621.86,471.62H319.32l-4.53-59.66c-.61-8.1-.79-10.37-.74-11.07h-.08c6.48-41.46,21.91-76.18,44.62-100.43,19.01-20.3,42.94-32.59,65.65-33.73,66.64-4.93,113.12,7.53,146.18,39.22,29.34,28.12,44.93,67.55,62.27,116.18,5.99,15.57,6.7,28.23,2.1,37.62-4.53,9.24-12.51,11.74-12.85,11.84l-.07,.02Zm-301.61-1h301.46c.77-.26,8.07-2.9,12.19-11.32,4.46-9.13,3.74-21.51-2.15-36.81-30.39-85.23-59.1-165.73-207.44-154.75h-.01c-22.45,1.12-46.13,13.3-64.98,33.42-22.57,24.09-37.9,58.61-44.35,99.83,.16,2.09,4.83,63.65,5.29,69.64Z" fill="#002346"></path>
  </g>
  <g>
    <path d="M437.99,248.43s-.39,42.58,6.86,60.5l36.31-51.86s-4.58-14.74-2.8-29l-40.37,20.36Z" fill="#f2b3c1"></path>
    <path d="M444.74,309.97l-.35-.85c-7.2-17.81-6.9-60.27-6.9-60.69v-.3s41.48-20.92,41.48-20.92l-.12,.93c-1.75,13.98,2.74,28.64,2.78,28.79l.07,.23-36.98,52.81Zm-6.24-61.23c-.01,3.8,.01,41.86,6.49,59.14l35.64-50.9c-.56-1.92-4.22-15.12-2.86-28.05l-39.27,19.8Z" fill="#002346"></path>
  </g>
  <g>
    <path d="M438.3,257.2c-37.42,13.12-14.31,65.47,33,54.02,0,0,44.73-7.12,29-42.2-4.32-6.59-11.31-10.96-19.13-11.95l-36.35,51.86s-6.72-19.07-6.52-51.73Z" fill="#fbe493"></path>
    <path d="M458.24,313.33c-19.89,0-33.95-11.77-37.93-25.24-4.08-13.83,2.91-26.14,17.82-31.37l.67-.23v.71c-.18,28.19,4.88,46.39,6.18,50.62l35.95-51.28,.3,.04c7.97,1.01,15.08,5.45,19.48,12.17,9.65,21.51-2.78,32.74-14.9,38.38-3.87,1.8-7.58,2.95-10.02,3.6-2.64,.7-3.83,.95-4.39,.97v.02c-4.62,1.12-9.02,1.63-13.17,1.63Zm-20.45-55.42c-13.91,5.16-20.39,16.83-16.53,29.9,4.68,15.83,23.76,29.25,49.91,22.92,.26-.04,21.91-3.62,29.41-17.48,3.64-6.72,3.38-14.8-.75-24.03-4.16-6.32-10.88-10.57-18.44-11.62l-36.73,52.41-.32-.92c-.07-.19-6.65-19.24-6.55-51.18Z" fill="#002346"></path>
  </g>
  <g>
    <path d="M575.01,414.93c72.78,.53,71.99,86.79-8.9,62.75l8.9-62.75Z" fill="#f2b3c1"></path>
    <path d="M592.25,482.39c-7.9,0-16.75-1.4-26.28-4.23l-.41-.12,9.02-63.61h.44c24.46,.18,43.5,10.16,50.93,26.68,4.8,10.67,3.44,21.88-3.64,29.97-6.55,7.49-17,11.31-30.05,11.31Zm-25.58-5.07c24.71,7.25,44.7,4.74,54.89-6.9,6.81-7.79,8.11-18.59,3.48-28.9-7.22-16.06-25.74-25.79-49.59-26.08l-8.78,61.89Z" fill="#002346"></path>
  </g>
  <g>
    <path d="M337.71,477.97h228.01c3.02,0,5.47,2.45,5.47,5.46h0c0,3.02-2.45,5.46-5.47,5.46h-228.01c-3.02,0-5.47-2.45-5.47-5.46h0c0-3.02,2.45-5.46,5.47-5.46Z" fill="#002346"></path>
    <path d="M565.72,489.4h-228.01c-3.29,0-5.97-2.68-5.97-5.96s2.68-5.97,5.97-5.97h228.01c3.29,0,5.97,2.68,5.97,5.97s-2.68,5.96-5.97,5.96Zm-228.01-10.93c-2.74,0-4.97,2.23-4.97,4.97s2.23,4.96,4.97,4.96h228.01c2.74,0,4.97-2.23,4.97-4.96s-2.23-4.97-4.97-4.97h-228.01Z" fill="#002346"></path>
  </g>
  <g>
    <path d="M280.9,325.07l45.49,98.23c3.77,11.81,12.26,52.81-21.09,56.07-47.7,.03-42.55-106.55-48-151.22,0,0-21.61-34.06-21.61-46.52,0-10.47,4-51.28,5.21-64,.21-2.08,2.13-3.57,4.2-3.27,1.76,.27,3.08,1.76,3.13,3.54l1.19,47.5s23.89-8.89,24.91,4.32c0,0,8.14,5.85,3.31,12.71,0,0,4.06,3.31,2,9.92,.42,1.36,2.12,11.73-14.98,10.94,3.51,1.91,14.61,9.14,9.65,21.85l6.59-.07Z" fill="#f2b3c1"></path>
    <path d="M305.32,479.87c-38.94,0-43.07-69.27-46.09-119.85-.71-11.85-1.38-23.04-2.42-31.69-1.51-2.39-21.63-34.44-21.63-46.69,0-9.62,3.4-45.14,4.85-60.31l.36-3.74c.12-1.15,.68-2.17,1.59-2.88,.91-.71,2.04-1.01,3.18-.84,2,.31,3.5,2,3.56,4.02l1.17,46.81c3.03-1.04,15.44-4.94,21.56-1.02,1.97,1.26,3.1,3.21,3.35,5.78,1.2,.95,7.63,6.48,3.48,12.9,.97,.99,3.58,4.31,1.87,10,.19,.77,.84,4.2-1.48,7.19-2.19,2.83-6.27,4.27-12.13,4.28,4.43,2.85,12.37,9.75,8.49,20.8l6.19-.07,45.63,98.52c.98,3.05,9.06,29.73-1.46,45.71-4.25,6.46-10.99,10.18-20.04,11.06h-.02Zm-60.77-265.05c-.7,0-1.38,.23-1.95,.68-.69,.54-1.12,1.32-1.21,2.18l-.36,3.74c-1.45,15.15-4.85,50.64-4.85,60.21,0,12.17,21.32,45.91,21.53,46.25l.07,.21c1.06,8.7,1.73,19.95,2.44,31.87,3,50.18,7.1,118.91,45.04,118.91h.02c8.69-.85,15.18-4.42,19.25-10.62,8.33-12.66,4.77-34.12,1.36-44.8l-45.33-97.88-7.01,.07,.27-.69c4.8-12.31-6-19.37-9.43-21.23l-1.91-1.04,2.17,.1c6.55,.3,11-.99,13.21-3.84,2.27-2.93,1.28-6.41,1.27-6.44l-.05-.15,.05-.15c1.93-6.19-1.68-9.26-1.84-9.38l-.36-.29,.26-.38c4.49-6.37-2.88-11.79-3.19-12.02l-.19-.14-.02-.23c-.18-2.36-1.16-4.12-2.91-5.24-6.43-4.11-21.18,1.3-21.33,1.35l-.66,.24-1.21-48.2c-.04-1.54-1.18-2.83-2.71-3.06-.16-.02-.31-.03-.47-.03Z" fill="#002346"></path>
  </g>
  <g>
    <path d="M261.17,477.07c-4.33,3.41-11.05,1.58-12.99-3.61,0,.01-48.79-126.03-48.79-126.03-4.09-10.08,11.91-16.35,15.7-6.08-.98,5.29,59.49,134.69,46.08,135.72Z" fill="#f39c12"></path>
    <path d="M256.07,479.3c-.82,0-1.66-.11-2.47-.34-2.77-.78-4.92-2.72-5.89-5.32l.08-.03c-.32-.59-.92-2.16-2.49-6.2l-24.8-64.05c-11.05-28.54-21.48-55.5-21.58-55.74-1.22-2.99-.84-5.95,1.05-8.34,2.13-2.68,5.83-4.11,9.19-3.57,3,.48,5.27,2.42,6.39,5.47l.05,.13-.03,.14c-.29,1.57,6.54,18,13.78,35.4,16.15,38.82,38.27,91.99,33.58,99.64-.37,.61-.92,.97-1.58,1.07-1.51,1.15-3.38,1.75-5.29,1.75Zm-7.56-6.37l.13,.36c.86,2.3,2.76,4.02,5.22,4.71,2.45,.69,5.06,.19,6.99-1.32l.12-.09h.15c.42-.04,.72-.24,.96-.62,4.42-7.21-18.49-62.29-33.65-98.74-9.07-21.81-13.91-33.55-13.86-35.8-1.01-2.63-2.98-4.31-5.58-4.73-3.03-.49-6.34,.8-8.25,3.21-1.66,2.09-1.98,4.69-.91,7.34l-.05,.02c.53,1.2,3.38,8.56,21.63,55.73,12.03,31.08,25.58,66.09,27.08,69.94h0Z" fill="#002346"></path>
  </g>
  <line x1="213.54" y1="385.44" x2="236.92" y2="446.45" fill="none"></line>
  <g>
    <path d="M236.92,447.21c-1.4,.27-23.39-61-24.09-61.49-.14-.4,.08-.83,.47-.96,1.94-.86,23.4,60.98,24.34,61.43,.21,.48-.18,1.08-.72,1.03Z" fill="#002346"></path>
    <path d="M236.98,447.71s-.05,0-.08,0c-.9-.02-2.43-3.08-17.18-42.59-3.48-9.31-6.76-18.12-7.26-19.05l-.06-.04-.05-.15c-.22-.66,.13-1.37,.78-1.6,.12-.05,.3-.05,.46,.02,1.5,.63,6.69,14.13,17.06,42.27,3.44,9.35,6.7,18.18,7.3,19.21l.06,.03,.08,.17c.17,.4,.11,.87-.15,1.23-.23,.32-.59,.5-.96,.5Zm-23.69-62.17c.46,.81,1.75,4.18,7.37,19.22,5.94,15.91,14.85,39.78,16.41,41.92,.03-.02,.06-.05,.07-.07,.04-.06,.08-.15,.04-.23-.54-.81-1.84-4.22-7.47-19.48-5.79-15.71-14.45-39.23-16.4-41.56-.04,.06-.05,.13-.03,.2Zm.21-.34s-.02,0-.03,.01c0,0,.02,0,.03-.01Z" fill="#002346"></path>
  </g>
  <g>
    <path d="M275.31,488.01h-73.14c-2.02,0-3.64-1.65-3.64-3.66-.16-1.25,21.49-77.93,21.6-79.12,.23-1.2,2.15-.73,1.71,.47,0,0-21.46,78.17-21.46,78.17-.35,1.16,.58,2.38,1.79,2.36-.28,.89,79.77-2.31,73.14,1.78Z" fill="#002346"></path>
    <path d="M275.45,488.51h-73.28c-1.11,0-2.15-.44-2.93-1.22-.78-.79-1.21-1.83-1.21-2.94-.09-.67,4.24-16.43,13.99-51.5,3.86-13.89,7.51-27.01,7.61-27.68,.1-.56,.44-.94,.93-1.08,.53-.15,1.13,0,1.5,.4,.34,.37,.43,.87,.25,1.38-.03,.11-21.45,78.13-21.45,78.13-.12,.41-.04,.84,.22,1.19,.27,.35,.69,.56,1.07,.54h.69s-.04,.11-.04,.11c1.98,.12,9.61,0,18.31-.15,41.61-.69,54.47-.3,55.05,1.65,.08,.28,.04,.69-.6,1.09l-.12,.07Zm-54.48-83.48s-.09,0-.12,.02c-.12,.04-.2,.12-.22,.27-.04,.42-2.24,8.38-7.64,27.8-5.85,21.05-13.86,49.88-13.95,51.22,0,.85,.32,1.64,.92,2.24s1.38,.93,2.23,.93h72.77c-3.83-1.64-36.15-1.1-53.8-.81-15.5,.26-18.41,.25-19.11,.03-.68-.03-1.32-.37-1.74-.93-.45-.6-.6-1.37-.39-2.07l20.53-74.8c.55-2,.81-2.94,.99-3.38l-.06-.02c.07-.2,.01-.3-.04-.36-.08-.09-.23-.14-.36-.14Z" fill="#002346"></path>
  </g>
  <g>
    <path d="M638.56,415.06v57.51c0,8.74,7.08,15.82,15.82,15.82h31.36c8.65,0,15.7-6.95,15.82-15.6l.8-57.73h-63.8Z" fill="#fbe493"></path>
    <path d="M685.74,488.89h-31.36c-9,0-16.32-7.32-16.32-16.32v-58.01h64.81l-.81,58.24c-.12,8.87-7.44,16.09-16.32,16.09Zm-46.68-73.33v57.01c0,8.45,6.87,15.32,15.32,15.32h31.36c8.33,0,15.2-6.78,15.32-15.11l.79-57.22h-62.79Z" fill="#002346"></path>
  </g>
  <path d="M701.46,426.41s19.19,3.52,17.92,17c0,0-.84,24.37-17.7,24.9v-6.55c9.11,1.55,20.41-27.24-.22-27.23v-8.12Z" fill="#002346"></path>
  <g>
    <path d="M474.61,141.77h0c20.23,8.75,29.53,32.24,20.78,52.46-13.08,30.6-25.42,76.38-69.29,59.7-20.44-8.55-29.46-33.21-20.78-52.47,13.12-31.26,26.07-76.37,69.29-59.69Z" fill="#f2b3c1"></path>
    <path d="M443.38,257.95c-5.22,0-11-1.1-17.45-3.56-9.83-4.11-17.46-12.01-21.49-22.23-4-10.15-3.84-21.42,.44-30.91,1.23-2.93,2.44-5.93,3.72-9.11,11.85-29.46,26.6-66.12,66.21-50.83h.02c20.45,8.85,29.88,32.68,21.04,53.13-1.41,3.3-2.79,6.72-4.25,10.34-9.73,24.12-21.45,53.18-48.23,53.18Zm13.78-119.3c-25.98,0-37.38,28.35-47.65,53.86-1.28,3.19-2.49,6.19-3.73,9.14-4.17,9.27-4.33,20.25-.42,30.15,3.93,9.97,11.37,17.67,20.93,21.67,38.66,14.71,52.33-19.18,64.38-49.07,1.46-3.63,2.84-7.05,4.26-10.36,8.62-19.94-.58-43.17-20.51-51.8-6.4-2.47-12.12-3.58-17.26-3.58Z" fill="#002346"></path>
  </g>
  <g>
    <path d="M584.4,309.94l-10.93,.77c-31.64-33.7-73.21-41.7-73.21-41.7-4.4-6.49-11.34-10.83-19.1-11.94-6.44-25.7-1.91-23.7,4.74-40.82-7.11-22.27-28.17-18.13-38.74-40.01-18.31-3.31-11.7-30.25-11.7-30.25-14.94,12.11-13.25,19.01-19.37,30.81-45.94-49.91,23.01-79.69,33.61-50.64l14,.76c76.77-9.15,80.07,63.55,80.07,63.55,4.92,46.78,17.11,111.76,40.63,119.47Z" fill="#002346"></path>
    <path d="M573.27,311.22l-.16-.17c-31.16-33.19-72.53-41.47-72.94-41.55l-.2-.04-.12-.17c-4.31-6.36-11.15-10.64-18.76-11.73l-.33-.05-.08-.33c-5.03-20.07-3.36-23.54,.69-31.94,1.19-2.46,2.53-5.25,4-9.01-3.64-11.24-10.92-15.59-18.62-20.2-7.26-4.35-14.77-8.84-19.93-19.35-4.21-.82-7.46-2.95-9.66-6.34-4.89-7.54-3.26-19.05-2.49-23.06-9.56,8.03-11.7,13.79-14.16,20.41-1.08,2.89-2.19,5.88-3.98,9.33l-.33,.63-.48-.52c-19.62-21.31-16.68-37.14-13.18-44.68,5.83-12.55,19.64-18.66,30.27-18.21,8.32,.35,14.58,4.51,17.24,11.42l13.67,.74c23.5-2.81,42.57,1.8,56.6,13.69,22.27,18.89,23.93,50.02,23.94,50.33,2.7,25.69,13.59,110.27,40.29,119.02l2.42,.79-13.71,.97Zm-72.71-42.67c3.21,.67,42.88,9.55,73.11,41.63l8.53-.6c-25.04-11.92-35.53-86.79-38.92-119.07-.02-.34-1.66-31.05-23.6-49.65-13.8-11.7-32.61-16.23-55.91-13.46l-14.42-.78-.11-.31c-2.44-6.7-8.44-10.74-16.46-11.08-10.3-.45-23.68,5.48-29.32,17.63-5.79,12.48-1.34,27.74,12.53,43.05,1.57-3.13,2.6-5.9,3.6-8.58,2.61-7.01,4.86-13.07,15.57-21.75l1.15-.94-.35,1.44c-.04,.15-3.59,15.01,2.06,23.7,2.08,3.21,5.2,5.21,9.25,5.94l.25,.05,.11,.23c5.02,10.4,12.46,14.85,19.65,19.15,7.91,4.73,15.38,9.2,19.12,20.92l.05,.17-.06,.17c-1.51,3.89-2.88,6.74-4.1,9.25-4.03,8.36-5.55,11.51-.7,30.94,7.69,1.19,14.58,5.53,18.99,11.94Z" fill="#002346"></path>
  </g>
  <g>
    <path d="M492.65,206.74c6.05-38.66-33.16-85.86-45.76-78.82,0,0-.51-4.83,10.17-2.29,18.45-3.64,60.32,26.72,37.9,80.58l-2.31,.53Z" fill="#f39c12"></path>
    <path d="M492.04,207.39l.11-.73c4.48-28.63-16.82-63.73-33.45-75.31-4.86-3.39-8.97-4.45-11.57-3l-.66,.37-.08-.75c0-.05-.13-1.33,1.04-2.36,1.64-1.45,4.89-1.61,9.64-.49,8.32-1.58,22.18,3.51,32.67,16.33,8.1,9.9,19.61,31.5,5.68,64.95l-.1,.24-3.28,.75Zm-42.25-80.68c2.62,0,5.84,1.29,9.48,3.83,17.1,11.91,38.12,46.27,33.97,75.55l1.34-.31c13.57-32.83,2.3-53.99-5.63-63.7-10.29-12.57-23.78-17.55-31.81-15.96l-.11,.02-.11-.03c-5.54-1.32-7.86-.6-8.83,.23-.28,.24-.45,.49-.56,.73,.69-.24,1.44-.36,2.24-.36Z" fill="#002346"></path>
  </g>
  <g>
    <path d="M481.91,215.2c12.96-18.38,31.72-5.28,18.92,13.22-12.96,18.38-31.72,5.28-18.92-13.22Z" fill="#f2b3c1"></path>
    <path d="M487.12,237.78c-2.16,0-4.12-.63-5.69-1.73-4.72-3.3-6.72-11.32,.07-21.13h0c6.88-9.76,15.09-10.65,19.82-7.35,4.72,3.3,6.72,11.32-.07,21.13-4.59,6.52-9.78,9.08-14.13,9.08Zm-4.79-22.29c-6.4,9.25-4.65,16.72-.32,19.74,4.33,3.02,11.94,2.1,18.43-7.1,6.4-9.25,4.65-16.71,.32-19.74-4.33-3.03-11.94-2.09-18.42,7.1Z" fill="#002346"></path>
  </g>
  <g>
    <path d="M481.46,229.37c8.24-.12,8.24,12.82,0,12.7-8.24,.12-8.24-12.82,0-12.7Z" fill="#f39c12"></path>
    <path d="M481.57,242.57h-.24c-2.43,0-4.4-1.09-5.57-3.08-1.32-2.26-1.32-5.29,0-7.54,1.18-2.02,3.22-3.12,5.69-3.08,2.48-.02,4.51,1.06,5.69,3.08,1.32,2.26,1.32,5.29,0,7.54-1.16,1.99-3.14,3.08-5.58,3.08Zm-.12-1c2.15,.03,3.85-.89,4.84-2.58,1.14-1.95,1.14-4.58,0-6.54-.97-1.67-2.65-2.58-4.72-2.58-.03,0-.07,0-.1,0h-.01c-2.14-.03-3.83,.89-4.82,2.58-1.14,1.95-1.14,4.58,0,6.54,.97,1.67,2.65,2.58,4.72,2.58,.03,0,.07,0,.1,0Z" fill="#002346"></path>
  </g>
  <g>
    <rect x="328.43" y="331.81" width="248.86" height="146.42" rx="10.84" ry="10.84" fill="#fbe493"></rect>
    <path d="M566.46,478.73h-227.18c-6.25,0-11.34-5.09-11.34-11.34v-124.74c0-6.25,5.09-11.34,11.34-11.34h227.18c6.25,0,11.34,5.09,11.34,11.34v124.74c0,6.25-5.09,11.34-11.34,11.34Zm-227.18-146.42c-5.7,0-10.34,4.64-10.34,10.34v124.74c0,5.7,4.64,10.34,10.34,10.34h227.18c5.7,0,10.34-4.64,10.34-10.34v-124.74c0-5.7-4.64-10.34-10.34-10.34h-227.18Z" fill="#002346"></path>
  </g>
  <g opacity=".2">
    <polygon points="528.32 331.81 328.43 451.83 328.43 427.04 489.1 331.81 528.32 331.81" fill="#fff"></polygon>
  </g>
  <g opacity=".2">
    <polygon points="577.3 345.81 577.3 370.13 391.49 478.22 346.95 478.22 577.3 345.81" fill="#fff"></polygon>
  </g>
  <path d="M670.45,409.34c41.7,0,41.7,11.43,0,11.44-41.7,0-41.7-11.43,0-11.44Z" fill="#002346"></path>
  <path d="M255.63,274.87c-.19,0-.37-.11-.46-.3-.11-.25,0-.55,.25-.66,8.98-3.99,18.77-4.69,18.87-4.7,.29,0,.51,.19,.53,.47,.02,.28-.19,.51-.46,.53-.1,0-9.72,.7-18.53,4.61-.07,.03-.13,.04-.2,.04Z" fill="#002346"></path>
  <path d="M260.13,286.37c-.2,0-.39-.12-.46-.31-.1-.26,.02-.55,.28-.65,9.99-4,17.42-3.51,17.73-3.48,.28,.02,.48,.26,.46,.54-.02,.27-.26,.48-.53,.46-.08,0-7.52-.49-17.29,3.41-.06,.02-.12,.04-.19,.04Z" fill="#002346"></path>
  <path d="M263.13,296.37c-.18,0-.36-.1-.45-.28-.12-.25-.02-.55,.22-.67,8.03-4.01,16.41-3.6,16.76-3.58,.28,.02,.49,.25,.47,.53-.01,.28-.24,.49-.53,.47-.08,0-8.47-.42-16.26,3.47-.07,.04-.15,.05-.22,.05Z" fill="#002346"></path>
  <g>
    <g>
      <path d="M774.28,434.29s1.39-31.67-2.09-47.34c-.58-2.64-1.83-5.09-3.63-7.11-7.09-7.98-29.1-32.28-47.8-47.97,0,0,17.51-3.64,34.05,6.33v10.7s3.65-8.51,3.65-8.51c0,0,20.43,12.17,18.48,45.49l-.97,32.11-1.7,16.3Z" fill="#7cd295"></path>
      <path d="M773.85,434.28c.01-.32,1.35-31.79-2.08-47.23-.57-2.56-1.79-4.96-3.53-6.92-8.27-9.3-29.48-32.6-47.75-47.92l-.67-.56,.86-.18c.18-.04,17.87-3.56,34.36,6.38l.21,.12v8.87s3.03-7.06,3.03-7.06l.42,.25c.21,.12,20.63,12.68,18.69,45.87l-.97,32.14-1.7,16.3-.85-.06Zm-19.46-83.29v-12.53c-14.04-8.36-28.91-6.86-32.65-6.3,18.15,15.36,38.96,38.22,47.14,47.42,1.84,2.07,3.13,4.6,3.72,7.3,2.19,9.87,2.46,26.21,2.35,36.9l.61-5.79,.97-32.12c1.76-30.04-15.01-42.87-17.87-44.83l-4.27,9.95Z" fill="#002346"></path>
    </g>
    <g>
      <path d="M739.61,460.69c0,15.37,11.01,28.53,26.13,31.25h0c17.28,3.08,33.78-8.43,36.86-25.7,.33-1.83,.49-3.68,.49-5.54,.01-7.76-2.83-15.26-7.99-21.06l-34.39-.24-12.82-.09c-5.34,5.84-8.3,13.48-8.28,21.39Z" fill="#f39c12"></path>
      <path d="M765.66,492.35c-15.34-2.76-26.48-16.08-26.48-31.66-.01-8.04,2.97-15.74,8.4-21.68l.13-.14,47.59,.33,.13,.14c5.23,5.89,8.11,13.47,8.09,21.35,0,1.88-.17,3.77-.5,5.62-1.51,8.47-6.23,15.84-13.28,20.76-5.46,3.81-11.83,5.8-18.35,5.8-1.9,0-3.81-.17-5.72-.51Zm-17.58-52.63c-5.2,5.76-8.06,13.2-8.05,20.97h0c0,15.18,10.84,28.14,25.78,30.83,8.24,1.47,16.57-.36,23.43-5.15,6.87-4.79,11.46-11.97,12.93-20.21,.32-1.8,.48-3.64,.49-5.47,.01-7.6-2.74-14.93-7.75-20.64l-46.83-.33Z" fill="#002346"></path>
    </g>
    <g>
      <path d="M778.06,439.51v-2.88c-.04-3.79,1.46-7.43,4.16-10.09l48.09-47.26s-23.13-2.92-34.14,6.29l-.23,12.57-3.81-9.88s-20.66,8.76-18.87,51.21l4.8,.03Z" fill="#7cd295"></path>
      <path d="M772.85,439.9l-.02-.4c-1.79-42.26,18.92-51.53,19.13-51.62l.4-.17,3.19,8.27,.19-10.59,.15-.12c11.02-9.22,33.51-6.51,34.47-6.39l.87,.11-48.71,47.88c-2.61,2.56-4.08,6.13-4.04,9.78v3.31l-5.64-.04Zm23.74-54.12l-.27,14.55-4.43-11.48c-2.82,1.5-19.72,12.12-18.23,50.2l3.97,.03v-2.44c-.05-3.89,1.52-7.67,4.29-10.4l47.44-46.63c-4.31-.41-23.2-1.67-32.78,6.17Z" fill="#002346"></path>
    </g>
    <g>
      <path d="M766.74,439.43l-2.63-21.51c-.19-1.53-.85-2.97-1.91-4.1-6.89-7.37-34.13-36.23-49.95-49.34,0,0,18.24-1.7,34.54,6.56l.49,11.43,3.65-8.76s17.76,9.98,18.24,44.73v20.96s-2.43,.02-2.43,.02Z" fill="#7cd295"></path>
      <path d="M763.68,417.97c-.18-1.45-.8-2.79-1.8-3.86-5.49-5.88-33.69-35.87-49.91-49.3l-.79-.66,1.02-.1c.18-.02,18.56-1.62,34.77,6.61l.22,.11,.41,9.77,3.1-7.43,.42,.23c.18,.1,17.98,10.5,18.46,45.1v21.38s-3.24,.02-3.24,.02l-2.68-21.89Zm5.06,.49c-.43-31.13-14.98-42.33-17.62-44.11l-4.19,10.06-.56-13.1c-13.72-6.88-28.95-6.67-33.03-6.47,16.37,13.77,43.77,42.9,49.17,48.69,1.12,1.2,1.82,2.7,2.02,4.33l2.58,21.14h1.63s0-20.54,0-20.54Z" fill="#002346"></path>
    </g>
  </g>
  <g>
    <circle cx="437.85" cy="156.33" r="22" fill="#002346"></circle>
    <path d="M437.85,178.83c-12.41,0-22.5-10.09-22.5-22.5s10.09-22.5,22.5-22.5,22.5,10.09,22.5,22.5-10.09,22.5-22.5,22.5Zm0-44c-11.86,0-21.5,9.65-21.5,21.5s9.64,21.5,21.5,21.5,21.5-9.65,21.5-21.5-9.64-21.5-21.5-21.5Z" fill="#002346"></path>
  </g>
</svg>
