<?xml version="1.0" encoding="UTF-8"?>
<svg xmlns="http://www.w3.org/2000/svg" id="a" width="865.76" height="682.89" viewBox="0 0 865.76 682.89">
  <path d="M559.88,73.35s6.1-3.6,11.45-4.31c2.39-.3,4.73,.89,5.9,3,1.15,2.07,3.22,4.7,6.36,5h10.53c.94,0,1.7-.76,1.7-1.7v-11.14c0-.94-.76-1.7-1.7-1.7h-9.75c-1.79,0-3.5-.75-4.7-2.08l-1.77-1.94c-.89-.98-2.12-1.58-3.44-1.67-3.47-.23-10.44-.28-14.62,2.45l.04,14.08Z" fill="#e9a821" stroke="#002346" stroke-miterlimit="10"></path>
  <polygon points="846.24 630.11 18.84 626.24 19.04 569.13 846.92 569.13 846.24 630.11" fill="#ebebeb" stroke="#002346" stroke-miterlimit="10"></polygon>
  <path d="M19.8,568.86l101.44-36.42,632.06,3.08,92.37,33.16c.25,.09,.18,.45-.08,.45H19.84c-.16,0-.19-.22-.05-.27Z" fill="#fff" stroke="#002346" stroke-miterlimit="10"></path>
  <polygon points="113.79 494.7 121.23 532.44 753.29 535.52 755.27 496.59 113.79 494.7" fill="#ebebeb" stroke="#002346" stroke-miterlimit="10"></polygon>
  <path d="M754.11,496.2l-54.34-18.38H177.46l-62.83,16.66c-.13,.03-.11,.23,.03,.23l639.38,1.88c.23,0,.28-.32,.06-.39Z" fill="#fff" stroke="#002346" stroke-miterlimit="10"></path>
  <polygon points="174.05 451.19 177.46 477.82 699.77 477.82 699.77 454.1 174.05 451.19" fill="#ebebeb" stroke="#002346" stroke-miterlimit="10"></polygon>
  <path d="M212.52,446.84l-38.47,4.35,524.42,2.9c.19,0,.22-.27,.04-.32l-38.13-9.84-447.86,2.9Z" fill="#fff" stroke="#002346" stroke-miterlimit="10"></path>
  <polygon points="210.34 423.61 212.52 446.84 660.38 443.94 660.38 423.61 210.34 423.61" fill="#ebebeb" stroke="#002346" stroke-miterlimit="10"></polygon>
  <polygon points="210.34 423.61 239.64 421.05 638.53 420.65 660.38 423.61 210.34 423.61" fill="#fff" stroke="#002346" stroke-miterlimit="10"></polygon>
  <path d="M239.64,421.05v-16.62l19.39-4.26v-10.87l20.05-3.49v-13.22h15.83v-11.58h14.25v-10.55h12.66v-10.03h11.08v-8.44h12.14v-17.97l17.79-.33,257.32-164.36c1.86-1.19,2.01-3.85,.3-5.24l-66.9-54.52c-.47-.38-.2-1.13,.4-1.13h11.01c.13,0,.26,.04,.36,.11l99.24,68.06c1.66,1.14,1.89,3.49,.49,4.93l-146.14,150.84v11.9h12.15l1,10.94,9.14-.67,4.2,15.14,19.75,.54v12.98l18.36,.54,.54,7.68h10.27v12.07l21.09,3.5-.27,15.41,22.98,3.24,.4,15.01-398.89,.4Z" fill="#ebebeb" stroke="#002346" stroke-miterlimit="10"></path>
  <line x1="279.08" y1="385.81" x2="594.33" y2="383.49" fill="#ebebeb" stroke="#002346" stroke-miterlimit="10"></line>
  <line x1="294.91" y1="372.59" x2="584.06" y2="371.42" fill="#ebebeb" stroke="#002346" stroke-miterlimit="10"></line>
  <line x1="565.16" y1="363.2" x2="309.16" y2="361.01" fill="#ebebeb" stroke="#002346" stroke-miterlimit="10"></line>
  <line x1="321.82" y1="350.46" x2="545.41" y2="349.68" fill="#ebebeb" stroke="#002346" stroke-miterlimit="10"></line>
  <line x1="532.07" y1="335.21" x2="332.9" y2="340.43" fill="#ebebeb" stroke="#002346" stroke-miterlimit="10"></line>
  <line x1="345.04" y1="331.99" x2="518.92" y2="324.27" fill="#ebebeb" stroke="#002346" stroke-miterlimit="10"></line>
  <line x1="362.84" y1="313.7" x2="518.92" y2="312.37" fill="#ebebeb" stroke="#002346" stroke-miterlimit="10"></line>
  <line x1="240.34" y1="404.7" x2="638.34" y2="405.7" fill="none" stroke="#002346" stroke-miterlimit="10"></line>
  <line x1="258.84" y1="389.7" x2="614.34" y2="387.7" fill="#ebebeb" stroke="#002346" stroke-miterlimit="10"></line>
  <path d="M388.35,486.08c1.23,4.19,2.04,8.49,2.43,12.84,0,0,9.37-3.12,12.49,4.51v-21.86l-14.92,4.51Z" fill="#f2b3c1" stroke="#002346" stroke-miterlimit="10"></path>
  <path d="M436.88,417.57h22.11c.02-3.58-.52-7.13-1.6-10.54-.8-2.15-1.08-4.45-.82-6.73,.55-5.15,1.12-13.67-.68-16.81,0,0-7.75-8.92-15.5,0,0,0-.8,12.78-1,18.08-.15,3.24-.8,6.44-1.91,9.49-.7,2.09-.9,4.32-.6,6.51Z" fill="#fff" stroke="#002346" stroke-miterlimit="10"></path>
  <rect x="441.08" y="356.54" width="11.72" height="21.32" fill="#f2b3c1" stroke="#002346" stroke-miterlimit="10"></rect>
  <path d="M389.65,270.62s-14.67,13-9.7,47.38c0,0,2.59,47.78,6.26,73.98,1.02,7.28-.19,14.67-3.42,21.27-4.04,8.25-8.06,22.18-3.87,41.24,0,0,4.86,34.79,14,34.41,0,0,12.62-.77,14.91-13.39,0,0-.8-38.8,.93-58.79,.37-4.31,1.67-8.47,3.6-12.35,1.13-2.28,2.3-6.03,2.45-11.91,0,0,1.2-66.73,10.63-89.06,.68-1.61,2.19-2.7,3.93-2.87h0c2.8-.27,5.22,1.93,5.22,4.74v44.23c0,2.47,1.14,4.8,3.1,6.31,2.47,1.91,6.1,4.29,9.78,5.15,4.05,.95,8.12-1.52,9.31-5.51,2.62-8.74,8.39-30.15,5.39-39.76l-2.77-9.08c-.81-2.65,.22-5.51,2.53-7.04,6.04-3.99,16.65-12.72,14.56-23.72-.21-1.11-.59-2.18-1.03-3.22l-7.87-18.7-77.94,16.68Z" fill="#e9a821" stroke="#002346" stroke-miterlimit="10"></path>
  <path d="M498.52,260.39l.88,1.93,13.79-8.63s-.66-5.19-5.7-4.52c0-.03-10.63,3.65-8.97,11.22Z" fill="#fff" stroke="#002346" stroke-miterlimit="10"></path>
  <path d="M452.94,142.49l5.3-.54c.34-.03,.59,.3,.45,.61-1.25,2.95-5.57,15.24-.9,35.31,.33,1.44,.77,2.85,1.3,4.22l1.1,2.83s-10.18,17.22-9.61,34.48c.04,1.05,.33,2.08,.83,3l13.93,26.16s-25.5,2.83-34.25,10.56l-4.89-7.47-8,9.27h-27.81s-5.71-.52,.88-6.44c0,0,25.39-24.21,21.27-33.22,0,0-4.31-7.4-7.82-12.46l12.45-61.46s28.5-9.17,35.76-4.85Z" fill="#1d449c" stroke="#002346" stroke-miterlimit="10"></path>
  <path d="M460.67,185.37c1.82,1.54,7.91,7.71,11.6,24.61,0,.07,0,.15,0,.22,0,1.66,.42,21.85,10.28,34.19v.05c.41,.61,10.38,15.51,14.92,19.29,0,0,2.32,1.29,1.81-2.83,0,0-3.34-5.65,7.92-10.53l.13-.05c1.93-.51,3.96,.45,4.78,2.27,.58,1.09,2.31,.39,1.87-.76-.37-1-1.76-2.37-5.31-4.26-.08-.04-.16-.09-.22-.16-1.12-1.08-11.55-11.48-13.29-25.33,0-.04,0-.09,0-.13-.42-1.36-7.87-25.86-13.43-39.86-1.32-3.31-2.47-6.67-3.48-10.08-2.3-7.8-8-22.83-18.93-30-.46-.31-1.08-.19-1.39,.27-.04,.06-.08,.13-.1,.2-1.51,3.59-8.92,23.71,2.18,42.16,.19,.27,.41,.52,.66,.73Z" fill="#1d449c" stroke="#002346" stroke-miterlimit="10"></path>
  <path d="M499.4,262.32c-.31,3.97-.4,7.95-.26,11.93,0,0-.19,12.7-2.64,16.49-.41,.58-.54,1.31-.35,2,.38,1.25,1.64,2.28,5.72-2.68,0,0,2.52,.8,4.07-.8,0,0,9.31,4.28,10.11-2.68,2.39-3.13,3.36-7.12,2.68-11,0,0-.52-13.81-6-21.65l-13.33,8.39Z" fill="#f2b3c1" stroke="#002346" stroke-miterlimit="10"></path>
  <path d="M508.79,289.69s-4.51-9-1.3-10.62c0,0,2.09-2,5.24,5.57,0,0,2.12-2.52,3.19,1.49" fill="none" stroke="#002346" stroke-linecap="round" stroke-linejoin="round"></path>
  <path d="M504.04,265.33s-.49,12.95,7.16,13.51" fill="none" stroke="#002346" stroke-linecap="round" stroke-linejoin="round"></path>
  <path d="M501.87,290.04c-1.62-2.91-2.19-6.29-1.62-9.57" fill="none" stroke="#002346" stroke-linecap="round" stroke-linejoin="round"></path>
  <path d="M505.94,289.24s-3.27-2.17-1.91-8.77" fill="none" stroke="#002346" stroke-linecap="round" stroke-linejoin="round"></path>
  <path d="M525.39,345.22s-18.4-38.32-19.45-56c-1.1,1-2.67,1.31-4.07,.8,0,0,5.68,42.2,19.06,61.13l-2.05,2.59c-.53,.66-.86,1.46-.94,2.3-.61,6-2.12,31.31,13.33,48.37l21.54-33s-13.86-26-16.87-42l-10.55,15.81Z" fill="#1d449c" stroke="#002346" stroke-miterlimit="10"></path>
  <path d="M541.21,412.33s-3.28-.76-7.62-11.43l19.87-30.73,3.77,7.7-16.02,34.46Z" fill="#e9a821" stroke="#002346" stroke-miterlimit="10"></path>
  <path d="M541.21,412.33l9.89-1.64,28.8-40.15s-16.6-5.86-22.71,7.3l-15.98,34.49Z" fill="#fff" stroke="#002346" stroke-miterlimit="10"></path>
  <path d="M535.94,329.41s-11-34.9-18.76-44.56c0,0-1.79-2.09-3.68-.66-.29-.57-.54-1.16-.72-1.77-.42-1.47,.43-2.99,1.9-3.41,.81-.23,1.68-.08,2.36,.41,4.19,3,13.48,12.06,23.08,37.88,.79,2.16,1.8,4.23,3,6.18,5.44,8.86,21.59,34.05,36.81,47.12,0,0-16.57-5.93-22.71,7.3,0-.03-16.47-16.32-21.28-48.49Z" fill="#1d449c" stroke="#002346" stroke-miterlimit="10"></path>
  <path d="M390.4,260.9l-1.8,6.67c-.31,1.14,.11,2.34,1.05,3.05,5.7,4.26,26.47,17.55,50.58,6.07,10.48-5.75,19.76-13.48,27.31-22.75l-2.2-5.4s-25.83,2.42-34.25,10.56l-4.89-7.47-8,9.27h-27.8Z" fill="#fff" stroke="#002346" stroke-miterlimit="10"></path>
  <path d="M441.87,388.98s1.86,.53,3.85,15.45l1.22,13.14h5s0-18.37,2.88-25.11c0,0,1.79-3.29,1.1-9-.03,.03-10.38-3.61-14.05,5.52Z" fill="#fff" stroke="#002346" stroke-miterlimit="10"></path>
  <path d="M403.27,503.43s3.15,8.14,2.45,28.53c-.1,2.66,.11,5.31,.63,7.92,.85,4.15,2.33,10.1,4.26,12.37,.39,.44,.62,1,.63,1.59v.33c0,1.28-1.04,2.32-2.32,2.33h-27.24v-39.54s5.68-8.72,14.78-9.53l6.81-4Z" fill="#fff" stroke="#002346" stroke-miterlimit="10"></path>
  <path d="M591.54,272.08h3.66v12.82l106.91,61.15c.22,.13,.19,.45-.04,.54l-6.41,2.41-104.11-61.98v-14.94Z" fill="#fff" stroke="#002346" stroke-miterlimit="10"></path>
  <path d="M695.65,420.65l4.12,.4,2.87-74.2c0-.25-.21-.45-.46-.42l-6.53,.8v73.42Z" fill="#fff" stroke="#002346" stroke-miterlimit="10"></path>
  <polygon points="596.54 356.55 596.09 346.37 598.16 347.91 598.16 359.55 596.54 356.55" fill="#fff" stroke="#002346" stroke-miterlimit="10"></polygon>
  <polygon points="46.68 443.94 46.68 516.66 145.1 442.31 145.1 454.1 178.5 392.02 149.41 367.59 149.76 381.6 46.68 443.94" fill="#e9a821" stroke="#002346" stroke-miterlimit="10"></polygon>
  <polygon points="46.68 443.94 39.85 442.13 146.89 380.88 146.89 364.89 149.41 367.59 149.76 381.6 46.68 443.94" fill="#fff" stroke="#002346" stroke-miterlimit="10"></polygon>
  <polygon points="39.85 442.13 42.83 516.66 46.68 516.66 46.68 443.94 39.85 442.13" fill="#fff" stroke="#002346" stroke-miterlimit="10"></polygon>
  <polygon points="145.1 442.31 142.94 443.94 143.13 457.35 145.1 454.1 145.1 442.31" fill="#fff" stroke="#002346" stroke-miterlimit="10"></polygon>
  <path d="M399.21,129.88s2.19-36.45,29.06-41.11c0,0,23.57-4.39,24.67,18.36v35.36s-3.84,3-7.95,1.65c0,0-1.37,19.73-8.22,20,0,0-18.37,34-28.24,41.39-5.27,3.74-9.1,9.18-10.84,15.4-.04,.14-.18,.22-.32,.18-.11-.03-.18-.12-.19-.23-.12-3.84,.56-7.67,2-11.24,0,0-3.29-.82-4.66,9.59,0,0,0,7.95-10.69,9.87v-11s-3.84,3.83-7.13,2.74c0,0,8.93-8.41,10.55-17.62,.1-.66,.16-1.33,.17-2,.16-6.27,1.5-40.9,11.21-45.63,.03,.1-.06-20.65,.58-25.71Z" fill="#002346" stroke="#002346" stroke-miterlimit="10"></path>
  <path d="M403.52,210.09c4.77-2.3,9.14-5.33,12.95-9,3.8-3.61,7.12-7.7,9.88-12.15,.69-1.1,1.29-2.26,1.93-3.39,.32-.57,.65-1.12,.95-1.7l.8-1.78c.53-1.19,1.1-2.35,1.59-3.55l1.3-3.67,.65-1.83,.49-1.88,1-3.76c.57-2.52,.94-5.1,1.43-7.63l4.78,.8c-.66,2.66-1.22,5.33-2,8l-1.32,3.88-.65,1.94-.82,1.88-1.63,3.75c-.6,1.23-1.29,2.41-1.93,3.61l-1,1.79c-.35,.59-.74,1.15-1.11,1.72-.76,1.13-1.46,2.29-2.26,3.39-3.22,4.35-6.99,8.28-11.21,11.68-1,.87-2.13,1.64-3.23,2.41s-2.26,1.46-3.38,2.18c-2.3,1.32-4.71,2.43-7.21,3.31Z" fill="#002346" stroke="#002346" stroke-miterlimit="10"></path>
  <path d="M441.87,388.98c-.14,.29-.48,.41-.77,.28-.18-.09-.3-.26-.33-.46-.66-5.2-1.51-18.68,7.6-18.33,0,0,6.86-1.82,7.52,13,0,.02-9.42-3.51-14.02,5.51Z" fill="#1d449c" stroke="#002346" stroke-miterlimit="10"></path>
  <path d="M381.88,516.84c1.67-1.03,13.37-7.77,17.23,2.21l4.16-15.61s-1.73-8-12.49-4.51l-8.99,17.82c-.03,.06,.03,.13,.09,.09Z" fill="#1d449c" stroke="#002346" stroke-miterlimit="10"></path>
  <path d="M381.68,516.96s5.63,15.27,6.67,40.6h4.13s3.42-31.16,6.63-38.52c-.01,0-3.59-10.99-17.43-2.08Z" fill="#fff" stroke="#002346" stroke-miterlimit="10"></path>
  <path d="M563.94,296.72l27.2-24.28c.16-.14,.4-.03,.4,.18v12.64l104.11,61.97v73.42l-99.56-74.28,.45,10.18-32.6-59.83Z" fill="#e9a821" stroke="#002346" stroke-miterlimit="10"></path>
  <line x1="559.84" y1="89.7" x2="559.84" y2="52.78" fill="#fff" stroke="#002346" stroke-linecap="round" stroke-linejoin="round"></line>
</svg>
